<?xml version="1.0" encoding="utf-8"?>
<!-- Generated by IcoMoon.io -->
<!DOCTYPE svg PUBLIC "-//W3C//DTD SVG 1.1//EN" "http://www.w3.org/Graphics/SVG/1.1/DTD/svg11.dtd">
<svg version="1.1" xmlns="http://www.w3.org/2000/svg" xmlns:xlink="http://www.w3.org/1999/xlink" width="48" height="48" viewBox="0 0 48 48">
<path fill="#181818" d="M24 0q9.375 0 16.266 6.328t7.641 15.609h-3q-0.469-5.531-3.703-10.031t-8.203-6.844l-2.719 2.625-7.594-7.594zM33.094 23.625q0-5.344-4.406-5.344h-1.875v11.531h1.781q3.375 0 4.313-3.188 0.188-0.656 0.188-2.25v-0.75zM28.688 16.031q4.969 0 6.75 4.406 0.469 1.125 0.469 3.188v0.75q0 3.563-1.969 5.531-2.063 2.063-5.344 2.063h-4.594v-15.938h4.688zM19.406 23.813q2.625 1.031 2.625 3.656 0 0.938-0.469 1.875-0.563 1.125-1.031 1.5-1.406 1.125-3.75 1.125-2.25 0-3.656-1.125t-1.406-3.281h2.531q0 1.031 0.703 1.688t1.828 0.656q2.625 0 2.625-2.531t-2.906-2.531h-1.5v-2.063h1.5q2.719 0 2.719-2.344t-2.438-2.344q-2.344 0-2.344 2.156h-2.625q0-1.594 1.406-3 1.5-1.219 3.563-1.219 3.281 0 4.594 2.531 0.375 0.75 0.375 1.875 0 2.156-2.344 3.375zM15 42.938l2.719-2.625 7.594 7.594-1.313 0.094q-9.375 0-16.266-6.375t-7.641-15.656h3q0.563 5.625 3.75 10.125t8.156 6.844z"></path>
</svg>
