<?xml version="1.0" encoding="utf-8"?>
<!-- Generated by IcoMoon.io -->
<!DOCTYPE svg PUBLIC "-//W3C//DTD SVG 1.1//EN" "http://www.w3.org/Graphics/SVG/1.1/DTD/svg11.dtd">
<svg version="1.1" xmlns="http://www.w3.org/2000/svg" xmlns:xlink="http://www.w3.org/1999/xlink" width="48" height="48" viewBox="0 0 48 48">
<path fill="#181818" d="M43.969 22.031v3.938h-8.344l6.469 6.469-2.813 2.906-9.281-9.375h-4.031v4.031l9.375 9.281-2.906 2.813-6.469-6.469v8.344h-3.938v-8.344l-6.469 6.469-2.906-2.813 9.375-9.281v-4.031h-4.031l-9.281 9.375-2.813-2.906 6.469-6.469h-8.344v-3.938h8.344l-6.469-6.469 2.813-2.906 9.281 9.375h4.031v-4.031l-9.375-9.281 2.906-2.813 6.469 6.469v-8.344h3.938v8.344l6.469-6.469 2.906 2.813-9.375 9.281v4.031h4.031l9.281-9.375 2.813 2.906-6.469 6.469h8.344z"></path>
</svg>
