<?xml version="1.0" encoding="utf-8"?>
<!-- Generated by IcoMoon.io -->
<!DOCTYPE svg PUBLIC "-//W3C//DTD SVG 1.1//EN" "http://www.w3.org/Graphics/SVG/1.1/DTD/svg11.dtd">
<svg version="1.1" xmlns="http://www.w3.org/2000/svg" xmlns:xlink="http://www.w3.org/1999/xlink" width="48" height="48" viewBox="0 0 48 48">
<path fill="#181818" d="M24 40.031q5.813 0 9.891-4.125t4.078-9.938-4.078-9.891-9.891-4.078-9.891 4.078-4.078 9.891 4.078 9.938 9.891 4.125zM24 7.969q7.5 0 12.75 5.25t5.25 12.75-5.25 12.75-12.75 5.25-12.75-5.25-5.25-12.75 5.25-12.75 12.75-5.25zM25.031 16.031v10.594l7.969 4.781-1.594 2.438-9.375-5.813v-12h3zM15.844 6.844l-9.281 7.594-2.531-3 9.188-7.594zM43.969 11.438l-2.531 3-9.281-7.875 2.625-3z"></path>
</svg>
