<?xml version="1.0" encoding="utf-8"?>
<!-- Generated by IcoMoon.io -->
<!DOCTYPE svg PUBLIC "-//W3C//DTD SVG 1.1//EN" "http://www.w3.org/Graphics/SVG/1.1/DTD/svg11.dtd">
<svg version="1.1" xmlns="http://www.w3.org/2000/svg" xmlns:xlink="http://www.w3.org/1999/xlink" width="48" height="48" viewBox="0 0 48 48">
<path fill="#181818" d="M25.688 36h4.125q-0.75 3.469-3.469 5.719t-6.375 2.25q-4.125 0-7.031-2.906t-2.906-7.031q0-3.656 2.25-6.375t5.719-3.469v4.125q-1.781 0.656-2.906 2.203t-1.125 3.516q0 2.438 1.781 4.219t4.219 1.781q1.969 0 3.516-1.125t2.203-2.906zM19.969 18.188q0-2.25 1.969-3.563t4.031-0.094h0.094v0.094q0.656 0.281 1.219 0.844l2.625 2.906q3.375 3.656 8.063 3.656v3.938q-5.25 0-9.938-3.844v6.844h6q1.594 0 2.766 1.219t1.172 2.813v10.969h-3.938v-9.938h-10.031q-1.594 0-2.813-1.219t-1.219-2.813v-11.813zM19.969 7.969q0-1.688 1.172-2.813t2.859-1.125 2.859 1.125 1.172 2.813-1.172 2.859-2.859 1.172-2.859-1.172-1.172-2.859z"></path>
</svg>
