<?xml version="1.0" encoding="utf-8"?>
<!-- Generated by IcoMoon.io -->
<!DOCTYPE svg PUBLIC "-//W3C//DTD SVG 1.1//EN" "http://www.w3.org/Graphics/SVG/1.1/DTD/svg11.dtd">
<svg version="1.1" xmlns="http://www.w3.org/2000/svg" xmlns:xlink="http://www.w3.org/1999/xlink" width="48" height="48" viewBox="0 0 48 48">
<path fill="#181818" d="M12 34.031v1.969h24v-1.969q0-2.719-4.125-4.453t-7.875-1.734-7.875 1.734-4.125 4.453zM30 18q0-2.438-1.781-4.219t-4.219-1.781-4.219 1.781-1.781 4.219 1.781 4.219 4.219 1.781 4.219-1.781 1.781-4.219zM6 10.031q0-1.594 1.172-2.813t2.859-1.219h27.938q1.594 0 2.813 1.219t1.219 2.813v27.938q0 1.594-1.219 2.813t-2.813 1.219h-27.938q-1.688 0-2.859-1.219t-1.172-2.813v-27.938z"></path>
</svg>
