<?xml version="1.0" encoding="utf-8"?>
<!-- Generated by IcoMoon.io -->
<!DOCTYPE svg PUBLIC "-//W3C//DTD SVG 1.1//EN" "http://www.w3.org/Graphics/SVG/1.1/DTD/svg11.dtd">
<svg version="1.1" xmlns="http://www.w3.org/2000/svg" xmlns:xlink="http://www.w3.org/1999/xlink" width="48" height="48" viewBox="0 0 48 48">
<path fill="#181818" d="M24 38.438q7.594 0 12-6.469-0.094-2.625-4.219-4.406t-7.781-1.781-7.781 1.734-4.219 4.453q4.406 6.469 12 6.469zM24 10.031q-2.438 0-4.219 1.781t-1.781 4.219 1.781 4.219 4.219 1.781 4.219-1.781 1.781-4.219-1.781-4.219-4.219-1.781zM24 4.031q8.25 0 14.109 5.859t5.859 14.109-5.859 14.109-14.109 5.859-14.109-5.859-5.859-14.109 5.859-14.109 14.109-5.859z"></path>
</svg>
