<?xml version="1.0" encoding="utf-8"?>
<!-- Generated by IcoMoon.io -->
<!DOCTYPE svg PUBLIC "-//W3C//DTD SVG 1.1//EN" "http://www.w3.org/Graphics/SVG/1.1/DTD/svg11.dtd">
<svg version="1.1" xmlns="http://www.w3.org/2000/svg" xmlns:xlink="http://www.w3.org/1999/xlink" width="48" height="48" viewBox="0 0 48 48">
<path fill="#181818" d="M31.969 27q1.219 0 2.109-0.844t0.891-2.156-0.891-2.156-2.109-0.844-2.109 0.844-0.891 2.156 0.891 2.156 2.109 0.844zM24 31.969v-15.938h19.969v15.938h-19.969zM42 36v1.969q0 1.594-1.219 2.813t-2.813 1.219h-27.938q-1.688 0-2.859-1.219t-1.172-2.813v-27.938q0-1.594 1.172-2.813t2.859-1.219h27.938q1.594 0 2.813 1.219t1.219 2.813v1.969h-18q-1.688 0-2.859 1.219t-1.172 2.813v15.938q0 1.594 1.172 2.813t2.859 1.219h18z"></path>
</svg>
