<?xml version="1.0" encoding="utf-8"?>
<!-- Generated by IcoMoon.io -->
<!DOCTYPE svg PUBLIC "-//W3C//DTD SVG 1.1//EN" "http://www.w3.org/Graphics/SVG/1.1/DTD/svg11.dtd">
<svg version="1.1" xmlns="http://www.w3.org/2000/svg" xmlns:xlink="http://www.w3.org/1999/xlink" width="48" height="48" viewBox="0 0 48 48">
<path fill="#181818" d="M30 18q0.844 0 1.406-0.563t0.563-1.406-0.563-1.453-1.406-0.609-1.406 0.609-0.563 1.453 0.563 1.406 1.406 0.563zM18 18q0.844 0 1.406-0.563t0.563-1.406-0.563-1.453-1.406-0.609-1.406 0.609-0.563 1.453 0.563 1.406 1.406 0.563zM32.25 8.719q5.719 4.219 5.719 11.25v2.063h-27.938v-2.063q0-7.031 5.719-11.25l-4.219-4.219 1.688-1.594 4.594 4.594q3-1.5 6.188-1.5t6.188 1.5l4.594-4.594 1.688 1.594zM10.031 31.969v-7.969h27.938v7.969q0 5.813-4.078 9.938t-9.891 4.125-9.891-4.125-4.078-9.938z"></path>
</svg>
