<?xml version="1.0" encoding="utf-8"?>
<!-- Generated by IcoMoon.io -->
<!DOCTYPE svg PUBLIC "-//W3C//DTD SVG 1.1//EN" "http://www.w3.org/Graphics/SVG/1.1/DTD/svg11.dtd">
<svg version="1.1" xmlns="http://www.w3.org/2000/svg" xmlns:xlink="http://www.w3.org/1999/xlink" width="48" height="48" viewBox="0 0 48 48">
<path fill="#181818" d="M14.344 29.531q0 0.469 0.469 0.469h23.156v4.031h-24q-1.594 0-2.766-1.219t-1.172-2.813q0-0.938 0.469-1.875l2.719-4.969-7.219-15.188h-4.031v-3.938h6.563q1.875 3.938 3.75 7.969 0.469 0.844 2.156 4.453t2.625 5.578h14.063q7.031-12.75 7.688-14.063l3.469 1.969-7.688 13.969q-1.125 2.063-3.469 2.063h-14.906l-1.781 3.281zM34.031 36q1.594 0 2.766 1.219t1.172 2.813-1.172 2.766-2.766 1.172-2.813-1.172-1.219-2.766 1.219-2.813 2.813-1.219zM13.969 36q1.594 0 2.813 1.219t1.219 2.813-1.219 2.766-2.813 1.172-2.766-1.172-1.172-2.766 1.172-2.813 2.766-1.219zM22.031 18v-6h-6v-4.031h6v-6h3.938v6h6v4.031h-6v6h-3.938z"></path>
</svg>
