<?xml version="1.0" encoding="utf-8"?>
<!-- Generated by IcoMoon.io -->
<!DOCTYPE svg PUBLIC "-//W3C//DTD SVG 1.1//EN" "http://www.w3.org/Graphics/SVG/1.1/DTD/svg11.dtd">
<svg version="1.1" xmlns="http://www.w3.org/2000/svg" xmlns:xlink="http://www.w3.org/1999/xlink" width="48" height="48" viewBox="0 0 48 48">
<path fill="#181818" d="M19.594 28.031q0-2.719 1.875-4.594t4.5-1.875q2.719 0 4.594 1.875t1.875 4.594q0 2.625-1.875 4.5t-4.594 1.875-4.547-1.828-1.828-4.547zM25.969 37.969q4.125 0 7.078-2.906t2.953-7.031-2.953-7.078-7.078-2.953-7.031 2.953-2.906 7.078 2.906 7.031 7.031 2.906zM12 19.969v-6h6v-6h13.969l3.656 4.031h6.375q1.594 0 2.813 1.219t1.219 2.813v24q0 1.594-1.219 2.766t-2.813 1.172h-31.969q-1.594 0-2.813-1.172t-1.219-2.766v-20.063h6zM6 7.969v-6h4.031v6h6v4.031h-6v6h-4.031v-6h-6v-4.031h6z"></path>
</svg>
