<?xml version="1.0" encoding="utf-8"?>
<!-- Generated by IcoMoon.io -->
<!DOCTYPE svg PUBLIC "-//W3C//DTD SVG 1.1//EN" "http://www.w3.org/Graphics/SVG/1.1/DTD/svg11.dtd">
<svg version="1.1" xmlns="http://www.w3.org/2000/svg" xmlns:xlink="http://www.w3.org/1999/xlink" width="48" height="48" viewBox="0 0 48 48">
<path fill="#181818" d="M31.969 26.063v-4.031h-6v-6h-3.938v6h-6v4.031h6v6h3.938v-6h6zM37.781 33.656l4.219 4.219v2.156h-36v-2.156l4.219-4.219v-11.625q0-4.781 3-8.578t7.594-4.828v-1.406q0-1.313 0.938-2.25t2.25-0.938 2.25 0.938 0.938 2.25v1.406q4.594 1.031 7.594 4.828t3 8.578v11.625zM20.063 42h7.875q0 1.594-1.172 2.813t-2.766 1.219-2.766-1.219-1.172-2.813z"></path>
</svg>
