<?xml version="1.0" encoding="utf-8"?>
<!-- Generated by IcoMoon.io -->
<!DOCTYPE svg PUBLIC "-//W3C//DTD SVG 1.1//EN" "http://www.w3.org/Graphics/SVG/1.1/DTD/svg11.dtd">
<svg version="1.1" xmlns="http://www.w3.org/2000/svg" xmlns:xlink="http://www.w3.org/1999/xlink" width="48" height="48" viewBox="0 0 48 48">
<path fill="#181818" d="M40.031 40.125l-2.906 2.906-7.031-7.031h-10.125q-2.438 0-4.219-1.781t-1.781-4.219v-11.531q0-1.781 1.359-3.141t3.141-1.359h0.094q1.781 0 3.281 1.5l2.813 3.094q1.594 1.781 4.266 2.906t5.109 1.125v4.406q-5.813 0-11.063-4.406v7.406h6.938zM12 31.969q0 2.438 1.781 4.219t4.219 1.781h12v4.031h-12q-4.125 0-7.078-2.953t-2.953-7.078v-18h4.031v18zM15.188 10.781q-1.219-1.219-1.219-2.813t1.219-2.813 2.813-1.219 2.813 1.219 1.219 2.813-1.219 2.813-2.813 1.219-2.813-1.219z"></path>
</svg>
