<?xml version="1.0" encoding="utf-8"?>
<!-- Generated by IcoMoon.io -->
<!DOCTYPE svg PUBLIC "-//W3C//DTD SVG 1.1//EN" "http://www.w3.org/Graphics/SVG/1.1/DTD/svg11.dtd">
<svg version="1.1" xmlns="http://www.w3.org/2000/svg" xmlns:xlink="http://www.w3.org/1999/xlink" width="48" height="48" viewBox="0 0 48 48">
<path fill="#181818" d="M10.031 24q0 2.438 1.781 4.219t4.219 1.781h7.969v4.031h-7.969q-4.125 0-7.078-2.953t-2.953-7.078v-18h4.031v18zM39.938 38.438q0.281 1.406-0.609 2.484t-2.297 1.078h-9v-6l1.969-7.969h-12q-2.438 0-4.219-1.781t-1.781-4.219v-16.031h12v12h10.031q1.594 0 2.766 1.219t1.172 2.813l-3.938 13.969h2.813q1.125 0 2.016 0.703t1.078 1.734z"></path>
</svg>
