<?xml version="1.0" encoding="utf-8"?>
<!-- Generated by IcoMoon.io -->
<!DOCTYPE svg PUBLIC "-//W3C//DTD SVG 1.1//EN" "http://www.w3.org/Graphics/SVG/1.1/DTD/svg11.dtd">
<svg version="1.1" xmlns="http://www.w3.org/2000/svg" xmlns:xlink="http://www.w3.org/1999/xlink" width="48" height="48" viewBox="0 0 48 48">
<path fill="#181818" d="M32.438 30l11.531 9-3 3-7.594-6h-13.688q-2.156 0-3.797-1.359t-2.109-3.516l-2.719-11.813q-0.281-1.875 0.797-3.375t2.859-1.875h0.094q2.063-0.281 3.469 0.844l3.281 2.531q4.5 3.469 9.375 2.531v4.313q-4.5 0.75-10.313-2.438l2.063 8.156h9.75zM31.969 37.969v4.031h-14.063q-3.75 0-6.563-2.391t-3.375-6.047l-3.938-19.594h3.938l3.938 18.938q0.375 2.156 2.063 3.609t3.938 1.453h14.063zM10.688 11.25q-1.313-0.938-1.594-2.578t0.656-2.953 2.578-1.641 2.953 0.609q1.313 1.031 1.641 2.672t-0.609 2.953-2.625 1.594-3-0.656z"></path>
</svg>
