<?xml version="1.0" encoding="utf-8"?>
<!-- Generated by IcoMoon.io -->
<!DOCTYPE svg PUBLIC "-//W3C//DTD SVG 1.1//EN" "http://www.w3.org/Graphics/SVG/1.1/DTD/svg11.dtd">
<svg version="1.1" xmlns="http://www.w3.org/2000/svg" xmlns:xlink="http://www.w3.org/1999/xlink" width="48" height="48" viewBox="0 0 48 48">
<path fill="#181818" d="M30 22.031h10.031l-8.063-8.063h-1.969v8.063zM34.969 34.969q1.219 0 2.109-0.891t0.891-2.109-0.891-2.109-2.109-0.891-2.109 0.891-0.891 2.109 0.891 2.109 2.109 0.891zM25.969 22.031v-8.063h-7.969v8.063h7.969zM12 34.969q1.313 0 2.156-0.891t0.844-2.109-0.844-2.109-2.156-0.891-2.156 0.891-0.844 2.109 0.844 2.109 2.156 0.891zM6 22.031h7.969v-8.063h-7.969v8.063zM34.031 10.031l12 12v9.938h-5.063q0 2.438-1.781 4.219t-4.219 1.781-4.219-1.781-1.781-4.219h-10.969q0 2.438-1.781 4.219t-4.219 1.781-4.219-1.781-1.781-4.219h-4.031v-18q0-1.688 1.172-2.813t2.859-1.125h28.031z"></path>
</svg>
