<?xml version="1.0" encoding="utf-8"?>
<!-- Generated by IcoMoon.io -->
<!DOCTYPE svg PUBLIC "-//W3C//DTD SVG 1.1//EN" "http://www.w3.org/Graphics/SVG/1.1/DTD/svg11.dtd">
<svg version="1.1" xmlns="http://www.w3.org/2000/svg" xmlns:xlink="http://www.w3.org/1999/xlink" width="48" height="48" viewBox="0 0 48 48">
<path fill="#181818" d="M16.031 6.563l-1.688 1.406-2.906-2.813 1.781-1.406zM32.906 36.75l-19.688-19.688q-3.188 3.938-3.188 8.906 0 5.813 4.078 9.938t9.891 4.125q4.875 0 8.906-3.281zM5.813 4.594q7.125 7.125 20.297 20.25t16.641 16.594l-2.531 2.531-4.406-4.406q-5.156 4.406-11.813 4.406-7.5 0-12.75-5.297t-5.25-12.703q0-6.563 4.406-11.719l-1.594-1.594-2.25 1.875-2.813-2.906 2.25-1.781-2.719-2.719zM43.969 11.438l-2.531 3.094-9.188-7.781 2.531-3zM24 12q-2.531 0-4.781 0.844l-3.094-3q3.938-1.875 7.875-1.875 7.5 0 12.75 5.297t5.25 12.703q0 4.125-1.781 7.875l-3.094-3q0.844-2.25 0.844-4.875 0-5.813-4.078-9.891t-9.891-4.078z"></path>
</svg>
