<?xml version="1.0" encoding="utf-8"?>
<!-- Generated by IcoMoon.io -->
<!DOCTYPE svg PUBLIC "-//W3C//DTD SVG 1.1//EN" "http://www.w3.org/Graphics/SVG/1.1/DTD/svg11.dtd">
<svg version="1.1" xmlns="http://www.w3.org/2000/svg" xmlns:xlink="http://www.w3.org/1999/xlink" width="48" height="48" viewBox="0 0 48 48">
<path fill="#181818" d="M37.219 13.219q4.5 0 7.641 3.188t3.141 7.594-3.141 7.594-7.641 3.188-7.688-3.188l-2.531-2.25 3-2.625 2.344 1.969q2.063 2.063 4.875 2.063t4.781-1.969 1.969-4.781-1.969-4.781-4.781-1.969-4.781 1.969q-6.656 5.813-8.438 7.5l-5.625 4.969q-3.094 3.094-7.594 3.094t-7.641-3.188-3.141-7.594 3.141-7.594 7.641-3.188 7.688 3.188l2.531 2.25-3.094 2.625-2.25-1.969q-2.063-2.063-4.875-2.063t-4.781 1.969-1.969 4.781 1.969 4.781 4.781 1.969 4.781-1.969q6.656-5.813 8.438-7.5l5.625-4.969q3.094-3.094 7.594-3.094z"></path>
</svg>
