<?xml version="1.0" encoding="utf-8"?>
<!-- Generated by IcoMoon.io -->
<!DOCTYPE svg PUBLIC "-//W3C//DTD SVG 1.1//EN" "http://www.w3.org/Graphics/SVG/1.1/DTD/svg11.dtd">
<svg version="1.1" xmlns="http://www.w3.org/2000/svg" xmlns:xlink="http://www.w3.org/1999/xlink" width="48" height="48" viewBox="0 0 48 48">
<path fill="#181818" d="M30 10.031v-2.063h-1.969v2.063h1.969zM19.969 10.031v-2.063h-1.969v2.063h1.969zM31.031 4.313q4.969 3.563 4.969 9.656h-24q0-6.188 4.875-9.656l-2.625-2.625q-0.75-0.75 0-1.406t1.406 0l3 3q2.438-1.313 5.344-1.313 2.813 0 5.25 1.313l3-3q0.75-0.656 1.406 0t0 1.406zM40.969 16.031q1.219 0 2.109 0.891t0.891 2.109v13.969q0 1.313-0.891 2.156t-2.109 0.844-2.109-0.844-0.891-2.156v-13.969q0-1.219 0.891-2.109t2.109-0.891zM7.031 16.031q1.219 0 2.109 0.891t0.891 2.109v13.969q0 1.313-0.891 2.156t-2.109 0.844-2.109-0.844-0.891-2.156v-13.969q0-1.219 0.891-2.109t2.109-0.891zM12 36v-19.969h24v19.969q0 0.844-0.563 1.406t-1.406 0.563h-2.063v7.031q0 1.313-0.891 2.156t-2.109 0.844-2.109-0.844-0.891-2.156v-7.031h-3.938v7.031q0 1.313-0.891 2.156t-2.109 0.844-2.109-0.844-0.891-2.156v-7.031h-2.063q-0.844 0-1.406-0.563t-0.563-1.406z"></path>
</svg>
