<?xml version="1.0" encoding="utf-8"?>
<!-- Generated by IcoMoon.io -->
<!DOCTYPE svg PUBLIC "-//W3C//DTD SVG 1.1//EN" "http://www.w3.org/Graphics/SVG/1.1/DTD/svg11.dtd">
<svg version="1.1" xmlns="http://www.w3.org/2000/svg" xmlns:xlink="http://www.w3.org/1999/xlink" width="48" height="48" viewBox="0 0 48 48">
<path fill="#181818" d="M21 30l-4.5-6-3.469 4.5-2.531-3-3.469 4.5h13.969zM24 18v12q0 1.594-1.219 2.813t-2.813 1.219h-12q-1.594 0-2.766-1.219t-1.172-2.813v-12q0-1.594 1.172-2.813t2.766-1.219h12q1.594 0 2.813 1.219t1.219 2.813zM28.031 34.031v-4.031h15.938v4.031h-15.938zM43.969 13.969v4.031h-15.938v-4.031h15.938zM43.969 25.969h-15.938v-3.938h15.938v3.938z"></path>
</svg>
