<?xml version="1.0" encoding="utf-8"?>
<!-- Generated by IcoMoon.io -->
<!DOCTYPE svg PUBLIC "-//W3C//DTD SVG 1.1//EN" "http://www.w3.org/Graphics/SVG/1.1/DTD/svg11.dtd">
<svg version="1.1" xmlns="http://www.w3.org/2000/svg" xmlns:xlink="http://www.w3.org/1999/xlink" width="48" height="48" viewBox="0 0 48 48">
<path fill="#181818" d="M24 10.031q0.844 0 1.406-0.609t0.563-1.453-0.563-1.406-1.406-0.563-1.406 0.563-0.563 1.406 0.563 1.453 1.406 0.609zM25.969 28.031v-12h-3.938v12h3.938zM25.969 36v-4.031h-3.938v4.031h3.938zM37.969 6q1.594 0 2.813 1.219t1.219 2.813v27.938q0 1.594-1.219 2.813t-2.813 1.219h-27.938q-1.594 0-2.813-1.219t-1.219-2.813v-27.938q0-1.594 1.219-2.813t2.813-1.219h8.344q0.656-1.781 2.156-2.906t3.469-1.125 3.469 1.125 2.156 2.906h8.344z"></path>
</svg>
