<?xml version="1.0" encoding="utf-8"?>
<!-- Generated by IcoMoon.io -->
<!DOCTYPE svg PUBLIC "-//W3C//DTD SVG 1.1//EN" "http://www.w3.org/Graphics/SVG/1.1/DTD/svg11.dtd">
<svg version="1.1" xmlns="http://www.w3.org/2000/svg" xmlns:xlink="http://www.w3.org/1999/xlink" width="48" height="48" viewBox="0 0 48 48">
<path fill="#181818" d="M4.031 25.031q0-4.594 3.188-7.828t7.781-3.234h21q3.281 0 5.625 2.391t2.344 5.672-2.344 5.625-5.625 2.344h-16.969q-2.063 0-3.563-1.453t-1.5-3.516 1.5-3.563 3.563-1.5h15v4.031h-15.188q-0.844 0-0.844 0.984t0.844 0.984h17.156q1.594 0 2.813-1.172t1.219-2.766-1.219-2.813-2.813-1.219h-21q-2.906 0-4.969 2.063t-2.063 4.969 2.063 4.922 4.969 2.016h19.031v4.031h-19.031q-4.594 0-7.781-3.188t-3.188-7.781z"></path>
</svg>
