<?xml version="1.0" encoding="utf-8"?>
<!-- Generated by IcoMoon.io -->
<!DOCTYPE svg PUBLIC "-//W3C//DTD SVG 1.1//EN" "http://www.w3.org/Graphics/SVG/1.1/DTD/svg11.dtd">
<svg version="1.1" xmlns="http://www.w3.org/2000/svg" xmlns:xlink="http://www.w3.org/1999/xlink" width="48" height="48" viewBox="0 0 48 48">
<path fill="#181818" d="M23.625 21.844q2.063 0.563 3.422 1.125t2.859 1.547 2.297 2.484 0.797 3.563q0 2.906-1.922 4.734t-5.109 2.391v4.313h-6v-4.313q-3.094-0.656-5.109-2.625t-2.203-5.063h4.406q0.375 4.219 5.906 4.219 2.906 0 4.172-1.078t1.266-2.484q0-3.375-6-4.875-9.375-2.156-9.375-8.25 0-2.719 1.969-4.641t4.969-2.578v-4.313h6v4.406q3.094 0.75 4.734 2.813t1.734 4.781h-4.406q-0.188-4.219-5.063-4.219-2.438 0-3.891 1.031t-1.453 2.719q0 2.719 6 4.313z"></path>
</svg>
