<?xml version="1.0" encoding="utf-8"?>
<!-- Generated by IcoMoon.io -->
<!DOCTYPE svg PUBLIC "-//W3C//DTD SVG 1.1//EN" "http://www.w3.org/Graphics/SVG/1.1/DTD/svg11.dtd">
<svg version="1.1" xmlns="http://www.w3.org/2000/svg" xmlns:xlink="http://www.w3.org/1999/xlink" width="48" height="48" viewBox="0 0 48 48">
<path fill="#181818" d="M33 12h3v22.969q0 4.594-3.188 7.828t-7.781 3.234-7.828-3.234-3.234-7.828v-24.938q0-3.281 2.391-5.672t5.672-2.391 5.625 2.391 2.344 5.672v21q0 2.063-1.453 3.516t-3.516 1.453-3.563-1.453-1.5-3.516v-19.031h3v19.031q0 0.844 0.609 1.406t1.453 0.563 1.406-0.563 0.563-1.406v-21q0-2.063-1.453-3.563t-3.516-1.5-3.563 1.5-1.5 3.563v24.938q0 3.281 2.391 5.672t5.672 2.391 5.625-2.391 2.344-5.672v-22.969z"></path>
</svg>
