<?xml version="1.0" encoding="utf-8"?>
<!-- Generated by IcoMoon.io -->
<!DOCTYPE svg PUBLIC "-//W3C//DTD SVG 1.1//EN" "http://www.w3.org/Graphics/SVG/1.1/DTD/svg11.dtd">
<svg version="1.1" xmlns="http://www.w3.org/2000/svg" xmlns:xlink="http://www.w3.org/1999/xlink" width="48" height="48" viewBox="0 0 48 48">
<path fill="#181818" d="M37.5 15.469q2.531 3.844 2.531 8.531 0 6.563-4.734 11.297t-11.297 4.734v6l-7.969-8.063 7.969-7.969v6q4.969 0 8.484-3.516t3.516-8.484q0-2.813-1.406-5.625zM24 12q-4.969 0-8.484 3.516t-3.516 8.484q0 3.094 1.406 5.625l-2.906 2.906q-2.531-3.844-2.531-8.531 0-6.563 4.734-11.297t11.297-4.734v-6l7.969 8.063-7.969 7.969v-6z"></path>
</svg>
