<?xml version="1.0" encoding="utf-8"?>
<!-- Generated by IcoMoon.io -->
<!DOCTYPE svg PUBLIC "-//W3C//DTD SVG 1.1//EN" "http://www.w3.org/Graphics/SVG/1.1/DTD/svg11.dtd">
<svg version="1.1" xmlns="http://www.w3.org/2000/svg" xmlns:xlink="http://www.w3.org/1999/xlink" width="48" height="48" viewBox="0 0 48 48">
<path fill="#181818" d="M12 24q0-0.844 0.563-1.406t1.406-0.563 1.453 0.563 0.609 1.406-0.609 1.406-1.453 0.563-1.406-0.563-0.563-1.406zM36 24q0 0.844-0.563 1.406t-1.406 0.563-1.453-0.563-0.609-1.406 0.609-1.406 1.453-0.563 1.406 0.563 0.563 1.406zM22.031 6h1.969q7.5 0 12.75 5.25t5.25 12.75-5.25 12.75-12.75 5.25-12.75-5.25-5.25-12.75q0-9 7.219-14.344v-0.094l13.594 13.594-2.813 2.813-10.875-10.781q-3.094 3.844-3.094 8.813 0 5.813 4.078 9.891t9.891 4.078 9.891-4.078 4.078-9.891q0-5.25-3.469-9.188t-8.531-4.688v3.844h-3.938v-7.969zM22.031 34.031q0-0.844 0.563-1.453t1.406-0.609 1.406 0.609 0.563 1.453-0.563 1.406-1.406 0.563-1.406-0.563-0.563-1.406z"></path>
</svg>
