<?xml version="1.0" encoding="utf-8"?>
<!-- Generated by IcoMoon.io -->
<!DOCTYPE svg PUBLIC "-//W3C//DTD SVG 1.1//EN" "http://www.w3.org/Graphics/SVG/1.1/DTD/svg11.dtd">
<svg version="1.1" xmlns="http://www.w3.org/2000/svg" xmlns:xlink="http://www.w3.org/1999/xlink" width="48" height="48" viewBox="0 0 48 48">
<path fill="rgb(255, 138, 128)" d="M0 0h48v48h-48z"></path>
<path fill="rgb(255, 224, 178)" d="M13.612 35.55c2.4 2.737 6.075 4.538 10.237 4.65 4.012-0.112 7.613-1.763 10.012-4.35l0.075 0.038c-6.375-4.988-4.838-8.775-3.188-10.725 0.487-0.45 1.050-0.938 1.65-1.462l4.912-4.125c0.563-0.45 0.975-1.125 1.088-1.913 0.225-1.65-0.938-3.15-2.588-3.413-0.563-0.075-1.125 0-1.612 0.225-0.112-0.487-0.15-1.013-0.6-1.313-0.525-0.337-1.050-0.638-1.575-0.938-2.663-1.462-5.588-2.475-8.625-2.962-2.025-0.338-4.125-0.45-6.038 0.262-1.237 0.45-2.287 1.2-3.262 2.1-0.487 0.45-0.938 0.9-1.388 1.388l-0.675 0.712c-0.113 0.112-0.188 0.225-0.3 0.3-0.037 0.037-0.075 0-0.15 0.075 0.037 0.075 0.037 0.188 0.037 0.225-0.375-0.113-0.787-0.15-1.2-0.075-1.65 0.225-2.813 1.763-2.587 3.413 0.112 0.788 0.487 1.425 1.050 1.913l4.125 3.488c0.675 0.563 1.237 1.425 1.725 2.138 0.563 0.862 1.050 1.837 1.313 2.85 0.637 2.55-0.3 5.025-2.025 6.9-0.188 0.225-0.412 0.375-0.525 0.638-0.075 0.225-0.15 0.487-0.225 0.75-0.15 0.563-0.188 1.162-0.112 1.725 0.15 1.163 0.675 2.288 1.538 3.075 1.237 1.125 3 1.5 4.65 1.688 1.95 0.225 3.938 0.263 5.888 0.075 1.688-0.15 3.412-0.45 4.875-1.275 2.1-1.162 3.6-3.337 3.938-5.7zM28.65 17.25c0.338 0 0.6 0.263 0.6 0.6s-0.263 0.6-0.6 0.6c-0.338 0-0.6-0.263-0.6-0.6-0.037-0.337 0.263-0.6 0.6-0.6zM19.013 17.25c0.337 0 0.6 0.263 0.6 0.6s-0.262 0.6-0.6 0.6c-0.338 0-0.6-0.263-0.6-0.6-0.038-0.337 0.262-0.6 0.6-0.6z"></path>
<path fill="rgb(224, 247, 250)" d="M39.487 39.787c-0.337-0.487-0.487-0.712-0.487-0.712l-0.075-0.112c-0.225-0.338-0.45-0.638-0.712-0.9-1.2-1.313-2.738-2.025-4.275-2.137 0 0 0.038 0 0.038 0.037l-0.075-0.037c-2.4 2.587-6 4.237-10.013 4.35-4.2-0.112-7.912-1.912-10.312-4.725-0.037 0.075-0.075 0.15-0.075 0.188-1.163 0.337-2.25 1.012-3.15 2.025l-0.075 0.075s-0.188 0.225-0.563 0.637c-0.337 0.413-0.825 0.975-1.387 1.688-1.163 1.463-2.7 3.563-4.387 6.225-0.337 0.525-0.637 1.050-0.975 1.612h41.1c-1.275-2.662-2.438-4.8-3.337-6.337-0.563-0.825-0.975-1.425-1.237-1.875z"></path>
<path fill="rgb(68, 68, 68)" d="M29.362 17.813c0 0.414-0.336 0.75-0.75 0.75s-0.75-0.336-0.75-0.75c0-0.414 0.336-0.75 0.75-0.75s0.75 0.336 0.75 0.75z"></path>
<path fill="rgb(68, 68, 68)" d="M19.763 17.85c0 0.414-0.336 0.75-0.75 0.75s-0.75-0.336-0.75-0.75c0-0.414 0.336-0.75 0.75-0.75s0.75 0.336 0.75 0.75z"></path>
<path fill="rgb(68, 68, 68)" d="M18.038 10.275c1.688 2.213 5.813 4.538 15.9 3.15-0.825-2.588-2.55-4.725-4.725-6.15 6.45 0.563 5.287-3.525 5.287-3.525-0.525 2.063-4.162 1.65-4.162 1.65h-7.050c-0.637-0.037-1.275 0-1.95 0.112-4.8 0.675-8.475 4.162-9.637 8.587 3.975-0.712 5.738-2.85 6.337-3.825z"></path>
</svg>
