<?xml version="1.0" encoding="utf-8"?>
<!-- Generated by IcoMoon.io -->
<!DOCTYPE svg PUBLIC "-//W3C//DTD SVG 1.1//EN" "http://www.w3.org/Graphics/SVG/1.1/DTD/svg11.dtd">
<svg version="1.1" xmlns="http://www.w3.org/2000/svg" xmlns:xlink="http://www.w3.org/1999/xlink" width="48" height="48" viewBox="0 0 48 48">
<path fill="#181818" d="M28.594 25.406q1.406-1.406 1.406-3.375 0-2.438-1.781-4.219t-4.219-1.781-4.219 1.781-1.781 4.219h3q0-1.219 0.844-2.109t2.156-0.891 2.156 0.891 0.844 2.109-0.844 2.063l-1.875 1.875q-1.875 1.875-1.875 4.031h3.188q0-1.5 1.688-3.188zM25.875 35.906v-3.844h-3.75v3.844h3.75zM31.313 7.969q1.125 0 1.922 0.797t0.797 1.922v30.656q0 1.125-0.797 1.875t-1.922 0.75h-14.625q-1.125 0-1.922-0.75t-0.797-1.875v-30.656q0-1.125 0.797-1.922t1.922-0.797h3.281v-3.938h8.063v3.938h3.281z"></path>
</svg>
