<?xml version="1.0" encoding="utf-8"?>
<!-- Generated by IcoMoon.io -->
<!DOCTYPE svg PUBLIC "-//W3C//DTD SVG 1.1//EN" "http://www.w3.org/Graphics/SVG/1.1/DTD/svg11.dtd">
<svg version="1.1" xmlns="http://www.w3.org/2000/svg" xmlns:xlink="http://www.w3.org/1999/xlink" width="48" height="48" viewBox="0 0 48 48">
<path fill="#181818" d="M25.781 32.625l-3.75-3.844v7.594zM22.031 11.625v7.594l3.75-3.844zM31.406 15.375l-8.625 8.625 8.625 8.625-11.438 11.344h-1.969v-15.188l-9.188 9.188-2.813-2.813 11.156-11.156-11.156-11.156 2.813-2.813 9.188 9.188v-15.188h1.969zM39.094 13.406q2.906 4.688 2.906 10.406t-3.094 10.594l-2.344-2.344q1.969-3.938 1.969-8.063t-1.969-8.063zM28.5 24l4.594-4.594q0.938 2.344 0.938 4.594 0 2.344-0.938 4.688z"></path>
</svg>
