<?xml version="1.0" encoding="utf-8"?>
<!-- Generated by IcoMoon.io -->
<!DOCTYPE svg PUBLIC "-//W3C//DTD SVG 1.1//EN" "http://www.w3.org/Graphics/SVG/1.1/DTD/svg11.dtd">
<svg version="1.1" xmlns="http://www.w3.org/2000/svg" xmlns:xlink="http://www.w3.org/1999/xlink" width="48" height="48" viewBox="0 0 48 48">
<path fill="#181818" d="M25.969 34.031q-0.844 0-1.406-0.609t-0.563-1.453 0.563-1.406 1.406-0.563 1.453 0.563 0.609 1.406-0.609 1.453-1.453 0.609zM25.969 25.969q-0.844 0-1.406-0.563t-0.563-1.406 0.563-1.406 1.406-0.563 1.453 0.563 0.609 1.406-0.609 1.406-1.453 0.563zM25.969 18q-0.844 0-1.406-0.563t-0.563-1.406 0.563-1.453 1.406-0.609 1.453 0.609 0.609 1.453-0.609 1.406-1.453 0.563zM34.031 25.031q-1.031 0-1.031-1.031t1.031-1.031q0.938 0 0.938 1.031t-0.938 1.031zM34.031 16.969q-1.031 0-1.031-0.938 0-1.031 1.031-1.031 0.938 0 0.938 1.031 0 0.938-0.938 0.938zM6 6h36v4.031h-36v-4.031zM34.031 33q-1.031 0-1.031-1.031 0-0.938 1.031-0.938 0.938 0 0.938 0.938 0 1.031-0.938 1.031zM18 34.031q-0.844 0-1.406-0.609t-0.563-1.453 0.563-1.406 1.406-0.563 1.406 0.563 0.563 1.406-0.563 1.453-1.406 0.609zM10.031 27q-1.219 0-2.109-0.844t-0.891-2.156 0.891-2.156 2.109-0.844 2.109 0.844 0.891 2.156-0.891 2.156-2.109 0.844zM10.031 19.031q-1.219 0-2.109-0.891t-0.891-2.109 0.891-2.109 2.109-0.891 2.109 0.891 0.891 2.109-0.891 2.109-2.109 0.891zM6 42v-4.031h36v4.031h-36zM18 18q-0.844 0-1.406-0.563t-0.563-1.406 0.563-1.453 1.406-0.609 1.406 0.609 0.563 1.453-0.563 1.406-1.406 0.563zM18 25.969q-0.844 0-1.406-0.563t-0.563-1.406 0.563-1.406 1.406-0.563 1.406 0.563 0.563 1.406-0.563 1.406-1.406 0.563zM10.031 34.969q-1.219 0-2.109-0.891t-0.891-2.109 0.891-2.109 2.109-0.891 2.109 0.891 0.891 2.109-0.891 2.109-2.109 0.891z"></path>
</svg>
