<?xml version="1.0" encoding="utf-8"?>
<!-- Generated by IcoMoon.io -->
<!DOCTYPE svg PUBLIC "-//W3C//DTD SVG 1.1//EN" "http://www.w3.org/Graphics/SVG/1.1/DTD/svg11.dtd">
<svg version="1.1" xmlns="http://www.w3.org/2000/svg" xmlns:xlink="http://www.w3.org/1999/xlink" width="48" height="48" viewBox="0 0 48 48">
<path fill="#181818" d="M6 27q1.031 0 1.031 1.031 0 0.938-1.031 0.938t-1.031-0.938q0-1.031 1.031-1.031zM12 34.031q0.844 0 1.406 0.563t0.563 1.406-0.563 1.406-1.406 0.563-1.406-0.563-0.563-1.406 0.563-1.406 1.406-0.563zM19.969 40.969q1.031 0 1.031 1.031t-1.031 1.031q-0.938 0-0.938-1.031t0.938-1.031zM6 19.031q1.031 0 1.031 0.938 0 1.031-1.031 1.031t-1.031-1.031q0-0.938 1.031-0.938zM12 25.969q0.844 0 1.406 0.609t0.563 1.453-0.563 1.406-1.406 0.563-1.406-0.563-0.563-1.406 0.563-1.453 1.406-0.609zM42 27q1.031 0 1.031 1.031 0 0.938-1.031 0.938t-1.031-0.938q0-1.031 1.031-1.031zM19.969 34.031q0.844 0 1.453 0.563t0.609 1.406-0.609 1.406-1.453 0.563-1.406-0.563-0.563-1.406 0.563-1.406 1.406-0.563zM4.969 10.5l2.531-2.531 32.531 32.531-2.625 2.531-7.5-7.594q0.094 0.188 0.094 0.563 0 0.844-0.563 1.406t-1.406 0.563-1.453-0.563-0.609-1.406 0.609-1.406 1.453-0.563q0.375 0 0.563 0.094l-5.625-5.625q-0.188 1.031-1.031 1.781t-1.969 0.75q-1.219 0-2.109-0.891t-0.891-2.109q0-1.125 0.75-1.969t1.781-1.031l-5.625-5.625q0.094 0.188 0.094 0.563 0 0.844-0.563 1.453t-1.406 0.609-1.406-0.609-0.563-1.453 0.563-1.406 1.406-0.563l0.563 0.094zM28.031 40.969q0.938 0 0.938 1.031t-0.938 1.031q-1.031 0-1.031-1.031t1.031-1.031zM36 13.969q-0.844 0-1.406-0.563t-0.563-1.406 0.563-1.406 1.406-0.563 1.406 0.563 0.563 1.406-0.563 1.406-1.406 0.563zM36 22.031q-0.844 0-1.406-0.609t-0.563-1.453 0.563-1.406 1.406-0.563 1.406 0.563 0.563 1.406-0.563 1.453-1.406 0.609zM36 30q-0.844 0-1.406-0.563t-0.563-1.406 0.563-1.453 1.406-0.609 1.406 0.609 0.563 1.453-0.563 1.406-1.406 0.563zM19.969 13.969q-0.844 0-1.406-0.563t-0.563-1.406 0.563-1.406 1.406-0.563 1.453 0.563 0.609 1.406-0.609 1.406-1.453 0.563zM42 21q-1.031 0-1.031-1.031 0-0.938 1.031-0.938t1.031 0.938q0 1.031-1.031 1.031zM19.969 7.031q-0.938 0-0.938-1.031t0.938-1.031q1.031 0 1.031 1.031t-1.031 1.031zM28.031 7.031q-1.031 0-1.031-1.031t1.031-1.031q0.938 0 0.938 1.031t-0.938 1.031zM27.563 22.969q-0.938-0.094-1.688-0.844t-0.844-1.688v-0.469q0-1.219 0.891-2.109t2.109-0.891 2.109 0.891 0.891 2.109-0.891 2.109-2.109 0.891h-0.469zM28.031 13.969q-0.844 0-1.453-0.563t-0.609-1.406 0.609-1.406 1.453-0.563 1.406 0.563 0.563 1.406-0.563 1.406-1.406 0.563z"></path>
</svg>
