<?xml version="1.0" encoding="utf-8"?>
<!-- Generated by IcoMoon.io -->
<!DOCTYPE svg PUBLIC "-//W3C//DTD SVG 1.1//EN" "http://www.w3.org/Graphics/SVG/1.1/DTD/svg11.dtd">
<svg version="1.1" xmlns="http://www.w3.org/2000/svg" xmlns:xlink="http://www.w3.org/1999/xlink" width="48" height="48" viewBox="0 0 48 48">
<path fill="#181818" d="M28.031 16.969q1.219 0 2.109 0.891t0.891 2.109-0.891 2.109-2.109 0.891-2.109-0.891-0.891-2.109 0.891-2.109 2.109-0.891zM28.031 25.031q1.219 0 2.109 0.891t0.891 2.109-0.891 2.109-2.109 0.891-2.109-0.891-0.891-2.109 0.891-2.109 2.109-0.891zM19.969 34.031q0.844 0 1.453 0.563t0.609 1.406-0.609 1.406-1.453 0.563-1.406-0.563-0.563-1.406 0.563-1.406 1.406-0.563zM19.969 16.969q1.219 0 2.109 0.891t0.891 2.109-0.891 2.109-2.109 0.891-2.109-0.891-0.891-2.109 0.891-2.109 2.109-0.891zM28.031 40.969q0.938 0 0.938 1.031t-0.938 1.031q-1.031 0-1.031-1.031t1.031-1.031zM28.031 34.031q0.844 0 1.406 0.563t0.563 1.406-0.563 1.406-1.406 0.563-1.453-0.563-0.609-1.406 0.609-1.406 1.453-0.563zM42 27q1.031 0 1.031 1.031 0 0.938-1.031 0.938t-1.031-0.938q0-1.031 1.031-1.031zM36 10.031q0.844 0 1.406 0.563t0.563 1.406-0.563 1.406-1.406 0.563-1.406-0.563-0.563-1.406 0.563-1.406 1.406-0.563zM36 18q0.844 0 1.406 0.563t0.563 1.406-0.563 1.453-1.406 0.609-1.406-0.609-0.563-1.453 0.563-1.406 1.406-0.563zM36 34.031q0.844 0 1.406 0.563t0.563 1.406-0.563 1.406-1.406 0.563-1.406-0.563-0.563-1.406 0.563-1.406 1.406-0.563zM36 25.969q0.844 0 1.406 0.609t0.563 1.453-0.563 1.406-1.406 0.563-1.406-0.563-0.563-1.406 0.563-1.453 1.406-0.609zM19.969 25.031q1.219 0 2.109 0.891t0.891 2.109-0.891 2.109-2.109 0.891-2.109-0.891-0.891-2.109 0.891-2.109 2.109-0.891zM19.969 13.969q-0.844 0-1.406-0.563t-0.563-1.406 0.563-1.406 1.406-0.563 1.453 0.563 0.609 1.406-0.609 1.406-1.453 0.563zM19.969 7.031q-0.938 0-0.938-1.031t0.938-1.031q1.031 0 1.031 1.031t-1.031 1.031zM19.969 40.969q1.031 0 1.031 1.031t-1.031 1.031q-0.938 0-0.938-1.031t0.938-1.031zM6 27q1.031 0 1.031 1.031 0 0.938-1.031 0.938t-1.031-0.938q0-1.031 1.031-1.031zM28.031 7.031q-1.031 0-1.031-1.031t1.031-1.031q0.938 0 0.938 1.031t-0.938 1.031zM28.031 13.969q-0.844 0-1.453-0.563t-0.609-1.406 0.609-1.406 1.453-0.563 1.406 0.563 0.563 1.406-0.563 1.406-1.406 0.563zM42 21q-1.031 0-1.031-1.031 0-0.938 1.031-0.938t1.031 0.938q0 1.031-1.031 1.031zM12 10.031q0.844 0 1.406 0.563t0.563 1.406-0.563 1.406-1.406 0.563-1.406-0.563-0.563-1.406 0.563-1.406 1.406-0.563zM6 19.031q1.031 0 1.031 0.938 0 1.031-1.031 1.031t-1.031-1.031q0-0.938 1.031-0.938zM12 18q0.844 0 1.406 0.563t0.563 1.406-0.563 1.453-1.406 0.609-1.406-0.609-0.563-1.453 0.563-1.406 1.406-0.563zM12 34.031q0.844 0 1.406 0.563t0.563 1.406-0.563 1.406-1.406 0.563-1.406-0.563-0.563-1.406 0.563-1.406 1.406-0.563zM12 25.969q0.844 0 1.406 0.609t0.563 1.453-0.563 1.406-1.406 0.563-1.406-0.563-0.563-1.406 0.563-1.453 1.406-0.609z"></path>
</svg>
