<?xml version="1.0" encoding="utf-8"?>
<!-- Generated by IcoMoon.io -->
<!DOCTYPE svg PUBLIC "-//W3C//DTD SVG 1.1//EN" "http://www.w3.org/Graphics/SVG/1.1/DTD/svg11.dtd">
<svg version="1.1" xmlns="http://www.w3.org/2000/svg" xmlns:xlink="http://www.w3.org/1999/xlink" width="48" height="48" viewBox="0 0 48 48">
<path fill="#181818" d="M28.031 25.969q0.844 0 1.406 0.609t0.563 1.453-0.563 1.406-1.406 0.563-1.453-0.563-0.609-1.406 0.609-1.453 1.453-0.609zM28.031 33q0.938 0 0.938 1.031 0 0.938-0.938 0.938-1.031 0-1.031-0.938 0-1.031 1.031-1.031zM24 40.031q6.563 0 11.297-4.734t4.734-11.297-4.734-11.297-11.297-4.734-11.297 4.734-4.734 11.297 4.734 11.297 11.297 4.734zM24 4.031q8.25 0 14.109 5.859t5.859 14.109-5.859 14.109-14.109 5.859-14.109-5.859-5.859-14.109 5.859-14.109 14.109-5.859zM34.031 19.031q0.938 0 0.938 0.938 0 1.031-0.938 1.031-1.031 0-1.031-1.031 0-0.938 1.031-0.938zM34.031 27q0.938 0 0.938 1.031 0 0.938-0.938 0.938-1.031 0-1.031-0.938 0-1.031 1.031-1.031zM28.031 15q-1.031 0-1.031-1.031 0-0.938 1.031-0.938 0.938 0 0.938 0.938 0 1.031-0.938 1.031zM28.031 18q0.844 0 1.406 0.563t0.563 1.406-0.563 1.453-1.406 0.609-1.453-0.609-0.609-1.453 0.609-1.406 1.453-0.563zM19.969 15q-0.938 0-0.938-1.031 0-0.938 0.938-0.938 1.031 0 1.031 0.938 0 1.031-1.031 1.031zM13.969 27q1.031 0 1.031 1.031 0 0.938-1.031 0.938-0.938 0-0.938-0.938 0-1.031 0.938-1.031zM19.969 33q1.031 0 1.031 1.031 0 0.938-1.031 0.938-0.938 0-0.938-0.938 0-1.031 0.938-1.031zM13.969 19.031q1.031 0 1.031 0.938 0 1.031-1.031 1.031-0.938 0-0.938-1.031 0-0.938 0.938-0.938zM19.969 25.969q0.844 0 1.453 0.609t0.609 1.453-0.609 1.406-1.453 0.563-1.406-0.563-0.563-1.406 0.563-1.453 1.406-0.609zM19.969 18q0.844 0 1.453 0.563t0.609 1.406-0.609 1.453-1.453 0.609-1.406-0.609-0.563-1.453 0.563-1.406 1.406-0.563z"></path>
</svg>
