<?xml version="1.0" encoding="utf-8"?>
<!-- Generated by IcoMoon.io -->
<!DOCTYPE svg PUBLIC "-//W3C//DTD SVG 1.1//EN" "http://www.w3.org/Graphics/SVG/1.1/DTD/svg11.dtd">
<svg version="1.1" xmlns="http://www.w3.org/2000/svg" xmlns:xlink="http://www.w3.org/1999/xlink" width="48" height="48" viewBox="0 0 48 48">
<path fill="#181818" d="M10.031 30v4.031h-4.031v-4.031h4.031zM6 42v-4.031h36v4.031h-36zM10.031 22.031v3.938h-4.031v-3.938h4.031zM37.969 18v-4.031h4.031v4.031h-4.031zM37.969 6h4.031v4.031h-4.031v-4.031zM10.031 13.969v4.031h-4.031v-4.031h4.031zM37.969 34.031v-4.031h4.031v4.031h-4.031zM37.969 25.969v-3.938h4.031v3.938h-4.031zM34.031 6v4.031h-4.031v-4.031h4.031zM25.969 6v4.031h-3.938v-4.031h3.938zM34.031 22.031v3.938h-4.031v-3.938h4.031zM25.969 13.969v4.031h-3.938v-4.031h3.938zM10.031 6v4.031h-4.031v-4.031h4.031zM25.969 22.031v3.938h-3.938v-3.938h3.938zM18 6v4.031h-4.031v-4.031h4.031zM25.969 30v4.031h-3.938v-4.031h3.938zM18 22.031v3.938h-4.031v-3.938h4.031z"></path>
</svg>
