<?xml version="1.0" encoding="utf-8"?>
<!-- Generated by IcoMoon.io -->
<!DOCTYPE svg PUBLIC "-//W3C//DTD SVG 1.1//EN" "http://www.w3.org/Graphics/SVG/1.1/DTD/svg11.dtd">
<svg version="1.1" xmlns="http://www.w3.org/2000/svg" xmlns:xlink="http://www.w3.org/1999/xlink" width="48" height="48" viewBox="0 0 48 48">
<path fill="#181818" d="M37.969 42v-4.031h4.031v4.031h-4.031zM30 42v-4.031h4.031v4.031h-4.031zM22.031 34.031v-4.031h3.938v4.031h-3.938zM37.969 18v-4.031h4.031v4.031h-4.031zM37.969 6h4.031v4.031h-4.031v-4.031zM6 25.969v-3.938h36v3.938h-36zM22.031 42v-4.031h3.938v4.031h-3.938zM37.969 34.031v-4.031h4.031v4.031h-4.031zM25.969 6v4.031h-3.938v-4.031h3.938zM25.969 13.969v4.031h-3.938v-4.031h3.938zM34.031 6v4.031h-4.031v-4.031h4.031zM18 6v4.031h-4.031v-4.031h4.031zM10.031 6v4.031h-4.031v-4.031h4.031zM13.969 42v-4.031h4.031v4.031h-4.031zM6 34.031v-4.031h4.031v4.031h-4.031zM10.031 13.969v4.031h-4.031v-4.031h4.031zM6 42v-4.031h4.031v4.031h-4.031z"></path>
</svg>
