<?xml version="1.0" encoding="utf-8"?>
<!-- Generated by IcoMoon.io -->
<!DOCTYPE svg PUBLIC "-//W3C//DTD SVG 1.1//EN" "http://www.w3.org/Graphics/SVG/1.1/DTD/svg11.dtd">
<svg version="1.1" xmlns="http://www.w3.org/2000/svg" xmlns:xlink="http://www.w3.org/1999/xlink" width="48" height="48" viewBox="0 0 48 48">
<path fill="#181818" d="M28.031 24v-4.031h-8.063v4.031h8.063zM28.031 31.969v-3.938h-8.063v3.938h8.063zM40.031 16.031v3.938h-4.219q0.188 1.313 0.188 2.063v1.969h4.031v4.031h-4.031v1.969q0 0.656-0.188 1.969h4.219v4.031h-5.625q-1.594 2.719-4.359 4.359t-6.047 1.641-6.047-1.641-4.359-4.359h-5.625v-4.031h4.219q-0.188-1.313-0.188-1.969v-1.969h-4.031v-4.031h4.031v-1.969q0-0.75 0.188-2.063h-4.219v-3.938h5.625q1.406-2.344 3.656-3.938l-3.281-3.281 2.813-2.813 4.406 4.313q1.406-0.281 2.813-0.281t2.813 0.281l4.406-4.313 2.813 2.813-3.281 3.281q2.25 1.594 3.656 3.938h5.625z"></path>
</svg>
