<?xml version="1.0" encoding="utf-8"?>
<!-- Generated by IcoMoon.io -->
<!DOCTYPE svg PUBLIC "-//W3C//DTD SVG 1.1//EN" "http://www.w3.org/Graphics/SVG/1.1/DTD/svg11.dtd">
<svg version="1.1" xmlns="http://www.w3.org/2000/svg" xmlns:xlink="http://www.w3.org/1999/xlink" width="48" height="48" viewBox="0 0 48 48">
<path fill="#181818" d="M28.031 13.969v-3.938h-8.063v3.938h8.063zM40.031 13.969q1.594 0 2.766 1.219t1.172 2.813v6q0 1.594-1.172 2.813t-2.766 1.219h-12v-4.031h-8.063v4.031h-12q-1.688 0-2.813-1.172t-1.125-2.859v-6q0-1.594 1.172-2.813t2.766-1.219h7.969v-3.938l4.031-4.031h7.969l4.031 4.031v3.938h8.063zM19.969 31.969h8.063v-1.969h13.969v7.969q0 1.688-1.172 2.859t-2.859 1.172h-27.938q-1.688 0-2.859-1.172t-1.172-2.859v-7.969h13.969v1.969z"></path>
</svg>
