<?xml version="1.0" encoding="utf-8"?>
<!-- Generated by IcoMoon.io -->
<!DOCTYPE svg PUBLIC "-//W3C//DTD SVG 1.1//EN" "http://www.w3.org/Graphics/SVG/1.1/DTD/svg11.dtd">
<svg version="1.1" xmlns="http://www.w3.org/2000/svg" xmlns:xlink="http://www.w3.org/1999/xlink" width="48" height="48" viewBox="0 0 48 48">
<path fill="#181818" d="M36 30v4.031h-4.031v-4.031h4.031zM36 22.031v3.938h-4.031v-3.938h4.031zM40.031 37.969v-19.969h-16.031v4.031h4.031v3.938h-4.031v4.031h4.031v4.031h-4.031v3.938h16.031zM19.969 13.969v-3.938h-3.938v3.938h3.938zM19.969 22.031v-4.031h-3.938v4.031h3.938zM19.969 30v-4.031h-3.938v4.031h3.938zM19.969 37.969v-3.938h-3.938v3.938h3.938zM12 13.969v-3.938h-4.031v3.938h4.031zM12 22.031v-4.031h-4.031v4.031h4.031zM12 30v-4.031h-4.031v4.031h4.031zM12 37.969v-3.938h-4.031v3.938h4.031zM24 13.969h19.969v28.031h-39.938v-36h19.969v7.969z"></path>
</svg>
