<?xml version="1.0" encoding="utf-8"?>
<!-- Generated by IcoMoon.io -->
<!DOCTYPE svg PUBLIC "-//W3C//DTD SVG 1.1//EN" "http://www.w3.org/Graphics/SVG/1.1/DTD/svg11.dtd">
<svg version="1.1" xmlns="http://www.w3.org/2000/svg" xmlns:xlink="http://www.w3.org/1999/xlink" width="48" height="48" viewBox="0 0 48 48">
<path fill="#181818" d="M12 24h6l-7.969 7.969-8.063-7.969h6q0-6.563 4.734-11.297t11.297-4.734q4.688 0 8.531 2.531l-2.906 2.906q-2.531-1.406-5.625-1.406-4.969 0-8.484 3.516t-3.516 8.484zM37.969 16.031l8.063 7.969h-6q0 6.563-4.734 11.297t-11.297 4.734q-4.688 0-8.531-2.531l2.906-2.906q2.531 1.406 5.625 1.406 4.969 0 8.484-3.516t3.516-8.484h-6z"></path>
</svg>
