<?xml version="1.0" encoding="utf-8"?>
<!-- Generated by IcoMoon.io -->
<!DOCTYPE svg PUBLIC "-//W3C//DTD SVG 1.1//EN" "http://www.w3.org/Graphics/SVG/1.1/DTD/svg11.dtd">
<svg version="1.1" xmlns="http://www.w3.org/2000/svg" xmlns:xlink="http://www.w3.org/1999/xlink" width="48" height="48" viewBox="0 0 48 48">
<path fill="#181818" d="M36 18q2.438 0 4.219 1.781t1.781 4.219v3.094q0 1.594-1.172 2.766t-2.766 1.172-2.719-1.125l-4.313-4.313-4.313 4.313q-1.125 1.125-2.766 1.125t-2.766-1.125l-4.219-4.313-4.313 4.313q-1.125 1.125-2.719 1.125t-2.766-1.172-1.172-2.766v-3.094q0-2.438 1.781-4.219t4.219-1.781h10.031v-4.031h3.938v4.031h10.031zM33.188 31.969q2.063 2.063 4.875 2.063 2.063 0 3.938-1.219v9.188q0 0.844-0.563 1.406t-1.406 0.563h-32.063q-0.844 0-1.406-0.563t-0.563-1.406v-9.188q1.781 1.219 3.938 1.219 2.813 0 4.875-2.063l2.156-2.156 2.156 2.156q1.969 1.969 4.875 1.969t4.875-1.969l2.156-2.156zM24 12q-1.594 0-2.813-1.219t-1.219-2.813q0-1.031 0.656-2.063l3.375-5.906 3.375 5.906q0.656 1.031 0.656 2.063 0 1.594-1.172 2.813t-2.859 1.219z"></path>
</svg>
