<?xml version="1.0" encoding="utf-8"?>
<!-- Generated by IcoMoon.io -->
<!DOCTYPE svg PUBLIC "-//W3C//DTD SVG 1.1//EN" "http://www.w3.org/Graphics/SVG/1.1/DTD/svg11.dtd">
<svg version="1.1" xmlns="http://www.w3.org/2000/svg" xmlns:xlink="http://www.w3.org/1999/xlink" width="48" height="48" viewBox="0 0 48 48">
<path fill="#181818" d="M24 18q-4.875 0-9.188 1.406v6.188q0 1.406-1.125 1.875-3 1.406-5.344 3.656-0.563 0.563-1.406 0.563t-1.406-0.563l-4.969-4.969q-0.563-0.563-0.563-1.406t0.563-1.406q9.844-9.375 23.438-9.375t23.438 9.375q0.563 0.563 0.563 1.406t-0.563 1.406l-4.969 4.969q-0.563 0.563-1.406 0.563t-1.406-0.563q-2.344-2.25-5.344-3.656-1.125-0.469-1.125-1.781v-6.188q-4.688-1.5-9.188-1.5z"></path>
</svg>
