<?xml version="1.0" encoding="utf-8"?>
<!-- Generated by IcoMoon.io -->
<!DOCTYPE svg PUBLIC "-//W3C//DTD SVG 1.1//EN" "http://www.w3.org/Graphics/SVG/1.1/DTD/svg11.dtd">
<svg version="1.1" xmlns="http://www.w3.org/2000/svg" xmlns:xlink="http://www.w3.org/1999/xlink" width="48" height="48" viewBox="0 0 48 48">
<path fill="#181818" d="M24 34.031l-2.531-5.531-5.438-2.531 5.438-2.438 2.531-5.531 2.531 5.531 5.438 2.438-5.438 2.531zM24 36q4.125 0 7.078-2.953t2.953-7.078-2.953-7.031-7.078-2.906-7.078 2.906-2.953 7.031 2.953 7.078 7.078 2.953zM18 6h12l3.656 4.031h6.375q1.594 0 2.766 1.172t1.172 2.766v24q0 1.594-1.172 2.813t-2.766 1.219h-32.063q-1.594 0-2.766-1.219t-1.172-2.813v-24q0-1.594 1.172-2.766t2.766-1.172h6.375z"></path>
</svg>
