<?xml version="1.0" encoding="utf-8"?>
<!-- Generated by IcoMoon.io -->
<!DOCTYPE svg PUBLIC "-//W3C//DTD SVG 1.1//EN" "http://www.w3.org/Graphics/SVG/1.1/DTD/svg11.dtd">
<svg version="1.1" xmlns="http://www.w3.org/2000/svg" xmlns:xlink="http://www.w3.org/1999/xlink" width="48" height="48" viewBox="0 0 48 48">
<path fill="#181818" d="M40.031 18v-4.031h-4.031v4.031h4.031zM40.031 36v-4.031h-4.031v4.031h4.031zM31.969 18v-4.031h-3.938v4.031h3.938zM31.969 36v-4.031h-3.938v4.031h3.938zM24 18v-4.031h-4.031v4.031h4.031zM24 36v-4.031h-4.031v4.031h4.031zM28.031 10.031h15.938v30h-15.938q0 1.594-1.219 2.766t-2.813 1.172h-16.031q-1.594 0-2.766-1.172t-1.172-2.766v-30q0-1.594 1.172-2.813t2.766-1.219h2.063v-1.969q0-0.844 0.563-1.453t1.406-0.609h7.969q0.844 0 1.453 0.609t0.609 1.453v1.969h1.969q1.594 0 2.813 1.219t1.219 2.813z"></path>
</svg>
