<?xml version="1.0" encoding="utf-8"?>
<!-- Generated by IcoMoon.io -->
<!DOCTYPE svg PUBLIC "-//W3C//DTD SVG 1.1//EN" "http://www.w3.org/Graphics/SVG/1.1/DTD/svg11.dtd">
<svg version="1.1" xmlns="http://www.w3.org/2000/svg" xmlns:xlink="http://www.w3.org/1999/xlink" width="48" height="48" viewBox="0 0 48 48">
<path fill="#181818" d="M13.969 4.031v21q0-2.25 3.422-3.656t6.609-1.406 6.609 1.406 3.422 3.656v-21h-20.063zM34.031 0q1.594 0 2.766 1.219t1.172 2.813v27.938q0 1.594-1.172 2.813t-2.766 1.219h-14.063l6 6-6 6v-4.031h-9.938v-3.938h9.938v-4.031h-6q-1.594 0-2.766-1.219t-1.172-2.813v-27.938q0-1.594 1.172-2.813t2.766-1.219h20.063zM24 16.031q-1.594 0-2.766-1.219t-1.172-2.813 1.172-2.813 2.766-1.219 2.813 1.219 1.219 2.813-1.219 2.813-2.813 1.219zM28.031 40.031h9.938v3.938h-9.938v-3.938z"></path>
</svg>
