<?xml version="1.0" encoding="utf-8"?>
<!-- Generated by IcoMoon.io -->
<!DOCTYPE svg PUBLIC "-//W3C//DTD SVG 1.1//EN" "http://www.w3.org/Graphics/SVG/1.1/DTD/svg11.dtd">
<svg version="1.1" xmlns="http://www.w3.org/2000/svg" xmlns:xlink="http://www.w3.org/1999/xlink" width="48" height="48" viewBox="0 0 48 48">
<path fill="#181818" d="M19.688 43.5q0.375-0.656 4.031-7.031t5.625-9.656l7.313 12.656q-5.531 4.5-12.656 4.5-1.969 0-4.313-0.469zM4.875 30h19.406l-7.406 12.656q-4.313-1.594-7.453-4.922t-4.547-7.734zM9.281 10.5l10.125 17.531h-15q-0.375-1.781-0.375-4.031 0-7.781 5.25-13.5zM43.594 19.969q0.375 1.781 0.375 4.031 0 7.781-5.25 13.5l-9.563-16.5-0.563-1.031h15zM43.125 18h-19.406l7.406-12.656q4.313 1.594 7.453 4.922t4.547 7.734zM18.844 21l-0.188 0.188-7.313-12.656q5.531-4.5 12.656-4.5 1.969 0 4.313 0.469z"></path>
</svg>
