<?xml version="1.0" encoding="utf-8"?>
<!-- Generated by IcoMoon.io -->
<!DOCTYPE svg PUBLIC "-//W3C//DTD SVG 1.1//EN" "http://www.w3.org/Graphics/SVG/1.1/DTD/svg11.dtd">
<svg version="1.1" xmlns="http://www.w3.org/2000/svg" xmlns:xlink="http://www.w3.org/1999/xlink" width="48" height="48" viewBox="0 0 48 48">
<path fill="#181818" d="M40.031 28.031v-12h-6v3.938h-4.031v-3.938h-12v3.938h-4.031v-3.938h-6v12h32.063zM40.031 37.969v-3.938h-32.063v3.938h32.063zM18 7.969v4.031h12v-4.031h-12zM40.031 12q1.688 0 2.813 1.172t1.125 2.859v21.938q0 1.688-1.125 2.859t-2.813 1.172h-32.063q-1.688 0-2.813-1.172t-1.125-2.859v-21.938q0-1.688 1.125-2.859t2.813-1.172h6v-4.031q0-1.688 1.172-2.813t2.859-1.125h12q1.688 0 2.859 1.125t1.172 2.813v4.031h6z"></path>
</svg>
