<?xml version="1.0" encoding="utf-8"?>
<!-- Generated by IcoMoon.io -->
<!DOCTYPE svg PUBLIC "-//W3C//DTD SVG 1.1//EN" "http://www.w3.org/Graphics/SVG/1.1/DTD/svg11.dtd">
<svg version="1.1" xmlns="http://www.w3.org/2000/svg" xmlns:xlink="http://www.w3.org/1999/xlink" width="48" height="48" viewBox="0 0 48 48">
<path fill="#181818" d="M1.969 19.969q9.094 0 15.563 6.469t6.469 15.563h-4.031q0-7.5-5.297-12.75t-12.703-5.25v-4.031zM1.969 28.031q5.813 0 9.938 4.078t4.125 9.891h-4.031q0-4.125-2.953-7.078t-7.078-2.953v-3.938zM1.969 36q2.438 0 4.219 1.781t1.781 4.219h-6v-6zM42 6q1.594 0 2.813 1.219t1.219 2.813v27.938q0 1.594-1.219 2.813t-2.813 1.219h-13.969v-4.031h13.969v-27.938h-36v6h-4.031v-6q0-1.594 1.219-2.813t2.813-1.219h36z"></path>
</svg>
