<?xml version="1.0" encoding="utf-8"?>
<!-- Generated by IcoMoon.io -->
<!DOCTYPE svg PUBLIC "-//W3C//DTD SVG 1.1//EN" "http://www.w3.org/Graphics/SVG/1.1/DTD/svg11.dtd">
<svg version="1.1" xmlns="http://www.w3.org/2000/svg" xmlns:xlink="http://www.w3.org/1999/xlink" width="48" height="48" viewBox="0 0 48 48">
<path fill="#181818" d="M37.969 37.969v-7.969h4.031v7.969q0 1.594-1.219 2.813t-2.813 1.219h-7.969v-4.031h7.969zM37.969 6q1.594 0 2.813 1.219t1.219 2.813v7.969h-4.031v-7.969h-7.969v-4.031h7.969zM10.031 10.031v7.969h-4.031v-7.969q0-1.594 1.219-2.813t2.813-1.219h7.969v4.031h-7.969zM10.031 30v7.969h7.969v4.031h-7.969q-1.594 0-2.813-1.219t-1.219-2.813v-7.969h4.031zM24 16.031q3.281 0 5.625 2.344t2.344 5.625-2.344 5.625-5.625 2.344-5.625-2.344-2.344-5.625 2.344-5.625 5.625-2.344z"></path>
</svg>
