<?xml version="1.0" encoding="utf-8"?>
<!-- Generated by IcoMoon.io -->
<!DOCTYPE svg PUBLIC "-//W3C//DTD SVG 1.1//EN" "http://www.w3.org/Graphics/SVG/1.1/DTD/svg11.dtd">
<svg version="1.1" xmlns="http://www.w3.org/2000/svg" xmlns:xlink="http://www.w3.org/1999/xlink" width="48" height="48" viewBox="0 0 48 48">
<path fill="#181818" d="M15 28.031h18q-1.125 2.719-3.563 4.359t-5.438 1.641-5.438-1.641-3.563-4.359zM24 37.969q4.781 0 8.484-2.813t4.922-7.219q0.094 0 0.281 0.047t0.281 0.047q1.594 0 2.813-1.219t1.219-2.813-1.219-2.813-2.813-1.219q-0.094 0-0.281 0.047t-0.281 0.047q-1.219-4.406-4.922-7.219t-8.484-2.813-8.484 2.813-4.922 7.219q-0.094 0-0.281-0.047t-0.281-0.047q-1.594 0-2.813 1.219t-1.219 2.813 1.219 2.813 2.813 1.219q0.094 0 0.281-0.047t0.281-0.047q1.219 4.406 4.922 7.219t8.484 2.813zM45.844 25.313q-0.375 2.25-1.875 3.984t-3.656 2.391q-2.063 4.406-6.516 7.359t-9.797 2.953-9.75-2.953-6.469-7.359q-2.156-0.656-3.703-2.391t-1.922-3.984q-0.188-0.75-0.188-1.313t0.188-1.313q0.375-2.25 1.922-3.984t3.703-2.391q1.594-3.563 4.313-5.813 5.063-4.5 11.906-4.5 5.438 0 9.797 2.906t6.422 7.406q2.156 0.656 3.703 2.391t1.922 3.984q0.188 0.75 0.188 1.313t-0.188 1.313zM16.5 21q0-1.031 0.75-1.781t1.781-0.75 1.734 0.75 0.703 1.781-0.703 1.781-1.734 0.75-1.781-0.75-0.75-1.781zM26.531 21q0-1.031 0.703-1.781t1.734-0.75 1.781 0.75 0.75 1.781-0.75 1.781-1.781 0.75-1.734-0.75-0.703-1.781z"></path>
</svg>
