<?xml version="1.0" encoding="utf-8"?>
<!-- Generated by IcoMoon.io -->
<!DOCTYPE svg PUBLIC "-//W3C//DTD SVG 1.1//EN" "http://www.w3.org/Graphics/SVG/1.1/DTD/svg11.dtd">
<svg version="1.1" xmlns="http://www.w3.org/2000/svg" xmlns:xlink="http://www.w3.org/1999/xlink" width="48" height="48" viewBox="0 0 48 48">
<path fill="#181818" d="M34.031 40.031q1.219 0 2.109-0.891t0.891-2.109-0.891-2.109-2.109-0.891-2.109 0.891-0.891 2.109 0.891 2.109 2.109 0.891zM16.031 40.031q1.219 0 2.109-0.891t0.891-2.109-0.891-2.109-2.109-0.891-2.109 0.891-0.891 2.109 0.891 2.109 2.109 0.891zM38.625 31.781q2.344 2.156 2.344 5.25 0 2.906-2.016 4.922t-4.922 2.016q-2.625 0-4.594-1.734t-2.344-4.266h-4.219q-0.375 2.531-2.297 4.266t-4.547 1.734q-2.906 0-4.969-2.016t-2.063-4.922q0-4.125 3.656-6.188l-4.219-8.813h-4.406v-4.031h6.938l1.875 4.031h29.156q0 5.344-3.375 9.75zM25.969 4.031q6.656 0 11.344 4.688t4.688 11.25h-16.031v-15.938z"></path>
</svg>
