<?xml version="1.0" encoding="utf-8"?>
<!-- Generated by IcoMoon.io -->
<!DOCTYPE svg PUBLIC "-//W3C//DTD SVG 1.1//EN" "http://www.w3.org/Graphics/SVG/1.1/DTD/svg11.dtd">
<svg version="1.1" xmlns="http://www.w3.org/2000/svg" xmlns:xlink="http://www.w3.org/1999/xlink" width="48" height="48" viewBox="0 0 48 48">
<path fill="#181818" d="M36 22.031v-2.063q0-0.844-0.563-1.406t-1.406-0.563h-6q-0.844 0-1.453 0.563t-0.609 1.406v8.063q0 0.844 0.609 1.406t1.453 0.563h6q0.844 0 1.406-0.563t0.563-1.406v-2.063h-3v1.031h-4.031v-6h4.031v1.031h3zM22.031 22.031v-2.063q0-0.844-0.609-1.406t-1.453-0.563h-6q-0.844 0-1.406 0.563t-0.563 1.406v8.063q0 0.844 0.563 1.406t1.406 0.563h6q0.844 0 1.453-0.563t0.609-1.406v-2.063h-3v1.031h-4.031v-6h4.031v1.031h3zM37.969 7.969q1.594 0 2.813 1.219t1.219 2.813v24q0 1.594-1.219 2.813t-2.813 1.219h-27.938q-1.688 0-2.859-1.219t-1.172-2.813v-24q0-1.594 1.172-2.813t2.859-1.219h27.938z"></path>
</svg>
