<?xml version="1.0" encoding="utf-8"?>
<!-- Generated by IcoMoon.io -->
<!DOCTYPE svg PUBLIC "-//W3C//DTD SVG 1.1//EN" "http://www.w3.org/Graphics/SVG/1.1/DTD/svg11.dtd">
<svg version="1.1" xmlns="http://www.w3.org/2000/svg" xmlns:xlink="http://www.w3.org/1999/xlink" width="48" height="48" viewBox="0 0 48 48">
<path fill="#181818" d="M15.469 19.969h-3.469q-3.281 0-5.625 2.391t-2.344 5.672 2.344 5.625 5.625 2.344h19.5zM6 10.5l2.531-2.531 33.469 33.469-2.531 2.531-4.031-3.938h-23.438q-4.969 0-8.484-3.516t-3.516-8.484q0-4.875 3.375-8.344t8.156-3.656zM38.719 20.063q3.844 0.281 6.563 3.141t2.719 6.797q0 5.156-4.219 8.156l-2.906-2.906q3.094-1.688 3.094-5.25 0-2.438-1.781-4.219t-4.219-1.781h-3v-1.031q0-4.594-3.188-7.781t-7.781-3.188q-2.906 0-5.063 1.219l-3-2.906q3.656-2.344 8.063-2.344 5.438 0 9.563 3.422t5.156 8.672z"></path>
</svg>
