<?xml version="1.0" encoding="utf-8"?>
<!-- Generated by IcoMoon.io -->
<!DOCTYPE svg PUBLIC "-//W3C//DTD SVG 1.1//EN" "http://www.w3.org/Graphics/SVG/1.1/DTD/svg11.dtd">
<svg version="1.1" xmlns="http://www.w3.org/2000/svg" xmlns:xlink="http://www.w3.org/1999/xlink" width="48" height="48" viewBox="0 0 48 48">
<path fill="#181818" d="M37.969 36q2.438 0 4.219-1.781t1.781-4.219-1.781-4.219-4.219-1.781h-3v-1.031q0-4.594-3.188-7.781t-7.781-3.188q-3.75 0-6.656 2.25t-3.938 5.719h-1.406q-3.281 0-5.625 2.391t-2.344 5.672 2.344 5.625 5.625 2.344h25.969zM38.719 20.063q3.844 0.281 6.563 3.141t2.719 6.797q0 4.125-2.953 7.078t-7.078 2.953h-25.969q-4.969 0-8.484-3.516t-3.516-8.484q0-4.594 3.094-8.016t7.594-3.891q1.969-3.656 5.531-5.906t7.781-2.25q5.438 0 9.563 3.422t5.156 8.672z"></path>
</svg>
