<?xml version="1.0" encoding="utf-8"?>
<!-- Generated by IcoMoon.io -->
<!DOCTYPE svg PUBLIC "-//W3C//DTD SVG 1.1//EN" "http://www.w3.org/Graphics/SVG/1.1/DTD/svg11.dtd">
<svg version="1.1" xmlns="http://www.w3.org/2000/svg" xmlns:xlink="http://www.w3.org/1999/xlink" width="48" height="48" viewBox="0 0 48 48">
<path fill="#181818" d="M33 31.969q2.063 0 3.516-1.453t1.453-3.516-1.453-3.516-3.516-1.453h-1.031q0-3.281-2.344-5.672t-5.625-2.391q-2.813 0-4.922 1.734t-2.766 4.359l-0.281-0.094q-2.438 0-4.219 1.781t-1.781 4.219 1.781 4.219 4.219 1.781h16.969zM24 4.031q8.25 0 14.109 5.859t5.859 14.109-5.859 14.109-14.109 5.859-14.109-5.859-5.859-14.109 5.859-14.109 14.109-5.859z"></path>
</svg>
