<?xml version="1.0" encoding="utf-8"?>
<!-- Generated by IcoMoon.io -->
<!DOCTYPE svg PUBLIC "-//W3C//DTD SVG 1.1//EN" "http://www.w3.org/Graphics/SVG/1.1/DTD/svg11.dtd">
<svg version="1.1" xmlns="http://www.w3.org/2000/svg" xmlns:xlink="http://www.w3.org/1999/xlink" width="48" height="48" viewBox="0 0 48 48">
<path fill="#181818" d="M34.969 24q1.219 0 2.109-0.844t0.891-2.156-0.891-2.156-2.109-0.844-2.109 0.844-0.891 2.156 0.891 2.156 2.109 0.844zM28.969 16.031q1.219 0 2.109-0.891t0.891-2.109-0.891-2.109-2.109-0.891-2.109 0.891-0.891 2.109 0.891 2.109 2.109 0.891zM19.031 16.031q1.219 0 2.109-0.891t0.891-2.109-0.891-2.109-2.109-0.891-2.109 0.891-0.891 2.109 0.891 2.109 2.109 0.891zM13.031 24q1.219 0 2.109-0.844t0.891-2.156-0.891-2.156-2.109-0.844-2.109 0.844-0.891 2.156 0.891 2.156 2.109 0.844zM24 6q7.406 0 12.703 4.688t5.297 11.344q0 4.125-2.953 7.031t-7.078 2.906h-3.469q-1.313 0-2.156 0.891t-0.844 2.109q0 1.031 0.75 1.969t0.75 2.063q0 1.313-0.844 2.156t-2.156 0.844q-7.5 0-12.75-5.25t-5.25-12.75 5.25-12.75 12.75-5.25z"></path>
</svg>
