<?xml version="1.0" encoding="utf-8"?>
<!-- Generated by IcoMoon.io -->
<!DOCTYPE svg PUBLIC "-//W3C//DTD SVG 1.1//EN" "http://www.w3.org/Graphics/SVG/1.1/DTD/svg11.dtd">
<svg version="1.1" xmlns="http://www.w3.org/2000/svg" xmlns:xlink="http://www.w3.org/1999/xlink" width="48" height="48" viewBox="0 0 48 48">
<path fill="#181818" d="M25.969 16.969v-3.938h-3.938v3.938h3.938zM25.969 25.969v-3.938h-3.938v3.938h3.938zM25.969 34.969v-3.938h-3.938v3.938h3.938zM43.969 19.969q-1.594 0-2.766 1.219t-1.172 2.813 1.172 2.813 2.766 1.219v7.969q0 1.594-1.172 2.813t-2.766 1.219h-32.063q-1.594 0-2.766-1.219t-1.172-2.813v-7.969q1.688 0 2.813-1.172t1.125-2.859q0-1.594-1.172-2.813t-2.766-1.219v-7.969q0-1.688 1.172-2.859t2.766-1.172h32.063q1.594 0 2.766 1.172t1.172 2.859v7.969z"></path>
</svg>
