<?xml version="1.0" encoding="utf-8"?>
<!-- Generated by IcoMoon.io -->
<!DOCTYPE svg PUBLIC "-//W3C//DTD SVG 1.1//EN" "http://www.w3.org/Graphics/SVG/1.1/DTD/svg11.dtd">
<svg version="1.1" xmlns="http://www.w3.org/2000/svg" xmlns:xlink="http://www.w3.org/1999/xlink" width="48" height="48" viewBox="0 0 48 48">
<path fill="#181818" d="M37.969 40.031v-32.063h-3.938v6h-20.063v-6h-3.938v32.063h27.938zM24 4.031q-0.844 0-1.406 0.563t-0.563 1.406 0.563 1.406 1.406 0.563 1.406-0.563 0.563-1.406-0.563-1.406-1.406-0.563zM37.969 4.031q1.594 0 2.813 1.172t1.219 2.766v32.063q0 1.594-1.219 2.766t-2.813 1.172h-27.938q-1.594 0-2.813-1.172t-1.219-2.766v-32.063q0-1.594 1.219-2.766t2.813-1.172h8.344q0.656-1.781 2.156-2.906t3.469-1.125 3.469 1.125 2.156 2.906h8.344z"></path>
</svg>
