<?xml version="1.0" encoding="utf-8"?>
<!-- Generated by IcoMoon.io -->
<!DOCTYPE svg PUBLIC "-//W3C//DTD SVG 1.1//EN" "http://www.w3.org/Graphics/SVG/1.1/DTD/svg11.dtd">
<svg version="1.1" xmlns="http://www.w3.org/2000/svg" xmlns:xlink="http://www.w3.org/1999/xlink" width="48" height="48" viewBox="0 0 48 48">
<path fill="#181818" d="M30 37.969q5.813 0 9.891-4.078t4.078-9.891-4.078-9.891-9.891-4.078-9.891 4.078-4.078 9.891 4.078 9.891 9.891 4.078zM30 6q7.5 0 12.75 5.25t5.25 12.75-5.25 12.75-12.75 5.25-12.75-5.25-5.25-12.75 5.25-12.75 12.75-5.25zM4.031 24q0 4.125 2.156 7.547t5.813 5.109v4.313q-5.25-1.875-8.625-6.563t-3.375-10.406 3.375-10.406 8.625-6.563v4.313q-3.656 1.688-5.813 5.109t-2.156 7.547zM31.969 16.031v6h6v3.938h-6v6h-3.938v-6h-6v-3.938h6v-6h3.938z"></path>
</svg>
