<?xml version="1.0" encoding="utf-8"?>
<!-- Generated by IcoMoon.io -->
<!DOCTYPE svg PUBLIC "-//W3C//DTD SVG 1.1//EN" "http://www.w3.org/Graphics/SVG/1.1/DTD/svg11.dtd">
<svg version="1.1" xmlns="http://www.w3.org/2000/svg" xmlns:xlink="http://www.w3.org/1999/xlink" width="48" height="48" viewBox="0 0 48 48">
<path fill="#181818" d="M34.031 34.031v-3q0-2.25-3.422-3.656t-6.609-1.406-6.609 1.406-3.422 3.656v3h20.063zM24 13.5q-1.875 0-3.188 1.313t-1.313 3.188 1.313 3.188 3.188 1.313 3.188-1.313 1.313-3.188-1.313-3.188-3.188-1.313zM40.031 7.969q1.594 0 2.766 1.219t1.172 2.813v24q0 1.594-1.172 2.813t-2.766 1.219h-32.063q-1.594 0-2.766-1.219t-1.172-2.813v-24q0-1.594 1.172-2.813t2.766-1.219h32.063zM7.969 48v-4.031h32.063v4.031h-32.063zM40.031 0v4.031h-32.063v-4.031h32.063z"></path>
</svg>
