<?xml version="1.0" encoding="utf-8"?>
<!-- Generated by IcoMoon.io -->
<!DOCTYPE svg PUBLIC "-//W3C//DTD SVG 1.1//EN" "http://www.w3.org/Graphics/SVG/1.1/DTD/svg11.dtd">
<svg version="1.1" xmlns="http://www.w3.org/2000/svg" xmlns:xlink="http://www.w3.org/1999/xlink" width="48" height="48" viewBox="0 0 48 48">
<path fill="#181818" d="M37.969 6h6v1.969l-13.969 14.063-4.031-4.031zM24 25.031q1.031 0 1.031-1.031t-1.031-1.031-1.031 1.031 1.031 1.031zM12 40.031q1.594 0 2.813-1.172t1.219-2.859-1.219-2.859-2.813-1.172-2.813 1.172-1.219 2.859 1.219 2.859 2.813 1.172zM12 16.031q1.594 0 2.813-1.172t1.219-2.859-1.219-2.859-2.813-1.172-2.813 1.172-1.219 2.859 1.219 2.859 2.813 1.172zM19.313 15.281l24.656 24.75v1.969h-6l-13.969-13.969-4.688 4.688q0.656 1.406 0.656 3.281 0 3.281-2.344 5.625t-5.625 2.344-5.625-2.344-2.344-5.625 2.344-5.625 5.625-2.344q1.875 0 3.281 0.656l4.688-4.688-4.688-4.688q-1.406 0.656-3.281 0.656-3.281 0-5.625-2.344t-2.344-5.625 2.344-5.625 5.625-2.344 5.625 2.344 2.344 5.625q0 1.875-0.656 3.281z"></path>
</svg>
