<?xml version="1.0" encoding="utf-8"?>
<!-- Generated by IcoMoon.io -->
<!DOCTYPE svg PUBLIC "-//W3C//DTD SVG 1.1//EN" "http://www.w3.org/Graphics/SVG/1.1/DTD/svg11.dtd">
<svg version="1.1" xmlns="http://www.w3.org/2000/svg" xmlns:xlink="http://www.w3.org/1999/xlink" width="48" height="48" viewBox="0 0 48 48">
<path fill="#181818" d="M35.719 28.031q-0.75-1.969-0.75-4.031t0.75-4.031h3.281l3-3.938-3.938-4.031q-4.125 3.094-5.531 7.969-0.563 1.969-0.563 4.031t0.563 4.031q1.406 4.875 5.531 7.969l3.938-4.031-3-3.938h-3.281zM28.031 36v-1.969q0-2.719-4.125-4.453t-7.875-1.734-7.875 1.734-4.125 4.453v1.969h24zM16.031 12q-2.438 0-4.219 1.781t-1.781 4.219 1.781 4.219 4.219 1.781 4.219-1.781 1.781-4.219-1.781-4.219-4.219-1.781zM43.969 6q1.594 0 2.813 1.219t1.219 2.813v27.938q0 1.594-1.219 2.813t-2.813 1.219h-39.938q-1.594 0-2.813-1.219t-1.219-2.813v-27.938q0-1.594 1.219-2.813t2.813-1.219h39.938z"></path>
</svg>
