<?xml version="1.0" encoding="utf-8"?>
<!-- Generated by IcoMoon.io -->
<!DOCTYPE svg PUBLIC "-//W3C//DTD SVG 1.1//EN" "http://www.w3.org/Graphics/SVG/1.1/DTD/svg11.dtd">
<svg version="1.1" xmlns="http://www.w3.org/2000/svg" xmlns:xlink="http://www.w3.org/1999/xlink" width="48" height="48" viewBox="0 0 48 48">
<path fill="#181818" d="M24 40.031q6.563 0 11.297-4.734t4.734-11.297-4.734-11.297-11.297-4.734-11.297 4.734-4.734 11.297 4.734 11.297 11.297 4.734zM24 4.031q8.25 0 14.109 5.859t5.859 14.109-5.859 14.109-14.109 5.859-14.109-5.859-5.859-14.109 5.859-14.109 14.109-5.859zM23.719 18.281q-3.75 0-3.75 5.438v0.563q0 5.438 3.75 5.438 1.406 0 2.344-0.797t0.938-2.016h3.563q0 2.344-2.063 4.125-1.969 1.688-4.781 1.688-3.75 0-5.719-2.25t-1.969-6.188v-0.563q0-3.844 1.875-6 2.25-2.531 5.813-2.531 3.094 0 4.875 1.781 1.969 1.969 1.969 4.594h-3.563q0-0.656-0.281-1.219-0.469-0.938-0.656-1.125-0.938-0.938-2.344-0.938z"></path>
</svg>
