<?xml version="1.0" encoding="utf-8"?>
<!-- Generated by IcoMoon.io -->
<!DOCTYPE svg PUBLIC "-//W3C//DTD SVG 1.1//EN" "http://www.w3.org/Graphics/SVG/1.1/DTD/svg11.dtd">
<svg version="1.1" xmlns="http://www.w3.org/2000/svg" xmlns:xlink="http://www.w3.org/1999/xlink" width="48" height="48" viewBox="0 0 48 48">
<path fill="#181818" d="M16.031 31.969h24v4.031h-4.031v4.031h-4.031v-4.031h-15.938q-1.688 0-2.859-1.219t-1.172-2.813v-15.938h-4.031v-4.031h4.031v-4.031h4.031v24zM31.969 28.031v-12h-12v-4.031h12q1.594 0 2.813 1.172t1.219 2.859v12h-4.031zM24.094 0q9.375 0 16.266 6.375t7.641 15.656h-3q-0.563-5.625-3.75-10.125t-8.156-6.844l-2.719 2.625-7.594-7.594q0.281 0 0.656-0.047t0.656-0.047zM14.906 42.938l2.719-2.625 7.594 7.594q-0.281 0-0.656 0.047t-0.656 0.047q-9.375 0-16.266-6.375t-7.641-15.656h3q0.563 5.625 3.75 10.125t8.156 6.844z"></path>
</svg>
