<?xml version="1.0" encoding="utf-8"?>
<!-- Generated by IcoMoon.io -->
<!DOCTYPE svg PUBLIC "-//W3C//DTD SVG 1.1//EN" "http://www.w3.org/Graphics/SVG/1.1/DTD/svg11.dtd">
<svg version="1.1" xmlns="http://www.w3.org/2000/svg" xmlns:xlink="http://www.w3.org/1999/xlink" width="48" height="48" viewBox="0 0 48 48">
<path fill="#181818" d="M24 37.969q6.75 0 10.875-5.25l5.25 3.094q-6 8.156-16.125 8.156-8.25 0-14.109-5.859t-5.859-14.109q0-7.781 5.203-13.453t12.797-6.422v6q-5.063 0.75-8.531 4.688t-3.469 9.188q0 5.813 4.078 9.891t9.891 4.078zM25.969 4.125q7.594 0.75 12.797 6.422t5.203 13.453q0 4.5-1.688 8.156l-5.25-3.094q0.938-2.625 0.938-5.063 0-5.25-3.469-9.188t-8.531-4.688v-6z"></path>
</svg>
