<?xml version="1.0" encoding="utf-8"?>
<!-- Generated by IcoMoon.io -->
<!DOCTYPE svg PUBLIC "-//W3C//DTD SVG 1.1//EN" "http://www.w3.org/Graphics/SVG/1.1/DTD/svg11.dtd">
<svg version="1.1" xmlns="http://www.w3.org/2000/svg" xmlns:xlink="http://www.w3.org/1999/xlink" width="48" height="48" viewBox="0 0 48 48">
<path fill="#181818" d="M24 22.031h7.969v12h-7.969v-12zM12 13.969h10.031v10.031h-10.031v-10.031zM24 13.969h7.969v6h-7.969v-6zM12 25.969h10.031v8.063h-10.031v-8.063zM36 37.969v-27.938h-28.031v27.938h28.031zM43.969 18h-3.938v4.031h3.938v3.938h-3.938v4.031h3.938v4.031h-3.938v3.938q0 1.594-1.219 2.813t-2.813 1.219h-28.031q-1.594 0-2.766-1.219t-1.172-2.813v-27.938q0-1.594 1.172-2.813t2.766-1.219h28.031q1.594 0 2.813 1.219t1.219 2.813v3.938h3.938v4.031z"></path>
</svg>
