<?xml version="1.0" encoding="utf-8"?>
<!-- Generated by IcoMoon.io -->
<!DOCTYPE svg PUBLIC "-//W3C//DTD SVG 1.1//EN" "http://www.w3.org/Graphics/SVG/1.1/DTD/svg11.dtd">
<svg version="1.1" xmlns="http://www.w3.org/2000/svg" xmlns:xlink="http://www.w3.org/1999/xlink" width="48" height="48" viewBox="0 0 48 48">
<path fill="#181818" d="M34.031 37.969v-3.938h3.938v7.969q0 1.594-1.172 2.813t-2.766 1.219h-20.063q-1.594 0-2.766-1.219t-1.172-2.813v-7.969h3.938v3.938h20.063zM19.969 30.375l-2.813 2.813-9.188-9.188 9.188-9.188 2.813 2.813-6.281 6.375zM30.844 33.188l-2.813-2.813 6.281-6.375-6.281-6.375 2.813-2.813 9.188 9.188zM13.969 10.031v3.938h-3.938v-7.969q0-1.594 1.172-2.813t2.766-1.219l20.063 0.094q1.594 0 2.766 1.172t1.172 2.766v7.969h-3.938v-3.938h-20.063z"></path>
</svg>
