<?xml version="1.0" encoding="utf-8"?>
<!-- Generated by IcoMoon.io -->
<!DOCTYPE svg PUBLIC "-//W3C//DTD SVG 1.1//EN" "http://www.w3.org/Graphics/SVG/1.1/DTD/svg11.dtd">
<svg version="1.1" xmlns="http://www.w3.org/2000/svg" xmlns:xlink="http://www.w3.org/1999/xlink" width="48" height="48" viewBox="0 0 48 48">
<path fill="#181818" d="M42 36v-16.031h-7.969v16.031h7.969zM43.969 16.031q0.75 0 1.406 0.609t0.656 1.359v19.969q0 0.75-0.656 1.406t-1.406 0.656h-12q-0.75 0-1.359-0.656t-0.609-1.406v-19.969q0-0.75 0.609-1.359t1.359-0.609h12zM22.031 34.969q1.219 0 2.109-0.891t0.891-2.109-0.891-2.109-2.109-0.891-2.109 0.891-0.891 2.109 0.891 2.109 2.109 0.891zM25.969 24v3.563q2.063 1.875 2.063 4.406 0 2.625-2.063 4.5v3.563h-7.969v-3.563q-1.969-1.781-1.969-4.5 0-2.625 1.969-4.406v-3.563h7.969zM6 12v24h7.969v4.031h-7.969q-1.594 0-2.813-1.219t-1.219-2.813v-24q0-1.594 1.219-2.813t2.813-1.219h36v4.031h-36z"></path>
</svg>
