<?xml version="1.0" encoding="utf-8"?>
<!-- Generated by IcoMoon.io -->
<!DOCTYPE svg PUBLIC "-//W3C//DTD SVG 1.1//EN" "http://www.w3.org/Graphics/SVG/1.1/DTD/svg11.dtd">
<svg version="1.1" xmlns="http://www.w3.org/2000/svg" xmlns:xlink="http://www.w3.org/1999/xlink" width="48" height="48" viewBox="0 0 48 48">
<path fill="#181818" d="M19.781 38.719l-13.969-2.719 0.75-4.031 9.844 1.969 3.188-16.219-3.656 1.406v6.844h-3.938v-9.375l10.406-4.406q0.281 0 0.797-0.094t0.797-0.094q1.969 0 3.375 1.969l1.969 3.188q2.719 4.781 8.625 4.781v4.031q-6.656 0-10.969-4.969l-1.219 6 4.219 3.938v15h-4.031v-12l-4.219-3.938zM27 10.969q-1.594 0-2.813-1.219t-1.219-2.813 1.219-2.766 2.813-1.172 2.766 1.172 1.172 2.766-1.172 2.813-2.766 1.219z"></path>
</svg>
