<?xml version="1.0" encoding="utf-8"?>
<!-- Generated by IcoMoon.io -->
<!DOCTYPE svg PUBLIC "-//W3C//DTD SVG 1.1//EN" "http://www.w3.org/Graphics/SVG/1.1/DTD/svg11.dtd">
<svg version="1.1" xmlns="http://www.w3.org/2000/svg" xmlns:xlink="http://www.w3.org/1999/xlink" width="48" height="48" viewBox="0 0 48 48">
<path fill="#181818" d="M10.031 22.031h27.938l-3-9h-21.938zM34.969 31.969q1.219 0 2.109-0.891t0.891-2.109-0.891-2.109-2.109-0.891-2.109 0.891-0.891 2.109 0.891 2.109 2.109 0.891zM13.031 31.969q1.219 0 2.109-0.891t0.891-2.109-0.891-2.109-2.109-0.891-2.109 0.891-0.891 2.109 0.891 2.109 2.109 0.891zM37.875 12l4.125 12v16.031q0 0.844-0.563 1.406t-1.406 0.563h-2.063q-0.844 0-1.406-0.563t-0.563-1.406v-2.063h-24v2.063q0 0.844-0.563 1.406t-1.406 0.563h-2.063q-0.844 0-1.406-0.563t-0.563-1.406v-16.031l4.125-12q0.563-1.969 2.906-1.969h21.938q2.344 0 2.906 1.969z"></path>
</svg>
