<?xml version="1.0" encoding="utf-8"?>
<!-- Generated by IcoMoon.io -->
<!DOCTYPE svg PUBLIC "-//W3C//DTD SVG 1.1//EN" "http://www.w3.org/Graphics/SVG/1.1/DTD/svg11.dtd">
<svg version="1.1" xmlns="http://www.w3.org/2000/svg" xmlns:xlink="http://www.w3.org/1999/xlink" width="48" height="48" viewBox="0 0 48 48">
<path fill="#181818" d="M36 19.969v-9.938h-24v9.938h24zM24 34.031q1.594 0 2.813-1.219t1.219-2.813-1.219-2.813-2.813-1.219-2.813 1.219-1.219 2.813 1.219 2.813 2.813 1.219zM7.969 31.031v-21q0-4.781 4.125-6.422t11.906-1.641 11.906 1.641 4.125 6.422v21q0 2.906-2.063 4.922t-4.969 2.016l3 3v1.031h-24v-1.031l3-3q-2.906 0-4.969-2.016t-2.063-4.922z"></path>
</svg>
