<?xml version="1.0" encoding="utf-8"?>
<!-- Generated by IcoMoon.io -->
<!DOCTYPE svg PUBLIC "-//W3C//DTD SVG 1.1//EN" "http://www.w3.org/Graphics/SVG/1.1/DTD/svg11.dtd">
<svg version="1.1" xmlns="http://www.w3.org/2000/svg" xmlns:xlink="http://www.w3.org/1999/xlink" width="48" height="48" viewBox="0 0 48 48">
<path fill="#181818" d="M12 12v7.969l12-3.938 12 3.938v-7.969h-24zM7.875 37.969l-3.75-13.313q-0.656-1.875 1.313-2.531l2.531-0.844v-9.281q0-1.594 1.219-2.813t2.813-1.219h6v-6h12v6h6q1.594 0 2.813 1.219t1.219 2.813v9.281l2.531 0.844q1.969 0.656 1.313 2.531l-3.75 13.313h-0.094q-4.594 0-8.063-3.938-3.469 3.938-7.969 3.938t-7.969-3.938q-3.469 3.938-8.063 3.938h-0.094zM40.031 42h3.938v4.031h-3.938q-4.219 0-8.063-1.969-7.969 4.125-15.938 0-3.844 1.969-8.063 1.969h-3.938v-4.031h3.938q4.313 0 8.063-2.625 3.656 2.531 7.969 2.531t7.969-2.531q3.75 2.625 8.063 2.625z"></path>
</svg>
