<?xml version="1.0" encoding="utf-8"?>
<!-- Generated by IcoMoon.io -->
<!DOCTYPE svg PUBLIC "-//W3C//DTD SVG 1.1//EN" "http://www.w3.org/Graphics/SVG/1.1/DTD/svg11.dtd">
<svg version="1.1" xmlns="http://www.w3.org/2000/svg" xmlns:xlink="http://www.w3.org/1999/xlink" width="48" height="48" viewBox="0 0 48 48">
<path fill="#181818" d="M36 22.031v-10.031h-24v10.031h24zM33 34.031q1.313 0 2.156-0.891t0.844-2.109-0.844-2.109-2.156-0.891-2.156 0.891-0.844 2.109 0.844 2.109 2.156 0.891zM15 34.031q1.313 0 2.156-0.891t0.844-2.109-0.844-2.109-2.156-0.891-2.156 0.891-0.844 2.109 0.844 2.109 2.156 0.891zM7.969 31.969v-19.969q0-4.781 4.125-6.375t11.906-1.594 11.906 1.594 4.125 6.375v19.969q0 2.625-2.063 4.5v3.563q0 0.844-0.563 1.406t-1.406 0.563h-1.969q-0.844 0-1.453-0.563t-0.609-1.406v-2.063h-15.938v2.063q0 0.844-0.609 1.406t-1.453 0.563h-1.969q-0.844 0-1.406-0.563t-0.563-1.406v-3.563q-2.063-1.875-2.063-4.5z"></path>
</svg>
