<?xml version="1.0" encoding="utf-8"?>
<!-- Generated by IcoMoon.io -->
<!DOCTYPE svg PUBLIC "-//W3C//DTD SVG 1.1//EN" "http://www.w3.org/Graphics/SVG/1.1/DTD/svg11.dtd">
<svg version="1.1" xmlns="http://www.w3.org/2000/svg" xmlns:xlink="http://www.w3.org/1999/xlink" width="48" height="48" viewBox="0 0 48 48">
<path fill="#181818" d="M19.594 17.813l-5.625 28.219h4.219l3.656-16.031 4.125 4.031v12h4.031v-15l-4.219-4.031 1.219-6q4.313 4.969 10.969 4.969v-3.938q-5.813 0-8.531-4.875l-2.063-3.188q-1.406-1.969-3.375-1.969-0.281 0-0.797 0.094t-0.797 0.094l-10.406 4.406v9.375h4.031v-6.75l3.563-1.406zM27 10.969q-1.594 0-2.813-1.172t-1.219-2.766 1.219-2.813 2.813-1.219 2.813 1.219 1.219 2.813-1.219 2.766-2.813 1.172z"></path>
</svg>
