<?xml version="1.0" encoding="utf-8"?>
<!-- Generated by IcoMoon.io -->
<!DOCTYPE svg PUBLIC "-//W3C//DTD SVG 1.1//EN" "http://www.w3.org/Graphics/SVG/1.1/DTD/svg11.dtd">
<svg version="1.1" xmlns="http://www.w3.org/2000/svg" xmlns:xlink="http://www.w3.org/1999/xlink" width="48" height="48" viewBox="0 0 48 48">
<path fill="#181818" d="M37.969 40.969q2.906 0 4.969-2.016t2.063-4.922-2.063-4.969-4.969-2.063-4.922 2.063-2.016 4.969 2.016 4.922 4.922 2.016zM37.969 24q4.219 0 7.125 2.906t2.906 7.125-2.906 7.078-7.125 2.859-7.078-2.859-2.859-7.078 2.859-7.125 7.078-2.906zM21.563 21l4.406 4.594v12.375h-3.938v-9.938l-6.469-5.625q-1.125-0.75-1.125-2.813 0-1.688 1.125-2.813l5.625-5.625q0.75-1.125 2.813-1.125 1.781 0 3.188 1.125l3.844 3.844q3 3 7.125 3v4.031q-5.906 0-10.125-4.219l-1.594-1.594zM10.031 40.969q2.906 0 4.922-2.016t2.016-4.922-2.016-4.969-4.922-2.063-4.969 2.063-2.063 4.969 2.063 4.922 4.969 2.016zM10.031 24q4.219 0 7.078 2.906t2.859 7.125-2.859 7.078-7.078 2.859-7.125-2.859-2.906-7.078 2.906-7.125 7.125-2.906zM31.031 10.969q-1.594 0-2.813-1.172t-1.219-2.766 1.219-2.813 2.813-1.219 2.766 1.219 1.172 2.813-1.172 2.766-2.766 1.172z"></path>
</svg>
