<?xml version="1.0" encoding="utf-8"?>
<!-- Generated by IcoMoon.io -->
<!DOCTYPE svg PUBLIC "-//W3C//DTD SVG 1.1//EN" "http://www.w3.org/Graphics/SVG/1.1/DTD/svg11.dtd">
<svg version="1.1" xmlns="http://www.w3.org/2000/svg" xmlns:xlink="http://www.w3.org/1999/xlink" width="48" height="48" viewBox="0 0 48 48">
<path fill="#181818" d="M13.969 18q1.594 0 2.813-1.219t1.219-2.813-1.219-2.766-2.813-1.172-2.766 1.172-1.172 2.766 1.172 2.813 2.766 1.219zM40.031 6q0.844 0 1.406 0.563t0.563 1.406v12q0 0.844-0.563 1.453t-1.406 0.609h-32.063q-0.844 0-1.406-0.609t-0.563-1.453v-12q0-0.844 0.563-1.406t1.406-0.563h32.063zM13.969 37.969q1.594 0 2.813-1.172t1.219-2.766-1.219-2.813-2.813-1.219-2.766 1.219-1.172 2.813 1.172 2.766 2.766 1.172zM40.031 25.969q0.844 0 1.406 0.609t0.563 1.453v12q0 0.844-0.563 1.406t-1.406 0.563h-32.063q-0.844 0-1.406-0.563t-0.563-1.406v-12q0-0.844 0.563-1.453t1.406-0.609h32.063z"></path>
</svg>
