<?xml version="1.0" encoding="utf-8"?>
<!-- Generated by IcoMoon.io -->
<!DOCTYPE svg PUBLIC "-//W3C//DTD SVG 1.1//EN" "http://www.w3.org/Graphics/SVG/1.1/DTD/svg11.dtd">
<svg version="1.1" xmlns="http://www.w3.org/2000/svg" xmlns:xlink="http://www.w3.org/1999/xlink" width="48" height="48" viewBox="0 0 48 48">
<path fill="#181818" d="M13.969 24v4.031h-3.938v-4.031h3.938zM13.969 16.031v3.938h-3.938v-3.938h3.938zM37.969 24v4.031h-21.938v-4.031h21.938zM37.969 16.031v3.938h-21.938v-3.938h21.938zM42 34.031v-24h-36v24h36zM42 6q1.594 0 2.813 1.219t1.219 2.813l-0.094 24q0 1.594-1.172 2.766t-2.766 1.172h-10.031v4.031h-15.938v-4.031h-10.031q-1.594 0-2.813-1.172t-1.219-2.766v-24q0-1.594 1.219-2.813t2.813-1.219h36z"></path>
</svg>
