<?xml version="1.0" encoding="utf-8"?>
<!-- Generated by IcoMoon.io -->
<!DOCTYPE svg PUBLIC "-//W3C//DTD SVG 1.1//EN" "http://www.w3.org/Graphics/SVG/1.1/DTD/svg11.dtd">
<svg version="1.1" xmlns="http://www.w3.org/2000/svg" xmlns:xlink="http://www.w3.org/1999/xlink" width="48" height="48" viewBox="0 0 48 48">
<path fill="#181818" d="M4.031 22.031h15.938v3.938h-15.938v-3.938zM32.906 10.031q8.063 0 8.063 7.031 0 1.313-0.375 2.344-0.656 1.781-1.031 2.344-1.594 2.531-3.75 4.688l-5.719 6.188h11.906v3.375h-17.25v-3l8.344-9.094q1.688-1.688 2.906-3.75 0.656-1.125 0.656-2.625 0-1.219-0.188-1.688-0.938-2.438-3.563-2.438-4.313 0-4.313 4.594h-4.313q0-3.375 2.25-5.625 2.344-2.344 6.375-2.344z"></path>
</svg>
