<?xml version="1.0" encoding="utf-8"?>
<!-- Generated by IcoMoon.io -->
<!DOCTYPE svg PUBLIC "-//W3C//DTD SVG 1.1//EN" "http://www.w3.org/Graphics/SVG/1.1/DTD/svg11.dtd">
<svg version="1.1" xmlns="http://www.w3.org/2000/svg" xmlns:xlink="http://www.w3.org/1999/xlink" width="48" height="48" viewBox="0 0 48 48">
<path fill="#181818" d="M16.031 13.969v8.063h7.969v3.938h-7.969v8.063h-4.031v-8.063h-7.969v-3.938h7.969v-8.063h4.031zM32.063 32.625h11.906v3.375h-17.25v-3l8.344-9.094q1.688-1.688 2.906-3.75 0.75-1.219 0.75-2.625 0-1.5-1.031-2.906-0.938-1.219-2.813-1.219-1.969 0-3.281 1.313-1.031 1.031-1.031 3.281h-4.313q0-3.375 2.25-5.625 1.313-1.313 2.719-1.781 1.688-0.563 3.75-0.563 1.688 0 3.375 0.469 1.875 0.75 2.531 1.406 2.156 1.875 2.156 5.156 0 2.25-1.5 4.688-1.125 1.875-1.594 2.344-1.313 1.5-2.156 2.344z"></path>
</svg>
