<?xml version="1.0" encoding="utf-8"?>
<!-- Generated by IcoMoon.io -->
<!DOCTYPE svg PUBLIC "-//W3C//DTD SVG 1.1//EN" "http://www.w3.org/Graphics/SVG/1.1/DTD/svg11.dtd">
<svg version="1.1" xmlns="http://www.w3.org/2000/svg" xmlns:xlink="http://www.w3.org/1999/xlink" width="48" height="48" viewBox="0 0 48 48">
<path fill="#181818" d="M28.031 20.25q0-3.75-1.031-5.344-0.375-0.563-1.313-1.125-0.656-0.375-1.688-0.375t-1.688 0.375q-0.938 0.563-1.313 1.125-1.031 1.594-1.031 5.344v5.344q0 5.25 2.344 6.656 0.656 0.375 1.688 0.375 1.969 0 3-1.594 1.125-1.688 1.125-5.438v-5.344h-0.094zM15.75 20.906q0-10.875 8.25-10.875 6.094 0 7.688 5.813 0.656 2.438 0.656 5.063v4.125h-0.094q0 5.531-2.25 8.438-1.313 1.5-2.625 1.969-1.5 0.563-3.375 0.563t-3.375-0.563q-1.313-0.469-2.625-1.969-2.25-2.531-2.25-8.438v-4.125z"></path>
</svg>
