<?xml version="1.0" encoding="utf-8"?>
<!-- Generated by IcoMoon.io -->
<!DOCTYPE svg PUBLIC "-//W3C//DTD SVG 1.1//EN" "http://www.w3.org/Graphics/SVG/1.1/DTD/svg11.dtd">
<svg version="1.1" xmlns="http://www.w3.org/2000/svg" xmlns:xlink="http://www.w3.org/1999/xlink" width="48" height="48" viewBox="0 0 48 48">
<path fill="#181818" d="M40.969 22.031q2.063 0 3.563 1.453t1.5 3.516-1.5 3.516-3.563 1.453h-3v8.063q0 1.594-1.172 2.766t-2.766 1.172h-7.594v-3q0-2.25-1.594-3.797t-3.844-1.547-3.844 1.547-1.594 3.797v3h-7.594q-1.594 0-2.766-1.172t-1.172-2.766v-7.594h3q2.25 0 3.797-1.594t1.547-3.844-1.547-3.844-3.797-1.594h-3v-7.594q0-1.594 1.172-2.766t2.766-1.172h8.063v-3q0-2.063 1.453-3.563t3.516-1.5 3.516 1.5 1.453 3.563v3h8.063q1.594 0 2.766 1.172t1.172 2.766v8.063h3z"></path>
</svg>
