<?xml version="1.0" encoding="utf-8"?>
<!-- Generated by IcoMoon.io -->
<!DOCTYPE svg PUBLIC "-//W3C//DTD SVG 1.1//EN" "http://www.w3.org/Graphics/SVG/1.1/DTD/svg11.dtd">
<svg version="1.1" xmlns="http://www.w3.org/2000/svg" xmlns:xlink="http://www.w3.org/1999/xlink" width="48" height="48" viewBox="0 0 48 48">
<path fill="#181818" d="M24 40.031q6.563 0 11.297-4.734t4.734-11.297q0-2.063-0.656-4.5-1.781 0.469-4.5 0.469-10.313 0-16.313-8.438-3.094 7.5-10.5 10.781-0.094 0.563-0.094 1.688 0 6.563 4.734 11.297t11.297 4.734zM24 4.031q8.25 0 14.109 5.859t5.859 14.109-5.859 14.109-14.109 5.859-14.109-5.859-5.859-14.109 5.859-14.109 14.109-5.859zM30 23.531q1.031 0 1.781 0.703t0.75 1.734-0.75 1.781-1.781 0.75-1.781-0.75-0.75-1.781 0.75-1.734 1.781-0.703zM18 23.531q1.031 0 1.781 0.703t0.75 1.734-0.75 1.781-1.781 0.75-1.781-0.75-0.75-1.781 0.75-1.734 1.781-0.703z"></path>
</svg>
