<?xml version="1.0" encoding="utf-8"?>
<!-- Generated by IcoMoon.io -->
<!DOCTYPE svg PUBLIC "-//W3C//DTD SVG 1.1//EN" "http://www.w3.org/Graphics/SVG/1.1/DTD/svg11.dtd">
<svg version="1.1" xmlns="http://www.w3.org/2000/svg" xmlns:xlink="http://www.w3.org/1999/xlink" width="48" height="48" viewBox="0 0 48 48">
<path fill="#181818" d="M24.188 37.125q4.5-4.031 6.656-6.094t4.688-4.875 3.516-4.969 0.984-4.219q0-3-2.016-4.969t-5.016-1.969q-2.344 0-4.359 1.313t-2.766 3.375h-3.75q-0.75-2.063-2.766-3.375t-4.359-1.313q-3 0-5.016 1.969t-2.016 4.969q0 2.063 0.984 4.219t3.516 4.969 4.688 4.875 6.656 6.094l0.188 0.188zM33 6q4.688 0 7.828 3.188t3.141 7.781q0 2.719-1.031 5.297t-3.797 5.766-5.016 5.344-7.219 6.656l-2.906 2.625-2.906-2.531q-6.469-5.813-9.328-8.719t-5.297-6.844-2.438-7.594q0-4.594 3.141-7.781t7.828-3.188q5.438 0 9 4.219 3.563-4.219 9-4.219z"></path>
</svg>
