<?xml version="1.0" encoding="utf-8"?>
<!-- Generated by IcoMoon.io -->
<!DOCTYPE svg PUBLIC "-//W3C//DTD SVG 1.1//EN" "http://www.w3.org/Graphics/SVG/1.1/DTD/svg11.dtd">
<svg version="1.1" xmlns="http://www.w3.org/2000/svg" xmlns:xlink="http://www.w3.org/1999/xlink" width="48" height="48" viewBox="0 0 48 48">
<path fill="#181818" d="M40.031 30v-12h-2.531v7.031l-4.969-7.031h-2.531v12h2.531v-7.031l5.063 7.031h2.438zM25.031 30v-12h-3v12h3zM18 22.969v-1.969q0-1.313-0.844-2.156t-2.156-0.844h-7.031v12h3v-4.031h4.031q1.313 0 2.156-0.891t0.844-2.109zM40.031 7.969q1.688 0 2.813 1.172t1.125 2.859v24q0 1.688-1.125 2.859t-2.813 1.172h-32.063q-1.688 0-2.813-1.172t-1.125-2.859v-24q0-1.688 1.125-2.859t2.813-1.172h32.063zM10.969 21h4.031v1.969h-4.031v-1.969z"></path>
</svg>
