<?xml version="1.0" encoding="utf-8"?>
<!-- Generated by IcoMoon.io -->
<!DOCTYPE svg PUBLIC "-//W3C//DTD SVG 1.1//EN" "http://www.w3.org/Graphics/SVG/1.1/DTD/svg11.dtd">
<svg version="1.1" xmlns="http://www.w3.org/2000/svg" xmlns:xlink="http://www.w3.org/1999/xlink" width="48" height="48" viewBox="0 0 48 48">
<path fill="#181818" d="M40.969 28.031v-10.031h-2.438v9h-2.25v-7.031h-2.531v7.031h-2.25v-9h-2.531v10.031q0 0.844 0.609 1.406t1.453 0.563h7.969q0.844 0 1.406-0.563t0.563-1.406zM27 20.531v-2.531h-7.969v12h7.969v-2.531h-4.969v-2.156h4.969v-2.531h-4.969v-2.25h4.969zM16.969 30v-12h-2.438v7.031l-5.063-7.031h-2.438v12h2.438v-7.031l5.156 7.031h2.344zM40.031 7.969q1.688 0 2.813 1.172t1.125 2.859v24q0 1.688-1.125 2.859t-2.813 1.172h-32.063q-1.688 0-2.813-1.172t-1.125-2.859v-24q0-1.688 1.125-2.859t2.813-1.172h32.063z"></path>
</svg>
