<?xml version="1.0" encoding="utf-8"?>
<!-- Generated by IcoMoon.io -->
<!DOCTYPE svg PUBLIC "-//W3C//DTD SVG 1.1//EN" "http://www.w3.org/Graphics/SVG/1.1/DTD/svg11.dtd">
<svg version="1.1" xmlns="http://www.w3.org/2000/svg" xmlns:xlink="http://www.w3.org/1999/xlink" width="48" height="48" viewBox="0 0 48 48">
<path fill="#181818" d="M42 22.969v-1.969q0-1.313-0.844-2.156t-2.156-0.844h-7.031v12h3v-4.031h2.344l1.688 4.031h3l-1.781-4.219q1.781-0.844 1.781-2.813zM25.219 30l3.563-12h-3l-2.063 6.844-1.969-6.844h-3l3.469 12h3zM16.031 27v-6q0-1.313-0.891-2.156t-2.109-0.844h-7.031v12h7.031q1.219 0 2.109-0.844t0.891-2.156zM42 6q1.688 0 2.859 1.172t1.172 2.859v27.938q0 1.594-1.172 2.813t-2.859 1.219h-36q-1.688 0-2.859-1.219t-1.172-2.813v-27.938q0-1.688 1.172-2.859t2.859-1.172h36zM9 21h4.031v6h-4.031v-6zM34.969 21h4.031v1.969h-4.031v-1.969z"></path>
</svg>
