<?xml version="1.0" encoding="UTF-8" standalone="no"?>
<!-- Generated by IcoMoon.io -->

<svg
   xmlns:dc="http://purl.org/dc/elements/1.1/"
   xmlns:cc="http://creativecommons.org/ns#"
   xmlns:rdf="http://www.w3.org/1999/02/22-rdf-syntax-ns#"
   xmlns:svg="http://www.w3.org/2000/svg"
   xmlns="http://www.w3.org/2000/svg"
   xmlns:sodipodi="http://sodipodi.sourceforge.net/DTD/sodipodi-0.dtd"
   xmlns:inkscape="http://www.inkscape.org/namespaces/inkscape"
   version="1.1"
   width="48"
   height="48"
   viewBox="0 0 48 48"
   id="svg2"
   inkscape:version="0.91 r13725"
   sodipodi:docname="filter_b_and_w.svg">
  <metadata
     id="metadata10">
    <rdf:RDF>
      <cc:Work
         rdf:about="">
        <dc:format>image/svg+xml</dc:format>
        <dc:type
           rdf:resource="http://purl.org/dc/dcmitype/StillImage" />
      </cc:Work>
    </rdf:RDF>
  </metadata>
  <defs
     id="defs8" />
  <sodipodi:namedview
     pagecolor="#ffffff"
     bordercolor="#666666"
     borderopacity="1"
     objecttolerance="10"
     gridtolerance="10"
     guidetolerance="10"
     inkscape:pageopacity="0"
     inkscape:pageshadow="2"
     inkscape:window-width="640"
     inkscape:window-height="480"
     id="namedview6"
     showgrid="false"
     inkscape:zoom="2.2552083"
     inkscape:cx="123.49742"
     inkscape:cy="-266.25917"
     inkscape:current-layer="svg2" />
  <path
     d="m -28.084064,-14.318334 0,-27.938 -13.969,0 0,12 z m 0,-31.969 q 1.594,0 2.813,1.219 1.219,1.219 1.219,2.813 l 0,27.938 q 0,1.594 -1.219,2.813 -1.219,1.219 -2.813,1.219 l -27.938,0 q -1.594,0 -2.813,-1.219 -1.219,-1.219 -1.219,-2.813 l 0,-27.938 q 0,-1.594 1.219,-2.813 1.219,-1.219 2.813,-1.219 l 27.938,0 z m -13.969,16.031 -13.969,15.938 13.969,0 0,-15.938 z"
     id="path4"
     inkscape:connector-curvature="0"
     style="fill:#181818" />
  <path
     id="path3340"
     d="m 158.49965,301.89977 30.29965,0 0,70.54264 50.65596,-50.18632 50.65597,50.18632 0,-70.54264 30.29965,0 0,121.19861 -20.35632,0 -60.5993,-65.80579 -60.5993,65.80579 -20.35631,0 0,-121.19861 z"
     inkscape:connector-curvature="0"
     style="fill:#181818" />
  <path
     id="path3351"
     d="m -228.69132,-111.47408 0,-3 q 0,-1.688 -1.172,-2.859 -1.172,-1.171 -2.766,-1.172 l -8.063,0 0,4.031 8.063,0 0,4.031 -4.031,0 0,3.938 4.031,0 0,4.031 -8.063,0 0,4.030997 8.063,0 q 1.594,0 2.766,-1.172 1.172,-1.171997 1.172,-2.858997 l 0,-3 q 0,-1.313 -0.844,-2.156 -0.844,-0.843 -2.156,-0.844 1.313,0 2.156,-0.844 0.843,-0.844 0.844,-2.156 z m 8.063,-15 q 1.594,0 2.766,1.219 1.172,1.219 1.172,2.813 l 0,27.937997 q 0,1.594 -1.172,2.813 -1.172,1.219 -2.766,1.219 l -28.031,0 q -1.594,0 -2.813,-1.219 -1.219,-1.219 -1.219,-2.813 l 0,-27.937997 q 0,-1.594 1.219,-2.813 1.219,-1.219 2.813,-1.219 l 28.031,0 z"
     inkscape:connector-curvature="0"
     style="fill:#181818" />
  <path
     id="path3362"
     d="m -377.49723,137.45437 0,-79.862547 -32.09549,0 0,16.045753 16.04575,0 0,63.812814 16.04575,0 z m 39.55909,-111.579878 q 6.34505,0 11.19739,4.852338 4.85234,4.852337 4.85234,11.197396 l 0,111.209684 q 0,6.34507 -4.85234,11.1974 -4.85234,4.85234 -11.19739,4.85234 l -111.20969,0 q -6.34506,0 -11.1974,-4.85234 -4.85234,-4.85233 -4.85234,-11.1974 l 0,-111.209684 q 0,-6.345059 4.85234,-11.197396 4.85234,-4.852338 11.1974,-4.852338 l 111.20969,0 z"
     inkscape:connector-curvature="0"
     style="fill:#181818" />
  <path
     id="path3373"
     d="m 141.91805,48.83721 0,-4.031 q 0,-1.688 -1.219,-2.859 -1.219,-1.171 -2.813,-1.172 l -7.969,0 0,4.031 7.969,0 0,4.031 -3.938,0 q -1.688,0 -2.859,1.125 -1.171,1.125 -1.172,2.813 l 0,8.063 12,0 0,-4.031 -7.969,0 0,-4.031 3.938,0 q 1.688,0 2.859,-1.125 1.171,-1.125 1.172,-2.813 z m 7.969,-16.031 q 1.594,0 2.813,1.219 1.219,1.219 1.219,2.813 l 0,27.938 q 0,1.594 -1.219,2.813 -1.219,1.219 -2.813,1.219 l -27.938,0 q -1.594,0 -2.813,-1.219 -1.219,-1.219 -1.219,-2.813 l 0,-27.938 q 0,-1.594 1.219,-2.813 1.219,-1.219 2.813,-1.219 l 27.938,0 z"
     inkscape:connector-curvature="0"
     style="fill:#181818" />
  <path
     id="path3384"
     d="m -153.74753,7.3175637 q -1.313,0 -2.156,-0.891 -0.843,-0.891 -0.844,-2.109 -10e-4,-1.218 0.844,-2.109 0.845,-0.891 2.156,-0.891 1.311,0 2.156,0.891 0.845,0.891 0.844,2.109 -10e-4,1.218 -0.844,2.109 -0.843,0.891 -2.156,0.891 z m 35.344,-3.656 q 0,5.344 -3.563,9.2810003 -3.563,3.937 -8.813,4.594 l 0,7.781 6,0 0,3.938 -31.969,0 0,-9.938 -1.969,0 0,-8.063 q 0,-0.844 0.563,-1.4060003 0.563,-0.562 1.406,-0.563 l 6,0 q 0.844,0 1.406,0.563 0.562,0.5630003 0.563,1.4060003 l 0,8.063 -1.969,0 0,6 16.031,0 0,-7.875 q -5.063,-0.844 -8.391,-4.734 -3.328,-3.8900003 -3.328,-9.0470003 0,-5.813 4.125,-9.938 4.125,-4.1249997 9.938,-4.1249997 5.813,0 9.891,4.1249997 4.078,4.125 4.078,9.938 z"
     inkscape:connector-curvature="0"
     style="fill:#181818" />
  <path
     id="path3395"
     d="m -28.323293,103.15306 0,7.781 12,0 0,3.938 -27.938,0 0,-3.938 12,0 0,-7.875 q -5.063,-0.844 -8.391,-4.733996 -3.328,-3.89 -3.328,-9.047 0,-5.813 4.125,-9.938 4.125,-4.125 9.938,-4.125 5.813,0 9.891,4.125 4.078,4.125 4.078,9.938 0,5.344 -3.563,9.281 -3.563,3.936996 -8.813,4.593996 z"
     inkscape:connector-curvature="0"
     style="fill:#181818" />
  <path
     id="path3417"
     d="m 77.914457,145.12959 q -1.688,0 -2.859,-1.172 -1.171,-1.172 -1.172,-2.859 -0.001,-1.687 1.172,-2.813 1.173,-1.126 2.859,-1.125 1.686,10e-4 2.859,1.125 1.173,1.124 1.172,2.813 -0.001,1.689 -1.172,2.859 -1.171,1.17 -2.859,1.172 z m -18,0 q -1.688,0 -2.859,-1.172 -1.171,-1.172 -1.172,-2.859 -10e-4,-1.687 1.172,-2.813 1.173,-1.126 2.859,-1.125 1.686,10e-4 2.859,1.125 1.173,1.124 1.172,2.813 -10e-4,1.689 -1.172,2.859 -1.171,1.17 -2.859,1.172 z m 21,31.969 -6,0 0,-12 -6,0 5.063,-15.188 q 1.031,-2.813 3.844,-2.813 l 0.188,0 q 2.813,0 3.844,2.813 l 5.063,15.188 -6,0 0,12 z m -25.031,0 0,-15 -3,0 0,-10.969 q 0,-1.594 1.219,-2.813 1.219,-1.219 2.813,-1.219 l 6,0 q 1.594,0 2.813,1.219 1.219,1.219 1.219,2.813 l 0,10.969 -3,0 0,15 -8.063,0 z"
     inkscape:connector-curvature="0"
     style="fill:#181818" />
  <path
     id="path3428"
     d="m 129.14072,177.65553 q 6.563,0 11.297,-4.734 4.734,-4.734 4.734,-11.297 0,-6.563 -4.734,-11.297 -4.734,-4.734 -11.297,-4.734 -6.563,0 -11.297,4.734 -4.734,4.734 -4.734,11.297 0,6.563 4.734,11.297 4.734,4.734 11.297,4.734 z m 0,-36 q 8.25,0 14.109,5.859 5.859,5.859 5.859,14.109 0,8.25 -5.859,14.109 -5.859,5.859 -14.109,5.859 -8.25,0 -14.109,-5.859 -5.859,-5.859 -5.859,-14.109 0,-8.25 5.859,-14.109 5.859,-5.859 14.109,-5.859 z m 8.438,11.532 q 3.563,3.563 3.563,8.438 0,4.875 -3.469,8.438 -3.469,3.563 -8.438,3.563 -4.969,0 -8.531,-3.563 l 8.438,-8.438 0,-12 q 4.875,0 8.438,3.563 z"
     inkscape:connector-curvature="0"
     style="fill:#181818" />
</svg>
