<?xml version="1.0" encoding="utf-8"?>
<!-- Generated by IcoMoon.io -->
<!DOCTYPE svg PUBLIC "-//W3C//DTD SVG 1.1//EN" "http://www.w3.org/Graphics/SVG/1.1/DTD/svg11.dtd">
<svg version="1.1" xmlns="http://www.w3.org/2000/svg" xmlns:xlink="http://www.w3.org/1999/xlink" width="48" height="48" viewBox="0 0 48 48">
<path fill="#181818" d="M24 31.969q3.281 0 5.625-2.344t2.344-5.625-2.344-5.625-5.625-2.344-5.625 2.344-2.344 5.625 2.344 5.625 5.625 2.344zM4.594 35.156q0-3.563 2.109-6.797t5.578-4.359l-1.688-0.844q-2.813-1.688-4.406-4.453t-1.594-5.859q6-3.469 12 0 0.844 0.375 1.594 1.031-0.188-1.313-0.188-1.875 0-3.281 1.641-6.047t4.359-4.359q2.719 1.594 4.359 4.359t1.641 6.047q0 0.563-0.188 1.875 0.75-0.656 1.594-1.031 6-3.469 12 0 0 3.094-1.594 5.859t-4.406 4.453q-0.188 0.094-0.516 0.281t-0.609 0.328-0.563 0.234q0.281 0.094 0.563 0.234t0.609 0.328 0.516 0.281q2.813 1.688 4.406 4.453t1.594 5.859q-6 3.469-12 0-0.844-0.375-1.594-1.031 0.188 1.313 0.188 1.875 0 3.281-1.641 6.047t-4.359 4.359q-2.719-1.594-4.359-4.359t-1.641-6.047q0-0.563 0.188-1.875-0.75 0.656-1.594 1.031-6 3.469-12 0z"></path>
</svg>
