<?xml version="1.0" encoding="utf-8"?>
<!-- Generated by IcoMoon.io -->
<!DOCTYPE svg PUBLIC "-//W3C//DTD SVG 1.1//EN" "http://www.w3.org/Graphics/SVG/1.1/DTD/svg11.dtd">
<svg version="1.1" xmlns="http://www.w3.org/2000/svg" xmlns:xlink="http://www.w3.org/1999/xlink" width="48" height="48" viewBox="0 0 48 48">
<path fill="#181818" d="M34.031 25.969q0 1.688-1.219 2.859t-2.813 1.172h-7.969v-4.031h7.969v-3.938h-4.031v-4.031h4.031v-4.031h-7.969v-3.938h7.969q1.688 0 2.859 1.125t1.172 2.813v3q0 1.219-0.891 2.109t-2.109 0.891q1.219 0 2.109 0.891t0.891 2.109v3zM6 10.031v31.969h31.969v4.031h-31.969q-1.594 0-2.813-1.219t-1.219-2.813v-31.969h4.031zM42 34.031v-28.031h-28.031v28.031h28.031zM42 1.969q1.594 0 2.813 1.219t1.219 2.813v28.031q0 1.594-1.219 2.766t-2.813 1.172h-28.031q-1.594 0-2.766-1.172t-1.172-2.766v-28.031q0-1.594 1.172-2.813t2.766-1.219h28.031z"></path>
</svg>
