<?xml version="1.0" encoding="utf-8"?>
<!-- Generated by IcoMoon.io -->
<!DOCTYPE svg PUBLIC "-//W3C//DTD SVG 1.1//EN" "http://www.w3.org/Graphics/SVG/1.1/DTD/svg11.dtd">
<svg version="1.1" xmlns="http://www.w3.org/2000/svg" xmlns:xlink="http://www.w3.org/1999/xlink" width="48" height="48" viewBox="0 0 48 48">
<path fill="#181818" d="M11.344 39.469l2.813-2.813q3.469 2.625 7.875 3.188v4.031q-5.906-0.563-10.688-4.406zM25.969 39.844q4.406-0.563 7.781-3.188l2.906 2.813q-4.781 3.844-10.688 4.406v-4.031zM36.656 33.844q2.625-3.563 3.188-7.781h4.031q-0.563 5.813-4.406 10.594zM30 24q0 2.438-1.781 4.219t-4.219 1.781-4.219-1.781-1.781-4.219 1.781-4.219 4.219-1.781 4.219 1.781 1.781 4.219zM8.156 25.969q0.563 4.406 3.188 7.781l-2.813 2.906q-3.844-4.781-4.406-10.688h4.031zM11.344 14.156q-2.625 3.469-3.188 7.875h-4.031q0.563-5.906 4.406-10.688zM39.844 22.031q-0.563-4.406-3.188-7.875l2.813-2.813q3.844 4.781 4.406 10.688h-4.031zM36.656 8.531l-2.813 2.813q-3.469-2.625-7.875-3.188v-4.031q5.906 0.563 10.688 4.406zM22.031 8.156q-4.406 0.563-7.875 3.188l-2.813-2.813q4.781-3.844 10.688-4.406v4.031z"></path>
</svg>
