<?xml version="1.0" encoding="utf-8"?>
<!-- Generated by IcoMoon.io -->
<!DOCTYPE svg PUBLIC "-//W3C//DTD SVG 1.1//EN" "http://www.w3.org/Graphics/SVG/1.1/DTD/svg11.dtd">
<svg version="1.1" xmlns="http://www.w3.org/2000/svg" xmlns:xlink="http://www.w3.org/1999/xlink" width="48" height="48" viewBox="0 0 48 48">
<path fill="#181818" d="M33.281 30.281l9.656 9.75-2.906 2.906-9.75-9.656q-3.75 2.719-8.25 2.719-5.813 0-9.938-4.125l-4.125 4.125v-12h12l-5.063 5.063q2.906 2.906 7.125 2.906 3.656 0 6.328-2.25t3.422-5.719h4.031q-0.375 3.375-2.531 6.281zM22.031 12q-3.656 0-6.375 2.25t-3.469 5.719h-4.031q0.75-5.063 4.688-8.531t9.188-3.469q5.719 0 9.844 4.125l4.125-4.125v12h-12l5.063-5.063q-2.906-2.906-7.031-2.906z"></path>
</svg>
