<?xml version="1.0" encoding="utf-8"?>
<!-- Generated by IcoMoon.io -->
<!DOCTYPE svg PUBLIC "-//W3C//DTD SVG 1.1//EN" "http://www.w3.org/Graphics/SVG/1.1/DTD/svg11.dtd">
<svg version="1.1" xmlns="http://www.w3.org/2000/svg" xmlns:xlink="http://www.w3.org/1999/xlink" width="48" height="48" viewBox="0 0 48 48">
<path fill="#181818" d="M18 25.969q0-2.438 1.781-4.219t4.219-1.781 4.219 1.781 1.781 4.219-1.781 4.219-4.219 1.781-4.219-1.781-1.781-4.219zM40.031 39.188l-7.688-7.688q1.688-2.625 1.688-5.531 0-4.125-2.953-7.031t-7.078-2.906-7.078 2.906-2.953 7.031 2.953 7.078 7.078 2.953q2.906 0 5.531-1.688l8.813 8.906q-1.031 0.75-2.344 0.75h-24q-1.594 0-2.813-1.172t-1.219-2.766l0.094-32.063q0-1.594 1.172-2.766t2.766-1.172h16.031l12 12v23.156z"></path>
</svg>
