<?xml version="1.0" encoding="utf-8"?>
<!-- Generated by IcoMoon.io -->
<!DOCTYPE svg PUBLIC "-//W3C//DTD SVG 1.1//EN" "http://www.w3.org/Graphics/SVG/1.1/DTD/svg11.dtd">
<svg version="1.1" xmlns="http://www.w3.org/2000/svg" xmlns:xlink="http://www.w3.org/1999/xlink" width="48" height="48" viewBox="0 0 48 48">
<path fill="#181818" d="M29.813 43.969h-0.281q-4.313-1.125-7.406-4.219-4.313-4.313-4.313-10.406 0-2.438 1.781-4.172t4.313-1.734 4.359 1.734 1.828 4.172q0 1.594 1.172 2.719t2.953 1.125 3-1.125 1.219-2.719q0-5.625-4.266-9.656t-10.266-4.031q-4.313 0-7.875 2.203t-5.344 5.859q-1.125 2.344-1.125 5.625 0 3.75 1.313 7.219 0.281 0.938-0.656 1.219t-1.219-0.563q-1.5-4.219-1.5-7.875t1.406-6.469q1.969-4.219 6.047-6.75t8.953-2.531q6.844 0 11.672 4.641t4.828 11.109q0 2.438-1.828 4.125t-4.359 1.688-4.313-1.688-1.781-4.125q0-1.594-1.219-2.766t-3-1.172-2.953 1.172-1.172 2.766q0 5.25 3.75 9 2.625 2.625 6.563 3.656 0.844 0.094 0.656 1.219-0.188 0.75-0.938 0.75zM24.844 29.344q0 3.469 2.578 6t6.422 2.531q0.188 0 0.844-0.094t1.078-0.094 0.844 0.141 0.516 0.609q0.188 1.031-0.844 1.219-1.125 0.188-2.438 0.188-3.75 0-6.188-1.781-4.781-3.281-4.781-8.719 0-1.031 1.031-1.031 0.938 0 0.938 1.031zM19.5 43.594q-0.375 0-0.656-0.281-2.531-2.531-4.031-5.344-2.156-3.75-2.156-8.625 0-4.406 3.328-7.594t8.016-3.188 8.016 3.188 3.328 7.594q0 0.938-1.031 0.938t-1.031-0.938q0-3.656-2.719-6.234t-6.563-2.578-6.563 2.578-2.719 6.234q0 4.5 1.781 7.688 1.219 2.156 3.75 4.875 0.75 0.656 0 1.406-0.281 0.281-0.75 0.281zM7.031 19.406q-0.656 0-0.938-0.469t0.094-1.031q3-4.313 7.5-6.563 4.688-2.438 10.313-2.438t10.313 2.438q4.594 2.25 7.5 6.469 0.563 0.938-0.281 1.406-0.938 0.563-1.406-0.281-2.531-3.656-6.75-5.813-4.313-2.156-9.375-2.203t-9.375 2.203q-4.219 2.156-6.844 5.906-0.281 0.375-0.75 0.375zM35.625 8.906q-0.375 0-0.469-0.094-5.531-2.813-11.156-2.813-6.094 0-11.156 2.813-0.563 0.281-0.984-0.047t-0.422-0.844 0.469-0.891q5.438-3 12.094-3 6.094 0 12.094 3 0.656 0.375 0.469 1.125t-0.938 0.75z"></path>
</svg>
