<?xml version="1.0" encoding="utf-8"?>
<!-- Generated by IcoMoon.io -->
<!DOCTYPE svg PUBLIC "-//W3C//DTD SVG 1.1//EN" "http://www.w3.org/Graphics/SVG/1.1/DTD/svg11.dtd">
<svg version="1.1" xmlns="http://www.w3.org/2000/svg" xmlns:xlink="http://www.w3.org/1999/xlink" width="48" height="48" viewBox="0 0 48 48">
<path fill="#181818" d="M22.031 46.031v-12h3.938v12h-3.938zM11.25 33.938l4.313-4.313 2.813 2.813-4.313 4.313zM29.625 32.438l2.813-2.813 4.313 4.313-2.813 2.813zM24 18q2.438 0 4.219 1.781t1.781 4.219-1.781 4.219-4.219 1.781-4.219-1.781-1.781-4.219 1.781-4.219 4.219-1.781zM34.031 22.031h12v3.938h-12v-3.938zM36.75 14.063l-4.313 4.313-2.813-2.813 4.313-4.313zM25.969 1.969v12h-3.938v-12h3.938zM18.375 15.563l-2.813 2.813-4.313-4.313 2.813-2.813zM13.969 22.031v3.938h-12v-3.938h12z"></path>
</svg>
