<?xml version="1.0" encoding="utf-8"?>
<!-- Generated by IcoMoon.io -->
<!DOCTYPE svg PUBLIC "-//W3C//DTD SVG 1.1//EN" "http://www.w3.org/Graphics/SVG/1.1/DTD/svg11.dtd">
<svg version="1.1" xmlns="http://www.w3.org/2000/svg" xmlns:xlink="http://www.w3.org/1999/xlink" width="48" height="48" viewBox="0 0 48 48">
<path fill="#181818" d="M37.969 34.031v-2.063q0-1.781-2.766-2.859t-5.203-1.078-5.203 1.078-2.766 2.859v2.063h15.938zM30 18q-1.594 0-2.813 1.219t-1.219 2.813 1.219 2.766 2.813 1.172 2.813-1.172 1.219-2.766-1.219-2.813-2.813-1.219zM40.031 12q1.594 0 2.766 1.219t1.172 2.813v19.969q0 1.594-1.172 2.813t-2.766 1.219h-32.063q-1.594 0-2.766-1.219t-1.172-2.813v-24q0-1.594 1.172-2.813t2.766-1.219h12l4.031 4.031h16.031z"></path>
</svg>
