<?xml version="1.0" encoding="utf-8"?>
<!-- Generated by IcoMoon.io -->
<!DOCTYPE svg PUBLIC "-//W3C//DTD SVG 1.1//EN" "http://www.w3.org/Graphics/SVG/1.1/DTD/svg11.dtd">
<svg version="1.1" xmlns="http://www.w3.org/2000/svg" xmlns:xlink="http://www.w3.org/1999/xlink" width="48" height="48" viewBox="0 0 48 48">
<path fill="#181818" d="M13.969 10.031h28.031v3.938h-28.031v-3.938zM13.969 25.969v-3.938h28.031v3.938h-28.031zM13.969 37.969v-3.938h28.031v3.938h-28.031zM7.969 33.375q1.125 0 1.922 0.75t0.797 1.875-0.797 1.875-1.922 0.75-1.875-0.75-0.75-1.875 0.75-1.875 1.875-0.75zM7.969 9q1.219 0 2.109 0.844t0.891 2.156-0.891 2.156-2.109 0.844-2.109-0.844-0.891-2.156 0.891-2.156 2.109-0.844zM7.969 21q1.219 0 2.109 0.844t0.891 2.156-0.891 2.156-2.109 0.844-2.109-0.844-0.891-2.156 0.891-2.156 2.109-0.844z"></path>
</svg>
