<?xml version="1.0" encoding="utf-8"?>
<!-- Generated by IcoMoon.io -->
<!DOCTYPE svg PUBLIC "-//W3C//DTD SVG 1.1//EN" "http://www.w3.org/Graphics/SVG/1.1/DTD/svg11.dtd">
<svg version="1.1" xmlns="http://www.w3.org/2000/svg" xmlns:xlink="http://www.w3.org/1999/xlink" width="48" height="48" viewBox="0 0 48 48">
<path fill="#181818" d="M21.375 25.5h5.25l-2.625-7.688zM27.469 28.031h-7.031l-1.406 3.938h-3.281l6.844-18h2.813l6.75 18h-3.188zM37.969 10.031h4.031v-4.031h-4.031v4.031zM42 42v-4.031h-4.031v4.031h4.031zM34.031 37.969v-3.938h3.938v-20.063h-3.938v-3.938h-20.063v3.938h-3.938v20.063h3.938v3.938h20.063zM10.031 42v-4.031h-4.031v4.031h4.031zM6 6v4.031h4.031v-4.031h-4.031zM46.031 13.969h-4.031v20.063h4.031v12h-12v-4.031h-20.063v4.031h-12v-12h4.031v-20.063h-4.031v-12h12v4.031h20.063v-4.031h12v12z"></path>
</svg>
