<?xml version="1.0" encoding="utf-8"?>
<!-- Generated by IcoMoon.io -->
<!DOCTYPE svg PUBLIC "-//W3C//DTD SVG 1.1//EN" "http://www.w3.org/Graphics/SVG/1.1/DTD/svg11.dtd">
<svg version="1.1" xmlns="http://www.w3.org/2000/svg" xmlns:xlink="http://www.w3.org/1999/xlink" width="48" height="48" viewBox="0 0 48 48">
<path fill="#181818" d="M0 40.031h48v7.969h-48v-7.969zM37.969 22.969q4.031 4.406 4.031 7.031 0 1.594-1.219 2.813t-2.813 1.219-2.766-1.219-1.172-2.813q0-1.125 0.984-2.906t1.922-2.906zM10.406 19.969h19.219l-9.656-9.563zM33.094 17.906q0.938 0.938 0.938 2.156t-0.938 2.063l-10.969 10.969q-0.938 0.938-2.156 0.938-1.125 0-2.063-0.938l-11.063-10.969q-0.938-0.844-0.938-2.063t0.938-2.156l10.313-10.313-4.781-4.781 2.906-2.813z"></path>
</svg>
