<?xml version="1.0" encoding="utf-8"?>
<!-- Generated by IcoMoon.io -->
<!DOCTYPE svg PUBLIC "-//W3C//DTD SVG 1.1//EN" "http://www.w3.org/Graphics/SVG/1.1/DTD/svg11.dtd">
<svg version="1.1" xmlns="http://www.w3.org/2000/svg" xmlns:xlink="http://www.w3.org/1999/xlink" width="48" height="48" viewBox="0 0 48 48">
<path fill="#181818" d="M26.438 30.375q0 0.656 0.938 0.656 0.469 0 0.656-0.188l0.375-0.469q0.188-0.375 0.188-0.563v-4.031q-0.188-0.375-0.188-0.563t-0.422-0.422-0.609-0.234q-0.281 0-0.563 0.281l-0.375 0.375q-0.281 0.375-0.281 0.563v4.031q0.281 0.375 0.281 0.563zM30.188 28.406q0 1.219-0.188 1.594l-0.563 1.219q-0.656 0.563-1.031 0.563-0.188 0-0.609 0.094t-0.609 0.094q-0.844 0-1.219-0.188-0.188-0.094-0.469-0.281t-0.469-0.281q-0.844-0.469-0.844-2.813v-1.406q0-1.219 0.188-1.594l0.656-1.219q0.563-0.563 0.938-0.563 0.188 0 0.609-0.094t0.609-0.094q0.844 0 1.219 0.188 0.188 0.094 0.516 0.281t0.516 0.281 0.563 1.219q0.188 0.563 0.188 1.594v1.406zM21.844 31.969h-1.875v-6.563l-1.969 0.563v-1.406l3.563-1.125h0.281v8.531zM7.969 25.969q0-6.563 4.688-11.25t11.344-4.688v-8.063l10.031 10.031-10.031 10.031v-8.063q-4.875 0-8.438 3.516t-3.563 8.484 3.563 8.484 8.438 3.516 8.438-3.516 3.563-8.484h4.031q0 6.656-4.734 11.344t-11.297 4.688-11.297-4.688-4.734-11.344z"></path>
</svg>
