<?xml version="1.0" encoding="utf-8"?>
<!-- Generated by IcoMoon.io -->
<!DOCTYPE svg PUBLIC "-//W3C//DTD SVG 1.1//EN" "http://www.w3.org/Graphics/SVG/1.1/DTD/svg11.dtd">
<svg version="1.1" xmlns="http://www.w3.org/2000/svg" xmlns:xlink="http://www.w3.org/1999/xlink" width="48" height="48" viewBox="0 0 48 48">
<path fill="#181818" d="M27.75 37.125q1.313 0 2.625-1.734t1.688-5.297q-2.813 0.75-4.313 2.531t-1.5 3q0 0.656 0.469 1.078t1.031 0.422zM9.188 13.781l-3.469-3.375q0.938-1.125 1.688-1.875 2.531-2.531 5.438-2.531 1.781 0 3.422 1.406t1.641 4.313q0 2.813-2.625 6.563-2.625 3.656-3.656 7.031-0.563 1.594-0.328 2.719t0.984 1.125q0.844 0 2.25-1.688 2.063-2.063 4.594-5.438 4.5-5.625 9.844-5.625 3.938 0 5.859 2.578t2.203 5.766h4.969v4.969h-4.875q-0.563 6.469-3.469 9.375t-6 2.906q-2.625 0-4.5-1.828t-1.875-4.359q0-3.094 2.813-6.469t7.969-4.313q-0.094-0.75-0.141-1.031t-0.281-0.891-0.563-0.891-0.984-0.516-1.594-0.234q-2.625 0-8.156 6.844-1.594 1.969-2.203 2.672t-1.734 1.641-2.156 1.219q-3.281 1.031-5.625-1.219t-2.344-5.625q0-1.406 0.516-3.094t1.359-3.281 1.594-2.859 1.453-2.297 0.797-1.125q1.594-2.625 0.563-3-0.656-0.281-3.375 2.438z"></path>
</svg>
