<?xml version="1.0" encoding="utf-8"?>
<!-- Generated by IcoMoon.io -->
<!DOCTYPE svg PUBLIC "-//W3C//DTD SVG 1.1//EN" "http://www.w3.org/Graphics/SVG/1.1/DTD/svg11.dtd">
<svg version="1.1" xmlns="http://www.w3.org/2000/svg" xmlns:xlink="http://www.w3.org/1999/xlink" width="48" height="48" viewBox="0 0 48 48">
<path fill="#181818" d="M47.906 18.188q0.094 0.094 0.094 0.234t-0.094 0.234l-2.344 3q-0.188 0.188-0.375 0.188l-1.406-0.281-0.656 2.063q-0.188 0.375-0.609 0.375t-0.609-0.375l-1.313-2.813-2.156-0.469-4.406 10.5 1.594 12.75q0 0.375-0.375 0.375h-1.875q-0.188 0-0.375-0.281l-1.875-7.594-0.938-1.594-2.344 9.188q0 0.281-0.375 0.281h-1.969q-0.375 0-0.375-0.375l2.156-12.656h-12.656l-3.281 6.188 0.75 6.375q0.188 0.469-0.375 0.469h-1.875q-0.281 0-0.375-0.188l-2.625-9.563-3.188 3.656 0.563 5.625q0.188 0.469-0.375 0.469h-2.063q-0.375 0-0.375-0.188l-1.219-5.25 1.969-7.688v-13.5q-2.156-0.844-2.156-2.813h25.688q4.5 0.094 8.906-3.094-0.75-2.063 0.563-3.375 2.625 1.875 3.375 2.344 0.656 0.375 1.078-0.141t0.234-1.172q-0.844-2.625-4.219-3.938-0.094 0-0.281-0.094-1.125-0.281-0.938-0.75 0-0.281 0.375-0.281 2.719 0.375 4.641 2.109t2.578 3.328l0.375 0.281q0.281 0.375 0.609 0.75t0.563 1.078 0.141 1.453q0 0.469 0.188 0.656z"></path>
</svg>
