<?xml version="1.0" encoding="utf-8"?>
<!-- Generated by IcoMoon.io -->
<!DOCTYPE svg PUBLIC "-//W3C//DTD SVG 1.1//EN" "http://www.w3.org/Graphics/SVG/1.1/DTD/svg11.dtd">
<svg version="1.1" xmlns="http://www.w3.org/2000/svg" xmlns:xlink="http://www.w3.org/1999/xlink" width="48" height="48" viewBox="0 0 48 48">
<path fill="#181818" d="M32.531 35.063l-19.594-19.594q-2.906 3.844-2.906 8.531 0 5.813 4.078 9.891t9.891 4.078q4.688 0 8.531-2.906zM6 8.531l2.531-2.531 33.469 33.469-2.531 2.531-4.125-4.125q-4.219 3.469-9.375 4.031v4.125h-3.938v-4.125q-6.281-0.656-10.781-5.156t-5.156-10.781h-4.125v-3.938h4.125q0.563-5.156 4.031-9.375zM41.906 22.031h4.125v3.938h-4.125q-0.469 3.656-1.969 6.375l-3-3q1.031-2.531 1.031-5.344 0-5.813-4.078-9.891t-9.891-4.078q-2.813 0-5.344 1.031l-3-3q2.906-1.5 6.375-1.969v-4.125h3.938v4.125q6.281 0.656 10.781 5.156t5.156 10.781z"></path>
</svg>
