<?xml version="1.0" encoding="utf-8"?>
<!-- Generated by IcoMoon.io -->
<!DOCTYPE svg PUBLIC "-//W3C//DTD SVG 1.1//EN" "http://www.w3.org/Graphics/SVG/1.1/DTD/svg11.dtd">
<svg version="1.1" xmlns="http://www.w3.org/2000/svg" xmlns:xlink="http://www.w3.org/1999/xlink" width="48" height="48" viewBox="0 0 48 48">
<path fill="#181818" d="M24 37.969q5.813 0 9.891-4.078t4.078-9.891-4.078-9.891-9.891-4.078-9.891 4.078-4.078 9.891 4.078 9.891 9.891 4.078zM41.906 22.031h4.125v3.938h-4.125q-0.656 6.281-5.156 10.781t-10.781 5.156v4.125h-3.938v-4.125q-6.281-0.656-10.781-5.156t-5.156-10.781h-4.125v-3.938h4.125q0.656-6.281 5.156-10.781t10.781-5.156v-4.125h3.938v4.125q6.281 0.656 10.781 5.156t5.156 10.781z"></path>
</svg>
