<?xml version="1.0" encoding="utf-8"?>
<!-- Generated by IcoMoon.io -->
<!DOCTYPE svg PUBLIC "-//W3C//DTD SVG 1.1//EN" "http://www.w3.org/Graphics/SVG/1.1/DTD/svg11.dtd">
<svg version="1.1" xmlns="http://www.w3.org/2000/svg" xmlns:xlink="http://www.w3.org/1999/xlink" width="48" height="48" viewBox="0 0 48 48">
<path fill="#181818" d="M37.969 22.031v-12h-27.938v12h3.938v3.938h4.031v4.031h4.031v-4.031h3.938v4.031h4.031v-4.031h4.031v-3.938h3.938zM34.031 36v-4.031h-4.031v4.031h4.031zM25.969 36v-4.031h-3.938v4.031h3.938zM18 36v-4.031h-4.031v4.031h4.031zM37.969 6q1.594 0 2.813 1.219t1.219 2.813v27.938q0 1.594-1.219 2.813t-2.813 1.219h-27.938q-1.594 0-2.813-1.219t-1.219-2.813v-27.938q0-1.594 1.219-2.813t2.813-1.219h27.938zM13.969 18h4.031v4.031h-4.031v-4.031zM30 18h4.031v4.031h-4.031v-4.031zM22.031 18h3.938v4.031h4.031v3.938h-4.031v-3.938h-3.938v3.938h-4.031v-3.938h4.031v-4.031zM34.031 25.969v4.031h3.938v-4.031h-3.938zM13.969 25.969h-3.938v4.031h3.938v-4.031z"></path>
</svg>
