<?xml version="1.0" encoding="utf-8"?>
<!-- Generated by IcoMoon.io -->
<!DOCTYPE svg PUBLIC "-//W3C//DTD SVG 1.1//EN" "http://www.w3.org/Graphics/SVG/1.1/DTD/svg11.dtd">
<svg version="1.1" xmlns="http://www.w3.org/2000/svg" xmlns:xlink="http://www.w3.org/1999/xlink" width="48" height="48" viewBox="0 0 48 48">
<path fill="#181818" d="M19.969 7.969q1.594 0 2.813 1.219t1.219 2.813-1.219 2.813-2.813 1.219-2.766-1.219-1.172-2.813 1.172-2.813 2.766-1.219zM28.031 16.031q1.594 0 2.766 1.172t1.172 2.766-1.172 2.813-2.766 1.219-2.813-1.219-1.219-2.813 1.219-2.766 2.813-1.172zM36 24q1.594 0 2.813 1.219t1.219 2.813-1.219 2.766-2.813 1.172-2.813-1.172-1.219-2.766 1.219-2.813 2.813-1.219zM28.031 31.969q1.594 0 2.766 1.219t1.172 2.813-1.172 2.813-2.766 1.219-2.813-1.219-1.219-2.813 1.219-2.813 2.813-1.219zM36 16.031q-1.594 0-2.813-1.219t-1.219-2.813 1.219-2.813 2.813-1.219 2.813 1.219 1.219 2.813-1.219 2.813-2.813 1.219zM12 31.969q1.594 0 2.813 1.219t1.219 2.813-1.219 2.813-2.813 1.219-2.813-1.219-1.219-2.813 1.219-2.813 2.813-1.219zM12 16.031q1.594 0 2.813 1.172t1.219 2.766-1.219 2.813-2.813 1.219-2.813-1.219-1.219-2.813 1.219-2.766 2.813-1.172zM19.969 24q1.594 0 2.813 1.219t1.219 2.813-1.219 2.766-2.813 1.172-2.766-1.172-1.172-2.766 1.172-2.813 2.766-1.219z"></path>
</svg>
