<?xml version="1.0" encoding="utf-8"?>
<!-- Generated by IcoMoon.io -->
<!DOCTYPE svg PUBLIC "-//W3C//DTD SVG 1.1//EN" "http://www.w3.org/Graphics/SVG/1.1/DTD/svg11.dtd">
<svg version="1.1" xmlns="http://www.w3.org/2000/svg" xmlns:xlink="http://www.w3.org/1999/xlink" width="48" height="48" viewBox="0 0 48 48">
<path fill="#181818" d="M40.031 16.031v-8.063h-8.063v8.063h8.063zM40.031 28.031v-8.063h-8.063v8.063h8.063zM40.031 40.031v-8.063h-8.063v8.063h8.063zM28.031 16.031v-8.063h-8.063v8.063h8.063zM28.031 28.031v-8.063h-8.063v8.063h8.063zM28.031 40.031v-8.063h-8.063v8.063h8.063zM16.031 16.031v-8.063h-8.063v8.063h8.063zM16.031 28.031v-8.063h-8.063v8.063h8.063zM16.031 40.031v-8.063h-8.063v8.063h8.063zM40.031 4.031q1.594 0 2.766 1.172t1.172 2.766v32.063q0 1.594-1.172 2.766t-2.766 1.172h-32.063q-1.594 0-2.766-1.172t-1.172-2.766v-32.063q0-1.594 1.172-2.766t2.766-1.172h32.063z"></path>
</svg>
