<?xml version="1.0" encoding="utf-8"?>
<!-- Generated by IcoMoon.io -->
<!DOCTYPE svg PUBLIC "-//W3C//DTD SVG 1.1//EN" "http://www.w3.org/Graphics/SVG/1.1/DTD/svg11.dtd">
<svg version="1.1" xmlns="http://www.w3.org/2000/svg" xmlns:xlink="http://www.w3.org/1999/xlink" width="48" height="48" viewBox="0 0 48 48">
<path fill="#181818" d="M31.969 40.031h2.906l-2.906-2.906v2.906zM28.031 40.031v-6.938l-1.125-1.125h-6.938v8.063h8.063zM16.031 28.031v-6.938l-1.125-1.125h-6.938v8.063h8.063zM16.031 40.031v-8.063h-8.063v8.063h8.063zM7.969 13.125v2.906h2.906zM19.969 25.125v2.906h2.906zM2.531 2.531l42.938 42.938-2.531 2.531-4.031-4.031h-30.938q-1.594 0-2.766-1.172t-1.172-2.766v-30.938l-4.031-4.031zM31.969 7.969v8.063h8.063v-8.063h-8.063zM16.031 7.969h-2.906l-4.031-3.938h30.938q1.594 0 2.766 1.172t1.172 2.766v30.938l-3.938-4.031v-2.906h-2.906l-4.031-3.938h6.938v-8.063h-8.063v6.938l-3.938-4.031v-2.906h-2.906l-4.031-3.938h6.938v-8.063h-8.063v6.938l-3.938-4.031v-2.906z"></path>
</svg>
