<?xml version="1.0" encoding="utf-8"?>
<!-- Generated by IcoMoon.io -->
<!DOCTYPE svg PUBLIC "-//W3C//DTD SVG 1.1//EN" "http://www.w3.org/Graphics/SVG/1.1/DTD/svg11.dtd">
<svg version="1.1" xmlns="http://www.w3.org/2000/svg" xmlns:xlink="http://www.w3.org/1999/xlink" width="48" height="48" viewBox="0 0 48 48">
<path fill="#181818" d="M31.969 25.969q2.625 0 5.719 0.75t5.719 2.438 2.625 3.844v4.969h-12v-4.969q0-4.125-3.938-6.938 0.656-0.094 1.875-0.094zM16.031 25.969q2.625 0 5.719 0.75t5.672 2.438 2.578 3.844v4.969h-28.031v-4.969q0-2.156 2.625-3.844t5.719-2.438 5.719-0.75zM16.031 22.031q-2.438 0-4.219-1.781t-1.781-4.219 1.781-4.219 4.219-1.781 4.172 1.781 1.734 4.219-1.734 4.219-4.172 1.781zM31.969 22.031q-2.438 0-4.219-1.781t-1.781-4.219 1.781-4.219 4.219-1.781 4.219 1.781 1.781 4.219-1.781 4.219-4.219 1.781z"></path>
</svg>
