<?xml version="1.0" encoding="utf-8"?>
<!-- Generated by IcoMoon.io -->
<!DOCTYPE svg PUBLIC "-//W3C//DTD SVG 1.1//EN" "http://www.w3.org/Graphics/SVG/1.1/DTD/svg11.dtd">
<svg version="1.1" xmlns="http://www.w3.org/2000/svg" xmlns:xlink="http://www.w3.org/1999/xlink" width="48" height="48" viewBox="0 0 48 48">
<path fill="#181818" d="M31.969 34.969q2.063 0 3.563-1.453t1.5-3.516-1.5-3.516-3.563-1.453-3.516 1.453-1.453 3.516 1.453 3.516 3.516 1.453zM19.031 16.031q0 2.063 1.453 3.516t3.516 1.453 3.516-1.453 1.453-3.516-1.453-3.563-3.516-1.5-3.516 1.5-1.453 3.563zM16.031 34.969q2.063 0 3.516-1.453t1.453-3.516-1.453-3.516-3.516-1.453-3.563 1.453-1.5 3.516 1.5 3.516 3.563 1.453zM24 4.031q8.25 0 14.109 5.859t5.859 14.109-5.859 14.109-14.109 5.859-14.109-5.859-5.859-14.109 5.859-14.109 14.109-5.859z"></path>
</svg>
