<?xml version="1.0" encoding="utf-8"?>
<!-- Generated by IcoMoon.io -->
<!DOCTYPE svg PUBLIC "-//W3C//DTD SVG 1.1//EN" "http://www.w3.org/Graphics/SVG/1.1/DTD/svg11.dtd">
<svg version="1.1" xmlns="http://www.w3.org/2000/svg" xmlns:xlink="http://www.w3.org/1999/xlink" width="48" height="48" viewBox="0 0 48 48">
<path fill="#181818" d="M25.969 25.969q3.75 0 7.875 1.641t4.125 4.359v4.031h-24v-4.031q0-2.719 4.125-4.359t7.875-1.641zM39.281 26.344q3.469 0.563 6.094 2.016t2.625 3.609v4.031h-6v-4.031q0-3.188-2.719-5.625zM25.969 22.031q-2.438 0-4.219-1.781t-1.781-4.219 1.781-4.219 4.219-1.781 4.219 1.781 1.781 4.219-1.781 4.219-4.219 1.781zM36 22.031q-0.938 0-1.781-0.281 1.781-2.531 1.781-5.719t-1.781-5.719q0.844-0.281 1.781-0.281 2.438 0 4.219 1.781t1.781 4.219-1.781 4.219-4.219 1.781zM16.031 19.969v4.031h-6v6h-4.031v-6h-6v-4.031h6v-6h4.031v6h6z"></path>
</svg>
