<?xml version="1.0" encoding="utf-8"?>
<!-- Generated by IcoMoon.io -->
<!DOCTYPE svg PUBLIC "-//W3C//DTD SVG 1.1//EN" "http://www.w3.org/Graphics/SVG/1.1/DTD/svg11.dtd">
<svg version="1.1" xmlns="http://www.w3.org/2000/svg" xmlns:xlink="http://www.w3.org/1999/xlink" width="48" height="48" viewBox="0 0 48 48">
<path fill="#181818" d="M34.031 31.969q3.281 0 5.625-2.344t2.344-5.625-2.344-5.625-5.625-2.344-5.672 2.344-2.391 5.625 2.391 5.625 5.672 2.344zM34.031 12q4.969 0 8.484 3.516t3.516 8.484-3.516 8.484-8.484 3.516-8.484-3.516-3.516-8.484 3.516-8.484 8.484-3.516zM10.031 16.031q3.281 0 5.625 2.344t2.344 5.625-2.344 5.625-5.625 2.344-5.672-2.344-2.391-5.625 2.391-5.625 5.672-2.344z"></path>
</svg>
