<?xml version="1.0" encoding="utf-8"?>
<!-- Generated by IcoMoon.io -->
<!DOCTYPE svg PUBLIC "-//W3C//DTD SVG 1.1//EN" "http://www.w3.org/Graphics/SVG/1.1/DTD/svg11.dtd">
<svg version="1.1" xmlns="http://www.w3.org/2000/svg" xmlns:xlink="http://www.w3.org/1999/xlink" width="48" height="48" viewBox="0 0 48 48">
<path fill="#181818" d="M25.969 27v-6h-3.938v6h3.938zM25.969 18q1.219 0 2.109 0.891t0.891 2.109v6q0 1.219-0.891 2.109t-2.109 0.891h-6.938v-12h6.938zM13.031 22.031v-4.031h3v12h-3v-4.969h-4.031v4.969h-3v-12h3v4.031h4.031zM39 22.969v-1.969h-4.031v1.969h4.031zM42 22.969q0 1.875-1.781 2.813l1.781 4.219h-3l-1.781-4.031h-2.25v4.031h-3v-12h7.031q1.219 0 2.109 0.891t0.891 2.109v1.969z"></path>
</svg>
