<?xml version="1.0" encoding="utf-8"?>
<!-- Generated by IcoMoon.io -->
<!DOCTYPE svg PUBLIC "-//W3C//DTD SVG 1.1//EN" "http://www.w3.org/Graphics/SVG/1.1/DTD/svg11.dtd">
<svg version="1.1" xmlns="http://www.w3.org/2000/svg" xmlns:xlink="http://www.w3.org/1999/xlink" width="48" height="48" viewBox="0 0 48 48">
<path fill="#181818" d="M4.969 4.969q9.188 9.281 38.25 38.063l-2.25 2.156-15.188-15.188h-6.75v-6.844l-3-3v9.844h-3v-4.969h-4.031v4.969h-3v-12h3v4.031h4.031v-4.031h0.75l-10.969-10.969zM25.969 21h-0.75l-3-3h3.75q1.219 0 2.109 0.891t0.891 2.109v3.844l-3-3v-0.844zM34.969 21v1.969h4.031v-1.969h-4.031zM34.969 30h-0.75l-2.25-2.156v-9.844h7.031q1.219 0 2.109 0.891t0.891 2.109v1.969q0 2.156-1.781 2.813l1.781 4.219h-3l-1.781-4.031h-2.25v4.031z"></path>
</svg>
