<?xml version="1.0" encoding="utf-8"?>
<!-- Generated by IcoMoon.io -->
<!DOCTYPE svg PUBLIC "-//W3C//DTD SVG 1.1//EN" "http://www.w3.org/Graphics/SVG/1.1/DTD/svg11.dtd">
<svg version="1.1" xmlns="http://www.w3.org/2000/svg" xmlns:xlink="http://www.w3.org/1999/xlink" width="48" height="48" viewBox="0 0 48 48">
<path fill="#181818" d="M33.281 40.688l7.313-7.313-7.313-7.219-7.219 7.313zM28.031 22.031q-0.844 0-1.453 0.563t-0.609 1.406 0.609 1.406 1.453 0.563 1.406-0.563 0.563-1.406-0.563-1.406-1.406-0.563zM24 30q0.844 0 1.406-0.563t0.563-1.406-0.563-1.453-1.406-0.609-1.406 0.609-0.563 1.453 0.563 1.406 1.406 0.563zM19.969 25.969q0.844 0 1.453-0.563t0.609-1.406-0.609-1.406-1.453-0.563-1.406 0.563-0.563 1.406 0.563 1.406 1.406 0.563zM14.625 21.938l7.219-7.313-7.219-7.219-7.313 7.313zM24 18q-0.844 0-1.406 0.563t-0.563 1.406 0.563 1.453 1.406 0.609 1.406-0.609 0.563-1.453-0.563-1.406-1.406-0.563zM35.438 24l7.969 7.969q0.563 0.563 0.563 1.406t-0.563 1.406l-8.625 8.719q-0.563 0.563-1.406 0.563-0.938 0-1.5-0.563l-7.875-7.969-7.969 7.969q-0.563 0.563-1.406 0.563t-1.406-0.563l-8.719-8.719q-0.563-0.563-0.563-1.406t0.563-1.406l7.969-7.969-7.969-7.875q-0.563-0.563-0.563-1.453t0.563-1.453l8.719-8.625q0.563-0.563 1.406-0.563t1.406 0.563l7.969 7.969 7.875-7.969q0.563-0.563 1.453-0.563t1.453 0.563l8.625 8.625q0.563 0.563 0.563 1.453t-0.563 1.453z"></path>
</svg>
