<?xml version="1.0" encoding="utf-8"?>
<!-- Generated by IcoMoon.io -->
<!DOCTYPE svg PUBLIC "-//W3C//DTD SVG 1.1//EN" "http://www.w3.org/Graphics/SVG/1.1/DTD/svg11.dtd">
<svg version="1.1" xmlns="http://www.w3.org/2000/svg" xmlns:xlink="http://www.w3.org/1999/xlink" width="48" height="48" viewBox="0 0 48 48">
<path fill="#181818" d="M22.969 18q0-2.063 1.5-3.516t3.563-1.453 3.516 1.453 1.453 3.516-1.453 3.516-3.516 1.453-3.563-1.453-1.5-3.516zM15.281 5.25q-5.25 5.25-5.25 12.75t5.25 12.75l-2.813 2.813q-6.469-6.469-6.469-15.563t6.469-15.563zM34.031 40.031q1.594 0 2.766-1.219t1.172-2.813h4.031q0 3.281-2.344 5.625t-5.625 2.344q-1.875 0-3.281-0.656-3.844-1.969-5.531-7.125-0.656-2.063-3.375-4.125-3.844-2.813-5.719-6.281-2.156-3.844-2.156-7.781 0-5.906 4.078-9.938t9.984-4.031 9.938 4.031 4.031 9.938h-4.031q0-4.219-2.859-7.125t-7.078-2.906-7.125 2.906-2.906 7.125q0 3 1.594 5.906 1.313 2.531 4.688 5.063 3.75 2.813 4.781 6 1.219 3.563 3.375 4.688 0.75 0.375 1.594 0.375z"></path>
</svg>
