<?xml version="1.0" encoding="utf-8"?>
<!-- Generated by IcoMoon.io -->
<!DOCTYPE svg PUBLIC "-//W3C//DTD SVG 1.1//EN" "http://www.w3.org/Graphics/SVG/1.1/DTD/svg11.dtd">
<svg version="1.1" xmlns="http://www.w3.org/2000/svg" xmlns:xlink="http://www.w3.org/1999/xlink" width="48" height="48" viewBox="0 0 48 48">
<path fill="#181818" d="M30.094 22.5q1.875-1.875 1.875-4.5 0-3.281-2.344-5.625t-5.625-2.344-5.625 2.344-2.344 5.625h3.938q0-1.594 1.219-2.813t2.813-1.219 2.813 1.219 1.219 2.813-1.219 2.813l-2.438 2.531q-2.344 2.531-2.344 5.625v1.031h3.938q0-3.094 2.344-5.625zM25.969 37.969v-3.938h-3.938v3.938h3.938zM24 4.031q8.25 0 14.109 5.859t5.859 14.109-5.859 14.109-14.109 5.859-14.109-5.859-5.859-14.109 5.859-14.109 14.109-5.859z"></path>
</svg>
