<?xml version="1.0" encoding="utf-8"?>
<!-- Generated by IcoMoon.io -->
<!DOCTYPE svg PUBLIC "-//W3C//DTD SVG 1.1//EN" "http://www.w3.org/Graphics/SVG/1.1/DTD/svg11.dtd">
<svg version="1.1" xmlns="http://www.w3.org/2000/svg" xmlns:xlink="http://www.w3.org/1999/xlink" width="48" height="48" viewBox="0 0 48 48">
<path fill="#181818" d="M24 12q3.281 0 5.625 2.344t2.344 5.625q0 2.531-3 5.203t-3 4.828h-3.938q0-2.156 0.938-3.703t2.063-2.25 2.063-1.734 0.938-2.344q0-1.594-1.219-2.766t-2.813-1.172-2.813 1.172-1.219 2.766h-3.938q0-3.281 2.344-5.625t5.625-2.344zM24 40.031q6.563 0 11.297-4.734t4.734-11.297-4.734-11.297-11.297-4.734-11.297 4.734-4.734 11.297 4.734 11.297 11.297 4.734zM24 4.031q8.25 0 14.109 5.859t5.859 14.109-5.859 14.109-14.109 5.859-14.109-5.859-5.859-14.109 5.859-14.109 14.109-5.859zM22.031 36v-4.031h3.938v4.031h-3.938z"></path>
</svg>
