<?xml version="1.0" encoding="utf-8"?>
<!-- Generated by IcoMoon.io -->
<!DOCTYPE svg PUBLIC "-//W3C//DTD SVG 1.1//EN" "http://www.w3.org/Graphics/SVG/1.1/DTD/svg11.dtd">
<svg version="1.1" xmlns="http://www.w3.org/2000/svg" xmlns:xlink="http://www.w3.org/1999/xlink" width="48" height="48" viewBox="0 0 48 48">
<path fill="#181818" d="M29.344 11.719q3.094 3 2.531 7.406l-0.094 0.844h-3.844l0.281-1.125q0.469-2.531-1.5-4.5-3.188-3.188-2.625-7.5l0.094-0.844h3.844l-0.188 1.219q-0.469 2.531 1.313 4.406zM37.313 11.719q3.188 3.094 2.625 7.406l-0.188 0.844h-3.75l0.188-1.125q0.469-2.531-1.313-4.406l-0.188-0.094q-3.188-3.188-2.625-7.5l0.188-0.844h3.75l-0.188 1.219q-0.469 2.531 1.313 4.406zM37.969 40.031v-12h-3.938v12h3.938zM30 40.031v-12h-4.031v12h4.031zM22.031 40.031v-12h-4.031v12h4.031zM13.969 40.031v-12h-3.938v12h3.938zM22.313 24h21.656v16.031q0 1.594-1.172 2.766t-2.766 1.172h-32.063q-1.594 0-2.766-1.172t-1.172-2.766v-16.031h6v-1.5q0-1.875 1.359-3.188t3.141-1.313q1.875 0 3.375 1.5l2.719 3.094q0.375 0.469 1.688 1.406zM10.031 12q0-1.688 1.125-2.859t2.813-1.172 2.859 1.172 1.172 2.859-1.172 2.859-2.859 1.172-2.813-1.172-1.125-2.859z"></path>
</svg>
