<?xml version="1.0" encoding="utf-8"?>
<!-- Generated by IcoMoon.io -->
<!DOCTYPE svg PUBLIC "-//W3C//DTD SVG 1.1//EN" "http://www.w3.org/Graphics/SVG/1.1/DTD/svg11.dtd">
<svg version="1.1" xmlns="http://www.w3.org/2000/svg" xmlns:xlink="http://www.w3.org/1999/xlink" width="48" height="48" viewBox="0 0 48 48">
<path fill="#181818" d="M40.031 36v-24h-32.063v24h32.063zM40.031 7.969q1.594 0 2.766 1.219t1.172 2.813v24q0 1.594-1.172 2.813t-2.766 1.219h-32.063q-1.594 0-2.766-1.219t-1.172-2.813v-24q0-1.594 1.172-2.813t2.766-1.219h32.063zM24 19.969v4.031h-4.031v-4.031h4.031zM16.031 19.969v4.031h-4.031v-4.031h4.031zM31.969 28.031v3.938h-3.938v-3.938h3.938zM31.969 19.969v4.031h-3.938v-4.031h3.938z"></path>
</svg>
