<?xml version="1.0" encoding="utf-8"?>
<!-- Generated by IcoMoon.io -->
<!DOCTYPE svg PUBLIC "-//W3C//DTD SVG 1.1//EN" "http://www.w3.org/Graphics/SVG/1.1/DTD/svg11.dtd">
<svg version="1.1" xmlns="http://www.w3.org/2000/svg" xmlns:xlink="http://www.w3.org/1999/xlink" width="48" height="48" viewBox="0 0 48 48">
<path fill="#181818" d="M23.906 18h6.094l-4.969 3.563 1.875 5.813-4.875-3.656-4.969 3.656 1.875-5.813-4.969-3.563h6.094l1.969-6zM40.031 4.031q1.594 0 2.766 1.125t1.172 2.813v10.031h-3.938v-10.031h-36v24h25.969v4.031h-4.031v4.031h4.031v3.938h-16.031v-3.938h4.031v-4.031h-13.969q-1.688 0-2.859-1.219t-1.172-2.813v-24q0-1.688 1.172-2.813t2.859-1.125h36zM46.031 40.031v-14.063h-10.031v14.063h10.031zM46.031 22.031q0.844 0 1.406 0.563t0.563 1.406v18q0 0.844-0.563 1.406t-1.406 0.563h-10.031q-0.844 0-1.406-0.563t-0.563-1.406v-18q0-0.844 0.563-1.406t1.406-0.563h10.031z"></path>
</svg>
