<?xml version="1.0" encoding="utf-8"?>
<!-- Generated by IcoMoon.io -->
<!DOCTYPE svg PUBLIC "-//W3C//DTD SVG 1.1//EN" "http://www.w3.org/Graphics/SVG/1.1/DTD/svg11.dtd">
<svg version="1.1" xmlns="http://www.w3.org/2000/svg" xmlns:xlink="http://www.w3.org/1999/xlink" width="48" height="48" viewBox="0 0 48 48">
<path fill="#181818" d="M42 37.031v-23.063q-3.094-0.938-7.031-0.938-6.094 0-10.969 3v22.969q4.875-3 10.969-3 3.656 0 7.031 1.031zM34.969 9q7.125 0 11.063 3v29.156q0 0.375-0.328 0.703t-0.703 0.328q-0.281 0-0.469-0.094-3.844-2.063-9.563-2.063-6.094 0-10.969 3-4.031-3-10.969-3-5.063 0-9.563 2.156-0.094 0-0.234 0.047t-0.234 0.047q-0.375 0-0.703-0.281t-0.328-0.656v-29.344q4.031-3 11.063-3 6.938 0 10.969 3 4.031-3 10.969-3z"></path>
</svg>
