<?xml version="1.0" encoding="utf-8"?>
<!-- Generated by IcoMoon.io -->
<!DOCTYPE svg PUBLIC "-//W3C//DTD SVG 1.1//EN" "http://www.w3.org/Graphics/SVG/1.1/DTD/svg11.dtd">
<svg version="1.1" xmlns="http://www.w3.org/2000/svg" xmlns:xlink="http://www.w3.org/1999/xlink" width="48" height="48" viewBox="0 0 48 48">
<path fill="#181818" d="M34.031 13.969q4.125 0 7.031 2.953t2.906 7.078-2.906 7.078-7.031 2.953h-8.063v-3.844h8.063q2.531 0 4.359-1.828t1.828-4.359-1.828-4.359-4.359-1.828h-8.063v-3.844h8.063zM16.031 25.969v-3.938h15.938v3.938h-15.938zM7.781 24q0 2.531 1.828 4.359t4.359 1.828h8.063v3.844h-8.063q-4.125 0-7.031-2.953t-2.906-7.078 2.906-7.078 7.031-2.953h8.063v3.844h-8.063q-2.531 0-4.359 1.828t-1.828 4.359z"></path>
</svg>
