<?xml version="1.0" encoding="utf-8"?>
<!-- Generated by IcoMoon.io -->
<!DOCTYPE svg PUBLIC "-//W3C//DTD SVG 1.1//EN" "http://www.w3.org/Graphics/SVG/1.1/DTD/svg11.dtd">
<svg version="1.1" xmlns="http://www.w3.org/2000/svg" xmlns:xlink="http://www.w3.org/1999/xlink" width="48" height="48" viewBox="0 0 48 48">
<path fill="#181818" d="M24 10.219l-4.594 4.5-2.813-2.813 7.406-7.406 11.344 11.344q3.563 3.563 4.406 8.578t-1.219 9.422l-14.531-14.438v-9.188zM24 39.188v-9.656l-9.563-9.563q-2.438 3.188-2.438 7.219 0 4.875 3.563 8.438t8.438 3.563zM41.344 41.719l0.656 0.75-2.531 2.531-5.438-5.438q-4.406 3.563-10.031 3.563-6.656 0-11.344-4.688-4.313-4.406-4.641-10.547t3.516-10.828l-5.531-5.531 2.531-2.531q28.031 28.031 32.813 32.719z"></path>
</svg>
