<?xml version="1.0" encoding="utf-8"?>
<!-- Generated by IcoMoon.io -->
<!DOCTYPE svg PUBLIC "-//W3C//DTD SVG 1.1//EN" "http://www.w3.org/Graphics/SVG/1.1/DTD/svg11.dtd">
<svg version="1.1" xmlns="http://www.w3.org/2000/svg" xmlns:xlink="http://www.w3.org/1999/xlink" width="48" height="48" viewBox="0 0 48 48">
<path fill="#181818" d="M37.969 19.969v-3.938h-3.938v3.938h3.938zM37.969 25.969v-3.938h-3.938v3.938h3.938zM31.969 19.969v-3.938h-3.938v3.938h3.938zM31.969 25.969v-3.938h-3.938v3.938h3.938zM31.969 34.031v-4.031h-15.938v4.031h15.938zM13.969 19.969v-3.938h-3.938v3.938h3.938zM13.969 25.969v-3.938h-3.938v3.938h3.938zM16.031 22.031v3.938h3.938v-3.938h-3.938zM16.031 16.031v3.938h3.938v-3.938h-3.938zM22.031 22.031v3.938h3.938v-3.938h-3.938zM22.031 16.031v3.938h3.938v-3.938h-3.938zM40.031 10.031q1.594 0 2.766 1.172t1.172 2.766v20.063q0 1.594-1.172 2.766t-2.766 1.172h-32.063q-1.594 0-2.766-1.172t-1.172-2.766v-20.063q0-1.594 1.172-2.766t2.766-1.172h32.063z"></path>
</svg>
