<?xml version="1.0" encoding="utf-8"?>
<!-- Generated by IcoMoon.io -->
<!DOCTYPE svg PUBLIC "-//W3C//DTD SVG 1.1//EN" "http://www.w3.org/Graphics/SVG/1.1/DTD/svg11.dtd">
<svg version="1.1" xmlns="http://www.w3.org/2000/svg" xmlns:xlink="http://www.w3.org/1999/xlink" width="48" height="48" viewBox="0 0 48 48">
<path fill="#181818" d="M24 46.031l-7.969-8.063h15.938zM37.969 16.031v-4.031h-3.938v4.031h3.938zM37.969 22.031v-4.031h-3.938v4.031h3.938zM31.969 16.031v-4.031h-3.938v4.031h3.938zM31.969 22.031v-4.031h-3.938v4.031h3.938zM31.969 30v-4.031h-15.938v4.031h15.938zM13.969 16.031v-4.031h-3.938v4.031h3.938zM13.969 22.031v-4.031h-3.938v4.031h3.938zM16.031 18v4.031h3.938v-4.031h-3.938zM16.031 12v4.031h3.938v-4.031h-3.938zM22.031 18v4.031h3.938v-4.031h-3.938zM22.031 12v4.031h3.938v-4.031h-3.938zM40.031 6q1.594 0 2.766 1.219t1.172 2.813v19.969q0 1.594-1.172 2.813t-2.766 1.219h-32.063q-1.594 0-2.766-1.219t-1.172-2.813v-19.969q0-1.594 1.172-2.813t2.766-1.219h32.063z"></path>
</svg>
