<?xml version="1.0" encoding="utf-8"?>
<!-- Generated by IcoMoon.io -->
<!DOCTYPE svg PUBLIC "-//W3C//DTD SVG 1.1//EN" "http://www.w3.org/Graphics/SVG/1.1/DTD/svg11.dtd">
<svg version="1.1" xmlns="http://www.w3.org/2000/svg" xmlns:xlink="http://www.w3.org/1999/xlink" width="48" height="48" viewBox="0 0 48 48">
<path fill="#181818" d="M32.719 28.031h6.75q0.563-2.625 0.563-4.031t-0.563-4.031h-6.75q0.281 1.969 0.281 4.031t-0.281 4.031zM29.156 39.094q5.719-1.875 8.719-7.125h-5.906q-0.938 3.75-2.813 7.125zM28.688 28.031q0.281-1.969 0.281-4.031t-0.281-4.031h-9.375q-0.281 1.969-0.281 4.031t0.281 4.031h9.375zM24 39.938q2.625-3.844 3.844-7.969h-7.688q1.219 4.125 3.844 7.969zM16.031 16.031q0.938-3.75 2.813-7.125-5.719 1.875-8.719 7.125h5.906zM10.125 31.969q3 5.25 8.719 7.125-1.875-3.375-2.813-7.125h-5.906zM8.531 28.031h6.75q-0.281-1.969-0.281-4.031t0.281-4.031h-6.75q-0.563 2.625-0.563 4.031t0.563 4.031zM24 8.063q-2.625 3.844-3.844 7.969h7.688q-1.219-4.125-3.844-7.969zM37.875 16.031q-3-5.25-8.719-7.125 1.875 3.375 2.813 7.125h5.906zM24 4.031q8.25 0 14.109 5.859t5.859 14.109-5.859 14.109-14.109 5.859-14.109-5.859-5.859-14.109 5.859-14.109 14.109-5.859z"></path>
</svg>
