<?xml version="1.0" encoding="utf-8"?>
<!-- Generated by IcoMoon.io -->
<!DOCTYPE svg PUBLIC "-//W3C//DTD SVG 1.1//EN" "http://www.w3.org/Graphics/SVG/1.1/DTD/svg11.dtd">
<svg version="1.1" xmlns="http://www.w3.org/2000/svg" xmlns:xlink="http://www.w3.org/1999/xlink" width="48" height="48" viewBox="0 0 48 48">
<path fill="#181818" d="M24 37.969q0.844 0 1.406-0.563t0.563-1.406-0.563-1.406-1.406-0.563-1.406 0.563-0.563 1.406 0.563 1.406 1.406 0.563zM7.969 10.031v21.938h32.063v-21.938h-32.063zM40.031 36h7.969q0 1.594-1.219 2.813t-2.813 1.219h-39.938q-1.594 0-2.813-1.219t-1.219-2.813h7.969q-1.594 0-2.766-1.219t-1.172-2.813v-21.938q0-1.594 1.172-2.813t2.766-1.219h32.063q1.594 0 2.766 1.219t1.172 2.813v21.938q0 1.594-1.172 2.813t-2.766 1.219z"></path>
</svg>
