<?xml version="1.0" encoding="utf-8"?>
<!-- Generated by IcoMoon.io -->
<!DOCTYPE svg PUBLIC "-//W3C//DTD SVG 1.1//EN" "http://www.w3.org/Graphics/SVG/1.1/DTD/svg11.dtd">
<svg version="1.1" xmlns="http://www.w3.org/2000/svg" xmlns:xlink="http://www.w3.org/1999/xlink" width="48" height="48" viewBox="0 0 48 48">
<path fill="#181818" d="M30.75 23.156q5.344-3.188 11.25-3.188v4.031q-4.406 0-8.344 2.063zM39.844 32.25l-3.188-3.188q2.531-1.031 5.344-1.031v3.938q-1.125 0-2.156 0.281zM28.031 6q0 5.906-3.188 11.25l-2.906-2.906q2.063-3.938 2.063-8.344h4.031zM6 8.531l2.531-2.531 33.469 33.469-2.531 2.531-5.719-5.719q-1.781 2.531-1.781 5.719h-3.938q0-4.688 2.906-8.531l-2.906-2.813q-4.031 4.969-4.031 11.344h-4.031q0-8.063 5.25-14.25l-4.969-4.969q-6.188 5.25-14.25 5.25v-4.031q6.469 0 11.438-4.031l-2.906-2.906q-3.844 2.906-8.531 2.906v-3.938q3.188 0 5.719-1.781zM19.969 6q0 2.813-1.031 5.344l-3.188-3.188q0.281-1.031 0.281-2.156h3.938z"></path>
</svg>
