<?xml version="1.0" encoding="utf-8"?>
<!-- Generated by IcoMoon.io -->
<!DOCTYPE svg PUBLIC "-//W3C//DTD SVG 1.1//EN" "http://www.w3.org/Graphics/SVG/1.1/DTD/svg11.dtd">
<svg version="1.1" xmlns="http://www.w3.org/2000/svg" xmlns:xlink="http://www.w3.org/1999/xlink" width="48" height="48" viewBox="0 0 48 48">
<path fill="#181818" d="M28.031 42q0-5.813 4.078-9.891t9.891-4.078v3.938q-4.125 0-7.078 2.953t-2.953 7.078h-3.938zM36 42q0-2.438 1.781-4.219t4.219-1.781v6h-6zM19.969 42q0-9.094 6.469-15.563t15.563-6.469v4.031q-7.5 0-12.75 5.25t-5.25 12.75h-4.031zM19.969 6q0 5.813-4.078 9.891t-9.891 4.078v-3.938q4.125 0 7.078-2.953t2.953-7.078h3.938zM28.031 6q0 9.094-6.469 15.563t-15.563 6.469v-4.031q7.5 0 12.75-5.25t5.25-12.75h4.031zM12 6q0 2.438-1.781 4.219t-4.219 1.781v-6h6z"></path>
</svg>
