<?xml version="1.0" encoding="utf-8"?>
<!-- Generated by IcoMoon.io -->
<!DOCTYPE svg PUBLIC "-//W3C//DTD SVG 1.1//EN" "http://www.w3.org/Graphics/SVG/1.1/DTD/svg11.dtd">
<svg version="1.1" xmlns="http://www.w3.org/2000/svg" xmlns:xlink="http://www.w3.org/1999/xlink" width="48" height="48" viewBox="0 0 48 48">
<path fill="#181818" d="M29.719 26.156q4.313-3 4.313-8.156 0-4.125-2.953-7.078t-7.078-2.953-7.078 2.953-2.953 7.078q0 5.156 4.313 8.156l1.688 1.219v4.594h8.063v-4.594zM24 4.031q5.813 0 9.891 4.078t4.078 9.891q0 7.313-6 11.438v4.594q0 0.844-0.563 1.406t-1.406 0.563h-12q-0.844 0-1.406-0.563t-0.563-1.406v-4.594q-6-4.125-6-11.438 0-5.813 4.078-9.891t9.891-4.078zM18 42v-1.969h12v1.969q0 0.844-0.563 1.406t-1.406 0.563h-8.063q-0.844 0-1.406-0.563t-0.563-1.406z"></path>
</svg>
