<?xml version="1.0" encoding="utf-8"?>
<!-- Generated by IcoMoon.io -->
<!DOCTYPE svg PUBLIC "-//W3C//DTD SVG 1.1//EN" "http://www.w3.org/Graphics/SVG/1.1/DTD/svg11.dtd">
<svg version="1.1" xmlns="http://www.w3.org/2000/svg" xmlns:xlink="http://www.w3.org/1999/xlink" width="48" height="48" viewBox="0 0 48 48">
<path fill="#181818" d="M31.969 12q1.688 0 2.859 1.172t1.172 2.859h2.625q0-2.719-1.969-4.688t-4.688-1.969v2.625zM24 37.969q4.125 0 7.078-2.906t2.953-7.031-2.953-7.078-7.078-2.953-7.078 2.953-2.953 7.078 2.953 7.031 7.078 2.906zM34.031 18h9.938v22.031q0 1.594-1.172 2.766t-2.766 1.172h-32.063q-1.594 0-2.766-1.172t-1.172-2.766v-24q0-1.594 1.172-2.813t2.766-1.219h6.375l3.656-4.031h12v6q1.688 0 2.859 1.172t1.172 2.859zM31.969 6.656v-2.625q4.969 0 8.484 3.516t3.516 8.484h-2.625q0-3.844-2.766-6.609t-6.609-2.766zM17.625 28.031q0-2.719 1.875-4.594t4.5-1.875 4.5 1.875 1.875 4.594-1.875 4.547-4.5 1.828-4.5-1.828-1.875-4.547z"></path>
</svg>
