<?xml version="1.0" encoding="utf-8"?>
<!-- Generated by IcoMoon.io -->
<!DOCTYPE svg PUBLIC "-//W3C//DTD SVG 1.1//EN" "http://www.w3.org/Graphics/SVG/1.1/DTD/svg11.dtd">
<svg version="1.1" xmlns="http://www.w3.org/2000/svg" xmlns:xlink="http://www.w3.org/1999/xlink" width="48" height="48" viewBox="0 0 48 48">
<path fill="#181818" d="M30.094 20.531q1.875-1.875 1.875-4.5 0-3.281-2.344-5.672t-5.625-2.391-5.625 2.391-2.344 5.672h3.938q0-1.594 1.219-2.813t2.813-1.219 2.813 1.219 1.219 2.813-1.219 2.813l-2.438 2.531q-2.344 2.531-2.344 5.625v1.031h3.938q0-3.188 2.344-5.719zM25.969 36v-4.031h-3.938v4.031h3.938zM37.969 4.031q1.594 0 2.813 1.172t1.219 2.766v28.031q0 1.594-1.219 2.813t-2.813 1.219h-7.969l-6 6-6-6h-7.969q-1.688 0-2.859-1.219t-1.172-2.813v-28.031q0-1.594 1.172-2.766t2.859-1.172h27.938z"></path>
</svg>
