<?xml version="1.0" encoding="utf-8"?>
<!-- Generated by IcoMoon.io -->
<!DOCTYPE svg PUBLIC "-//W3C//DTD SVG 1.1//EN" "http://www.w3.org/Graphics/SVG/1.1/DTD/svg11.dtd">
<svg version="1.1" xmlns="http://www.w3.org/2000/svg" xmlns:xlink="http://www.w3.org/1999/xlink" width="48" height="48" viewBox="0 0 48 48">
<path fill="#181818" d="M10.031 25.969h27.938l-3-9h-21.938zM34.969 36q1.219 0 2.109-0.844t0.891-2.156-0.891-2.156-2.109-0.844-2.109 0.844-0.891 2.156 0.891 2.156 2.109 0.844zM13.031 36q1.219 0 2.109-0.844t0.891-2.156-0.891-2.156-2.109-0.844-2.109 0.844-0.891 2.156 0.891 2.156 2.109 0.844zM37.875 16.031l4.125 12v15.938q0 0.844-0.563 1.453t-1.406 0.609h-2.063q-0.844 0-1.406-0.609t-0.563-1.453v-1.969h-24v1.969q0 0.844-0.563 1.453t-1.406 0.609h-2.063q-0.844 0-1.406-0.609t-0.563-1.453v-15.938l4.125-12q0.656-2.063 2.906-2.063h21.938q2.25 0 2.906 2.063zM13.969 10.031q-1.219 0-2.109-0.891t-0.891-2.109q0-0.844 0.75-2.203t1.5-2.297l0.75-0.938q3 3.469 3 5.438 0 1.219-0.891 2.109t-2.109 0.891zM24 10.031q-1.313 0-2.156-0.891t-0.844-2.109q0-0.844 0.75-2.203t1.5-2.297l0.75-0.938q3 3.469 3 5.438 0 1.219-0.844 2.109t-2.156 0.891zM34.031 10.031q-1.219 0-2.109-0.891t-0.891-2.109q0-0.844 0.75-2.203t1.5-2.297l0.75-0.938q3 3.469 3 5.438 0 1.219-0.891 2.109t-2.109 0.891z"></path>
</svg>
