<?xml version="1.0" encoding="utf-8"?>
<!-- Generated by IcoMoon.io -->
<!DOCTYPE svg PUBLIC "-//W3C//DTD SVG 1.1//EN" "http://www.w3.org/Graphics/SVG/1.1/DTD/svg11.dtd">
<svg version="1.1" xmlns="http://www.w3.org/2000/svg" xmlns:xlink="http://www.w3.org/1999/xlink" width="48" height="48" viewBox="0 0 48 48">
<path fill="#181818" d="M23.438 22.969q10.219 10.125 16.594 16.5l-2.531 2.531-6.75-6.656q-1.5 2.25-3.188 4.406t-2.625 3.188l-0.938 1.031q-0.563-0.656-1.5-1.734t-3.375-4.313-4.266-6.281-3.328-6.891-1.5-6.75q0-1.031 0.375-3.094l-6.375-6.375 2.531-2.531 16.688 16.688zM24 13.031q-2.156 0-3.656 1.688l-6.469-6.375q4.125-4.313 10.125-4.313 5.813 0 9.891 4.078t4.078 9.891q0 4.5-3.375 10.969l-7.219-7.313q1.594-1.406 1.594-3.656 0-2.063-1.453-3.516t-3.516-1.453z"></path>
</svg>
