<?xml version="1.0" encoding="utf-8"?>
<!-- Generated by IcoMoon.io -->
<!DOCTYPE svg PUBLIC "-//W3C//DTD SVG 1.1//EN" "http://www.w3.org/Graphics/SVG/1.1/DTD/svg11.dtd">
<svg version="1.1" xmlns="http://www.w3.org/2000/svg" xmlns:xlink="http://www.w3.org/1999/xlink" width="48" height="48" viewBox="0 0 48 48">
<path fill="#181818" d="M36 19.969q0.844 0 1.406-0.563t0.563-1.406-0.563-1.406-1.406-0.563-1.406 0.563-0.563 1.406 0.563 1.406 1.406 0.563zM24 19.969v-9.938h-12v9.938h12zM39.563 14.438q1.406 1.406 1.406 3.563v19.031q0 2.063-1.453 3.516t-3.516 1.453-3.516-1.453-1.453-3.516v-10.031h-3v15h-20.063v-31.969q0-1.594 1.219-2.813t2.813-1.219h12q1.594 0 2.813 1.219t1.219 2.813v13.969h1.969q1.594 0 2.813 1.219t1.219 2.813v9q0 0.844 0.563 1.406t1.406 0.563 1.406-0.563 0.563-1.406v-14.438q-0.844 0.375-1.969 0.375-2.063 0-3.516-1.453t-1.453-3.516q0-3.375 3.188-4.688l-4.219-4.219 2.156-2.063z"></path>
</svg>
