<?xml version="1.0" encoding="utf-8"?>
<!-- Generated by IcoMoon.io -->
<!DOCTYPE svg PUBLIC "-//W3C//DTD SVG 1.1//EN" "http://www.w3.org/Graphics/SVG/1.1/DTD/svg11.dtd">
<svg version="1.1" xmlns="http://www.w3.org/2000/svg" xmlns:xlink="http://www.w3.org/1999/xlink" width="48" height="48" viewBox="0 0 48 48">
<path fill="#181818" d="M24 10.969q-2.063 0-3.516 1.5t-1.453 3.563 1.453 3.516 3.516 1.453 3.516-1.453 1.453-3.516-1.453-3.563-3.516-1.5zM11.156 20.531q0-3.094 2.906-4.5-2.906-1.406-2.906-4.5 0-2.063 1.5-3.563t3.563-1.5q1.406 0 2.813 0.938v-0.375q0-2.063 1.453-3.563t3.516-1.5 3.516 1.5 1.453 3.563v0.375q1.406-0.938 2.813-0.938 2.063 0 3.563 1.5t1.5 3.563q0 3.094-2.906 4.5 2.906 1.406 2.906 4.5 0 2.063-1.5 3.516t-3.563 1.453q-1.594 0-2.813-0.844v0.375q0 2.063-1.453 3.516t-3.516 1.453-3.516-1.453-1.453-3.516v-0.375q-1.219 0.844-2.813 0.844-2.063 0-3.563-1.453t-1.5-3.516zM24 43.969q-7.5 0-12.75-5.297t-5.25-12.703q7.5 0 12.75 5.297t5.25 12.703zM24 43.969q0-7.406 5.25-12.703t12.75-5.297q0 7.406-5.25 12.703t-12.75 5.297z"></path>
</svg>
