<?xml version="1.0" encoding="utf-8"?>
<!-- Generated by IcoMoon.io -->
<!DOCTYPE svg PUBLIC "-//W3C//DTD SVG 1.1//EN" "http://www.w3.org/Graphics/SVG/1.1/DTD/svg11.dtd">
<svg version="1.1" xmlns="http://www.w3.org/2000/svg" xmlns:xlink="http://www.w3.org/1999/xlink" width="48" height="48" viewBox="0 0 48 48">
<path fill="#181818" d="M24 25.969q4.125 0 7.078-2.906t2.953-7.031h-4.031q0 2.438-1.781 4.219t-4.219 1.781-4.219-1.781-1.781-4.219h-4.031q0 4.125 2.953 7.031t7.078 2.906zM24 6q-2.438 0-4.219 1.781t-1.781 4.219h12q0-2.438-1.781-4.219t-4.219-1.781zM37.969 12q1.594 0 2.813 1.219t1.219 2.813v24q0 1.594-1.219 2.766t-2.813 1.172h-27.938q-1.594 0-2.813-1.172t-1.219-2.766v-24q0-1.594 1.219-2.813t2.813-1.219h3.938q0-4.125 2.953-7.078t7.078-2.953 7.078 2.953 2.953 7.078h3.938z"></path>
</svg>
