<?xml version="1.0" encoding="utf-8"?>
<!-- Generated by IcoMoon.io -->
<!DOCTYPE svg PUBLIC "-//W3C//DTD SVG 1.1//EN" "http://www.w3.org/Graphics/SVG/1.1/DTD/svg11.dtd">
<svg version="1.1" xmlns="http://www.w3.org/2000/svg" xmlns:xlink="http://www.w3.org/1999/xlink" width="48" height="48" viewBox="0 0 48 48">
<path fill="#181818" d="M40.031 36v-24h-32.063v24h32.063zM40.031 7.969q1.688 0 2.813 1.172t1.125 2.859v24q0 1.688-1.125 2.859t-2.813 1.172h-32.063q-1.688 0-2.813-1.172t-1.125-2.859v-24q0-1.688 1.125-2.859t2.813-1.172h32.063zM22.031 34.031v-2.063h-4.031v-3.938h7.969v-2.063h-6q-0.844 0-1.406-0.563t-0.563-1.406v-6q0-0.844 0.563-1.406t1.406-0.563h2.063v-2.063h3.938v2.063h4.031v3.938h-7.969v2.063h6q0.844 0 1.406 0.563t0.563 1.406v6q0 0.844-0.563 1.406t-1.406 0.563h-2.063v2.063h-3.938z"></path>
</svg>
