<?xml version="1.0" encoding="utf-8"?>
<!-- Generated by IcoMoon.io -->
<!DOCTYPE svg PUBLIC "-//W3C//DTD SVG 1.1//EN" "http://www.w3.org/Graphics/SVG/1.1/DTD/svg11.dtd">
<svg version="1.1" xmlns="http://www.w3.org/2000/svg" xmlns:xlink="http://www.w3.org/1999/xlink" width="48" height="48" viewBox="0 0 48 48">
<path fill="#181818" d="M31.125 33.563l-2.156-8.156 6.563-5.438-8.438-0.469-3.094-7.875-3.094 7.875-8.531 0.469 6.656 5.438-2.156 8.156 7.125-4.594zM40.031 24q0 1.594 1.172 2.813t2.766 1.219v7.969q0 1.594-1.172 2.813t-2.766 1.219h-32.063q-1.594 0-2.766-1.219t-1.172-2.813v-7.969q1.688 0 2.813-1.172t1.125-2.859q0-1.594-1.172-2.813t-2.766-1.219v-7.969q0-1.594 1.172-2.813t2.766-1.219h32.063q1.594 0 2.766 1.219t1.172 2.813v7.969q-1.594 0-2.766 1.219t-1.172 2.813z"></path>
</svg>
