<?xml version="1.0" encoding="utf-8"?>
<!-- Generated by IcoMoon.io -->
<!DOCTYPE svg PUBLIC "-//W3C//DTD SVG 1.1//EN" "http://www.w3.org/Graphics/SVG/1.1/DTD/svg11.dtd">
<svg version="1.1" xmlns="http://www.w3.org/2000/svg" xmlns:xlink="http://www.w3.org/1999/xlink" width="48" height="48" viewBox="0 0 48 48">
<path fill="#181818" d="M24 40.031q4.969 0 8.484-3.516t3.516-8.484-3.516-8.484-8.484-3.516-8.484 3.516-3.516 8.484 3.516 8.484 8.484 3.516zM13.969 7.969q-0.844 0-1.406 0.609t-0.563 1.453 0.563 1.406 1.406 0.563 1.453-0.563 0.609-1.406-0.609-1.453-1.453-0.609zM19.969 7.969q-0.844 0-1.406 0.609t-0.563 1.453 0.563 1.406 1.406 0.563 1.453-0.563 0.609-1.406-0.609-1.453-1.453-0.609zM36 4.031q1.688 0 2.859 1.125t1.172 2.813v32.063q0 1.688-1.172 2.813t-2.859 1.125h-24q-1.688 0-2.859-1.125t-1.172-2.813v-32.063q0-1.688 1.172-2.813t2.859-1.125h24zM18.375 33.656l11.25-11.344q2.344 2.344 2.344 5.672t-2.344 5.672-5.625 2.344-5.625-2.344z"></path>
</svg>
