<?xml version="1.0" encoding="utf-8"?>
<!-- Generated by IcoMoon.io -->
<!DOCTYPE svg PUBLIC "-//W3C//DTD SVG 1.1//EN" "http://www.w3.org/Graphics/SVG/1.1/DTD/svg11.dtd">
<svg version="1.1" xmlns="http://www.w3.org/2000/svg" xmlns:xlink="http://www.w3.org/1999/xlink" width="48" height="48" viewBox="0 0 48 48">
<path fill="#181818" d="M36 37.031q1.313 0 2.156-0.891t0.844-2.109-0.844-2.109-2.156-0.891-2.156 0.891-0.844 2.109 0.844 2.109 2.156 0.891zM39 19.031h-4.969v4.969h8.906zM12 37.031q1.313 0 2.156-0.891t0.844-2.109-0.844-2.109-2.156-0.891-2.156 0.891-0.844 2.109 0.844 2.109 2.156 0.891zM40.031 16.031l6 7.969v10.031h-4.031q0 2.438-1.781 4.219t-4.219 1.781-4.219-1.781-1.781-4.219h-12q0 2.438-1.781 4.219t-4.219 1.781-4.219-1.781-1.781-4.219h-4.031v-22.031q0-1.594 1.219-2.813t2.813-1.219h28.031v8.063h6z"></path>
</svg>
