<?xml version="1.0" encoding="utf-8"?>
<!-- Generated by IcoMoon.io -->
<!DOCTYPE svg PUBLIC "-//W3C//DTD SVG 1.1//EN" "http://www.w3.org/Graphics/SVG/1.1/DTD/svg11.dtd">
<svg version="1.1" xmlns="http://www.w3.org/2000/svg" xmlns:xlink="http://www.w3.org/1999/xlink" width="48" height="48" viewBox="0 0 48 48">
<path fill="#181818" d="M37.969 30v-4.031h-3.938v4.031h3.938zM37.969 37.969v-3.938h-3.938v3.938h3.938zM25.969 13.969v-3.938h-3.938v3.938h3.938zM25.969 22.031v-4.031h-3.938v4.031h3.938zM25.969 30v-4.031h-3.938v4.031h3.938zM25.969 37.969v-3.938h-3.938v3.938h3.938zM13.969 22.031v-4.031h-3.938v4.031h3.938zM13.969 30v-4.031h-3.938v4.031h3.938zM13.969 37.969v-3.938h-3.938v3.938h3.938zM30 22.031h12v19.969h-36v-28.031h12v-3.938l6-6 6 6v12z"></path>
</svg>
