<?xml version="1.0" encoding="utf-8"?>
<!-- Generated by IcoMoon.io -->
<!DOCTYPE svg PUBLIC "-//W3C//DTD SVG 1.1//EN" "http://www.w3.org/Graphics/SVG/1.1/DTD/svg11.dtd">
<svg version="1.1" xmlns="http://www.w3.org/2000/svg" xmlns:xlink="http://www.w3.org/1999/xlink" width="48" height="48" viewBox="0 0 48 48">
<path fill="#181818" d="M36 40.031v-20.063h-24v20.063h24zM17.813 12v4.031h12.375v-4.031q0-2.531-1.828-4.359t-4.359-1.828-4.359 1.828-1.828 4.359zM36 16.031q1.594 0 2.813 1.172t1.219 2.766v20.063q0 1.594-1.219 2.766t-2.813 1.172h-24q-1.594 0-2.813-1.172t-1.219-2.766v-20.063q0-1.594 1.219-2.766t2.813-1.172h1.969v-4.031q0-4.125 2.953-7.078t7.078-2.953 7.078 2.953 2.953 7.078v4.031h1.969zM24 34.031q-1.594 0-2.813-1.219t-1.219-2.813 1.219-2.813 2.813-1.219 2.813 1.219 1.219 2.813-1.219 2.813-2.813 1.219z"></path>
</svg>
