<?xml version="1.0" encoding="utf-8"?>
<!-- Generated by IcoMoon.io -->
<!DOCTYPE svg PUBLIC "-//W3C//DTD SVG 1.1//EN" "http://www.w3.org/Graphics/SVG/1.1/DTD/svg11.dtd">
<svg version="1.1" xmlns="http://www.w3.org/2000/svg" xmlns:xlink="http://www.w3.org/1999/xlink" width="48" height="48" viewBox="0 0 48 48">
<path fill="#181818" d="M30 21v-3q0-1.688-1.172-2.859t-2.766-1.172h-8.063v4.031h8.063v4.031h-4.031v3.938h4.031v4.031h-8.063v4.031h8.063q1.594 0 2.766-1.172t1.172-2.859v-3q0-1.313-0.844-2.156t-2.156-0.844q1.313 0 2.156-0.844t0.844-2.156zM38.063 6q1.594 0 2.766 1.219t1.172 2.813v27.938q0 1.594-1.172 2.813t-2.766 1.219h-28.031q-1.594 0-2.813-1.219t-1.219-2.813v-27.938q0-1.594 1.219-2.813t2.813-1.219h28.031z"></path>
</svg>
