<?xml version="1.0" encoding="utf-8"?>
<!-- Generated by IcoMoon.io -->
<!DOCTYPE svg PUBLIC "-//W3C//DTD SVG 1.1//EN" "http://www.w3.org/Graphics/SVG/1.1/DTD/svg11.dtd">
<svg version="1.1" xmlns="http://www.w3.org/2000/svg" xmlns:xlink="http://www.w3.org/1999/xlink" width="48" height="48" viewBox="0 0 48 48">
<path fill="#181818" d="M24 36v-6l7.969 7.969-7.969 8.063v-6q-6.563 0-11.297-4.734t-4.734-11.297q0-4.688 2.531-8.531l2.906 2.906q-1.406 2.531-1.406 5.625 0 4.969 3.516 8.484t8.484 3.516zM24 7.969q6.563 0 11.297 4.734t4.734 11.297q0 4.688-2.531 8.531l-2.906-2.906q1.406-2.531 1.406-5.625 0-4.969-3.516-8.484t-8.484-3.516v6l-7.969-7.969 7.969-8.063v6z"></path>
</svg>
