<?xml version="1.0" encoding="utf-8"?>
<!-- Generated by IcoMoon.io -->
<!DOCTYPE svg PUBLIC "-//W3C//DTD SVG 1.1//EN" "http://www.w3.org/Graphics/SVG/1.1/DTD/svg11.dtd">
<svg version="1.1" xmlns="http://www.w3.org/2000/svg" xmlns:xlink="http://www.w3.org/1999/xlink" width="48" height="48" viewBox="0 0 48 48">
<path fill="#181818" d="M24 40.031q6.563 0 11.297-4.734t4.734-11.297-4.734-11.297-11.297-4.734-11.297 4.734-4.734 11.297 4.734 11.297 11.297 4.734zM24 4.031q8.25 0 14.109 5.859t5.859 14.109v16.031q0 1.594-1.172 2.766t-2.766 1.172h-16.031q-8.25 0-14.109-5.859t-5.859-14.109 5.859-14.109 14.109-5.859zM25.969 13.969v8.063h8.063v3.938h-8.063v8.063h-3.938v-8.063h-8.063v-3.938h8.063v-8.063h3.938z"></path>
</svg>
