<?xml version="1.0" encoding="utf-8"?>
<!-- Generated by IcoMoon.io -->
<!DOCTYPE svg PUBLIC "-//W3C//DTD SVG 1.1//EN" "http://www.w3.org/Graphics/SVG/1.1/DTD/svg11.dtd">
<svg version="1.1" xmlns="http://www.w3.org/2000/svg" xmlns:xlink="http://www.w3.org/1999/xlink" width="48" height="48" viewBox="0 0 48 48">
<path fill="#181818" d="M34.5 30.563q1.5-1.5 1.5-3.563t-1.453-3.516-3.516-1.453q-2.156 0-3.563 1.406l-1.5 1.5-1.406-1.5q-1.406-1.406-3.563-1.406-2.063 0-3.516 1.453t-1.453 3.516q0 2.156 1.406 3.563l8.531 8.531zM10.969 13.969q1.219 0 2.109-0.891t0.891-2.109-0.891-2.109-2.109-0.891-2.109 0.891-0.891 2.109 0.891 2.109 2.109 0.891zM42.844 23.156q1.125 1.125 1.125 2.813t-1.125 2.813l-14.063 14.063q-1.125 1.125-2.813 1.125t-2.813-1.125l-18-18q-1.125-1.125-1.125-2.813v-14.063q0-1.594 1.172-2.766t2.766-1.172h14.063q1.688 0 2.813 1.125z"></path>
</svg>
