<?xml version="1.0" encoding="utf-8"?>
<!-- Generated by IcoMoon.io -->
<!DOCTYPE svg PUBLIC "-//W3C//DTD SVG 1.1//EN" "http://www.w3.org/Graphics/SVG/1.1/DTD/svg11.dtd">
<svg version="1.1" xmlns="http://www.w3.org/2000/svg" xmlns:xlink="http://www.w3.org/1999/xlink" width="48" height="48" viewBox="0 0 48 48">
<path fill="#181818" d="M34.031 34.031v-20.063h-20.063v20.063h20.063zM42 22.031h-4.031v3.938h4.031v4.031h-4.031v4.031q0 1.594-1.172 2.766t-2.766 1.172h-4.031v4.031h-4.031v-4.031h-3.938v4.031h-4.031v-4.031h-4.031q-1.594 0-2.766-1.172t-1.172-2.766v-4.031h-4.031v-4.031h4.031v-3.938h-4.031v-4.031h4.031v-4.031q0-1.594 1.172-2.766t2.766-1.172h4.031v-4.031h4.031v4.031h3.938v-4.031h4.031v4.031h4.031q1.594 0 2.766 1.172t1.172 2.766v4.031h4.031v4.031zM25.969 25.969v-3.938h-3.938v3.938h3.938zM30 18v12h-12v-12h12z"></path>
</svg>
