<?xml version="1.0" encoding="utf-8"?>
<!-- Generated by IcoMoon.io -->
<!DOCTYPE svg PUBLIC "-//W3C//DTD SVG 1.1//EN" "http://www.w3.org/Graphics/SVG/1.1/DTD/svg11.dtd">
<svg version="1.1" xmlns="http://www.w3.org/2000/svg" xmlns:xlink="http://www.w3.org/1999/xlink" width="48" height="48" viewBox="0 0 48 48">
<path fill="#181818" d="M8.531 6l33.469 33.469-2.531 2.531-8.344-8.344q-2.063 1.313-5.156 1.781v6.563h-3.938v-6.563q-4.969-0.75-8.484-4.547t-3.516-8.859h3.375q0 4.406 3.141 7.266t7.453 2.859q2.344 0 4.594-1.031l-3.281-3.281q-0.75 0.188-1.313 0.188-2.438 0-4.219-1.781t-1.781-4.219v-1.5l-12-12zM30 22.313l-12-11.906v-0.375q0-2.438 1.781-4.219t4.219-1.781 4.219 1.781 1.781 4.219v12.281zM37.969 22.031q0 3.469-1.781 6.563l-2.438-2.531q0.844-1.875 0.844-4.031h3.375z"></path>
</svg>
