<?xml version="1.0" encoding="utf-8"?>
<!-- Generated by IcoMoon.io -->
<!DOCTYPE svg PUBLIC "-//W3C//DTD SVG 1.1//EN" "http://www.w3.org/Graphics/SVG/1.1/DTD/svg11.dtd">
<svg version="1.1" xmlns="http://www.w3.org/2000/svg" xmlns:xlink="http://www.w3.org/1999/xlink" width="48" height="48" viewBox="0 0 48 48">
<path fill="#181818" d="M34.594 22.031h3.375q0 5.063-3.516 8.859t-8.484 4.547v6.563h-3.938v-6.563q-4.969-0.75-8.484-4.547t-3.516-8.859h3.375q0 4.406 3.141 7.266t7.453 2.859 7.453-2.859 3.141-7.266zM21.563 9.844v12.375q0 0.938 0.703 1.641t1.734 0.703q0.938 0 1.641-0.656t0.703-1.688l0.094-12.375q0-1.031-0.75-1.734t-1.688-0.703-1.688 0.703-0.75 1.734zM24 28.031q-2.438 0-4.219-1.781t-1.781-4.219v-12q0-2.438 1.781-4.219t4.219-1.781 4.219 1.781 1.781 4.219v12q0 2.438-1.781 4.219t-4.219 1.781z"></path>
</svg>
