<?xml version="1.0" encoding="utf-8"?>
<!-- Generated by IcoMoon.io -->
<!DOCTYPE svg PUBLIC "-//W3C//DTD SVG 1.1//EN" "http://www.w3.org/Graphics/SVG/1.1/DTD/svg11.dtd">
<svg version="1.1" xmlns="http://www.w3.org/2000/svg" xmlns:xlink="http://www.w3.org/1999/xlink" width="48" height="48" viewBox="0 0 48 48">
<path fill="#181818" d="M10.688 8.156l29.156 29.25-2.531 2.531-4.406-4.5q-1.781 1.594-4.875 2.25v4.313h-6v-4.313q-3.094-0.656-5.156-2.625t-2.25-5.063h4.406q0.375 4.219 6 4.219 3.469 0 4.781-1.875l-7.031-6.938q-7.781-2.344-7.781-7.875l-6.844-6.844zM25.031 13.781q-1.781 0-3.094 0.563l-2.906-2.906q1.313-0.656 3-1.125v-4.313h6v4.406q3 0.75 4.641 2.813t1.734 4.781h-4.406q-0.188-4.219-4.969-4.219z"></path>
</svg>
