<?xml version="1.0" encoding="utf-8"?>
<!-- Generated by IcoMoon.io -->
<!DOCTYPE svg PUBLIC "-//W3C//DTD SVG 1.1//EN" "http://www.w3.org/Graphics/SVG/1.1/DTD/svg11.dtd">
<svg version="1.1" xmlns="http://www.w3.org/2000/svg" xmlns:xlink="http://www.w3.org/1999/xlink" width="48" height="48" viewBox="0 0 48 48">
<path fill="#181818" d="M40.031 37.969v-24h-16.031v2.063q4.219 0 7.125 2.859t2.906 7.078-2.906 7.125-7.125 2.906v-3.563q-2.625 0-4.5-1.875t-1.875-4.594 1.875-4.547 4.5-1.828v12.844q2.625 0 4.5-1.875t1.875-4.594-1.875-4.547-4.5-1.828v-3.563q-4.219 0-7.125 2.859t-2.906 7.078 2.906 7.125 7.125 2.906v1.969h16.031zM40.031 10.031q1.594 0 2.766 1.172t1.172 2.766v24q0 1.594-1.172 2.813t-2.766 1.219h-32.063q-1.594 0-2.766-1.219t-1.172-2.813v-24q0-1.594 1.172-2.766t2.766-1.172h6.469l3.563-4.031h12l3.563 4.031h6.469z"></path>
</svg>
