<?xml version="1.0" encoding="utf-8"?>
<!-- Generated by IcoMoon.io -->
<!DOCTYPE svg PUBLIC "-//W3C//DTD SVG 1.1//EN" "http://www.w3.org/Graphics/SVG/1.1/DTD/svg11.dtd">
<svg version="1.1" xmlns="http://www.w3.org/2000/svg" xmlns:xlink="http://www.w3.org/1999/xlink" width="48" height="48" viewBox="0 0 48 48">
<path fill="#181818" d="M24 31.969q1.594 0 2.813 1.219t1.219 2.813-1.219 2.813-2.813 1.219-2.813-1.219-1.219-2.813 1.219-2.813 2.813-1.219zM24 19.969q1.594 0 2.813 1.219t1.219 2.813-1.219 2.813-2.813 1.219-2.813-1.219-1.219-2.813 1.219-2.813 2.813-1.219zM24 16.031q-1.594 0-2.813-1.219t-1.219-2.813 1.219-2.813 2.813-1.219 2.813 1.219 1.219 2.813-1.219 2.813-2.813 1.219z"></path>
</svg>
