<?xml version="1.0" encoding="utf-8"?>
<!-- Generated by IcoMoon.io -->
<!DOCTYPE svg PUBLIC "-//W3C//DTD SVG 1.1//EN" "http://www.w3.org/Graphics/SVG/1.1/DTD/svg11.dtd">
<svg version="1.1" xmlns="http://www.w3.org/2000/svg" xmlns:xlink="http://www.w3.org/1999/xlink" width="48" height="48" viewBox="0 0 48 48">
<path fill="#181818" d="M37.969 34.031q2.438 0 4.219-1.781t1.781-4.219-1.781-4.219-4.219-1.781-4.219 1.781-1.781 4.219 1.781 4.219 4.219 1.781zM15.656 30h-5.625v-4.031h5.625q-0.656-1.781-2.203-2.859t-3.422-1.078q-2.438 0-4.219 1.781t-1.781 4.219 1.781 4.219 4.219 1.781q1.875 0 3.422-1.125t2.203-2.906zM38.906 18.094q3.844 0.281 6.469 3.094t2.625 6.844q0 4.219-2.906 7.078t-7.125 2.859-7.078-2.859-2.859-7.078q0-1.875 0.563-3.563l-5.531 5.531h-3.281q-0.75 3.469-3.422 5.719t-6.328 2.25q-4.219 0-7.125-2.859t-2.906-7.078 2.906-7.125 7.125-2.906h23.156l-4.031-4.031h-7.125v-3.938h8.813z"></path>
</svg>
