<?xml version="1.0" encoding="utf-8"?>
<!-- Generated by IcoMoon.io -->
<!DOCTYPE svg PUBLIC "-//W3C//DTD SVG 1.1//EN" "http://www.w3.org/Graphics/SVG/1.1/DTD/svg11.dtd">
<svg version="1.1" xmlns="http://www.w3.org/2000/svg" xmlns:xlink="http://www.w3.org/1999/xlink" width="48" height="48" viewBox="0 0 48 48">
<path fill="#181818" d="M31.969 19.969l-7.969 8.063-7.969-8.063h3.938v-6h8.063v6h3.938zM37.969 30v-19.969h-28.031v19.969h8.063q0 2.438 1.781 4.219t4.219 1.781 4.219-1.781 1.781-4.219h7.969zM37.969 6q1.594 0 2.813 1.219t1.219 2.813v27.938q0 1.594-1.219 2.813t-2.813 1.219h-28.031q-1.688 0-2.813-1.172t-1.125-2.859v-27.938q0-1.688 1.125-2.859t2.813-1.172h28.031z"></path>
</svg>
