<?xml version="1.0" encoding="utf-8"?>
<!-- Generated by IcoMoon.io -->
<!DOCTYPE svg PUBLIC "-//W3C//DTD SVG 1.1//EN" "http://www.w3.org/Graphics/SVG/1.1/DTD/svg11.dtd">
<svg version="1.1" xmlns="http://www.w3.org/2000/svg" xmlns:xlink="http://www.w3.org/1999/xlink" width="48" height="48" viewBox="0 0 48 48">
<path fill="#181818" d="M30.188 24.375l2.344-1.031-2.344-1.031-1.031-2.344-1.031 2.344-2.344 1.031 2.344 1.031 1.031 2.344zM22.875 31.406l4.594-2.156-4.594-2.063-2.156-4.688-2.063 4.688-4.688 2.063 4.688 2.156 2.063 4.594zM36 7.969h7.969v28.031q0 1.594-1.172 2.813t-2.766 1.219h-32.063q-1.594 0-2.766-1.219t-1.172-2.813v-24q0-1.594 1.172-2.813t2.766-1.219h2.063l3.938 8.063h6l-3.938-8.063h3.938l4.031 8.063h6l-4.031-8.063h4.031l4.031 8.063h6z"></path>
</svg>
