<?xml version="1.0" encoding="utf-8"?>
<!-- Generated by IcoMoon.io -->
<!DOCTYPE svg PUBLIC "-//W3C//DTD SVG 1.1//EN" "http://www.w3.org/Graphics/SVG/1.1/DTD/svg11.dtd">
<svg version="1.1" xmlns="http://www.w3.org/2000/svg" xmlns:xlink="http://www.w3.org/1999/xlink" width="48" height="48" viewBox="0 0 48 48">
<path fill="#181818" d="M9 22.031q-1.313 0-2.156-0.891t-0.844-2.109 0.844-2.109 2.156-0.891 2.156 0.891 0.844 2.109-0.844 2.109-2.156 0.891zM44.344 18.375q0 5.344-3.563 9.281t-8.813 4.594v7.781h6v3.938h-31.969v-9.938h-1.969v-8.063q0-0.844 0.563-1.406t1.406-0.563h6q0.844 0 1.406 0.563t0.563 1.406v8.063h-1.969v6h16.031v-7.875q-5.063-0.844-8.391-4.734t-3.328-9.047q0-5.813 4.125-9.938t9.938-4.125 9.891 4.125 4.078 9.938z"></path>
</svg>
