<?xml version="1.0" encoding="utf-8"?>
<!-- Generated by IcoMoon.io -->
<!DOCTYPE svg PUBLIC "-//W3C//DTD SVG 1.1//EN" "http://www.w3.org/Graphics/SVG/1.1/DTD/svg11.dtd">
<svg version="1.1" xmlns="http://www.w3.org/2000/svg" xmlns:xlink="http://www.w3.org/1999/xlink" width="48" height="48" viewBox="0 0 48 48">
<path fill="#181818" d="M10.031 25.969q6-6 14.625-5.719l-2.625 5.719q-4.594 0.563-8.063 4.031zM34.031 30q-1.031-1.031-2.438-1.969l1.125-5.813q3 1.5 5.25 3.75zM42 22.031q-3.656-3.656-8.25-5.531l1.031-5.625q6.469 2.344 11.25 7.125zM1.969 18q5.531-5.531 12.797-7.734t14.672-0.891l-2.344 5.344q-5.719-0.75-11.297 1.172t-9.797 6.141zM31.781 10.031q1.031 0 1.031 0.938l-4.875 25.781v0.094q-0.281 1.313-1.406 2.25t-2.531 0.938q-1.688 0-2.859-1.172t-1.172-2.859q0-1.031 0.469-1.969l10.406-23.25q0.281-0.75 0.938-0.75z"></path>
</svg>
