<?xml version="1.0" encoding="utf-8"?>
<!-- Generated by IcoMoon.io -->
<!DOCTYPE svg PUBLIC "-//W3C//DTD SVG 1.1//EN" "http://www.w3.org/Graphics/SVG/1.1/DTD/svg11.dtd">
<svg version="1.1" xmlns="http://www.w3.org/2000/svg" xmlns:xlink="http://www.w3.org/1999/xlink" width="48" height="48" viewBox="0 0 48 48">
<path fill="#181818" d="M42 31.969v-3q0-1.219-0.844-2.109t-2.156-0.891-2.156 0.891-0.844 2.109v3h6zM43.969 31.969q0.844 0 1.453 0.609t0.609 1.453v7.969q0 0.844-0.609 1.406t-1.453 0.563h-9.938q-0.844 0-1.453-0.563t-0.609-1.406v-7.969q0-0.844 0.609-1.453t1.453-0.609v-3q0-2.063 1.453-3.516t3.516-1.453 3.516 1.453 1.453 3.516v3zM39 19.969q-3.75 0-6.375 2.625t-2.625 6.375v0.563q-1.969 1.781-1.969 4.5v6h-26.063l38.063-38.063v18.094q-0.188 0-0.516-0.047t-0.516-0.047z"></path>
</svg>
