<?xml version="1.0" encoding="utf-8"?>
<!-- Generated by IcoMoon.io -->
<!DOCTYPE svg PUBLIC "-//W3C//DTD SVG 1.1//EN" "http://www.w3.org/Graphics/SVG/1.1/DTD/svg11.dtd">
<svg version="1.1" xmlns="http://www.w3.org/2000/svg" xmlns:xlink="http://www.w3.org/1999/xlink" width="48" height="48" viewBox="0 0 48 48">
<path fill="#181818" d="M22.031 37.031l7.969-8.063-7.969-7.969-2.063 1.969 6 6-6 6zM19.969 10.031v3.938h8.063v-3.938h-8.063zM28.031 6q1.594 0 2.766 1.172t1.172 2.859v3.938h8.063q1.594 0 2.766 1.219t1.172 2.813v22.031q0 1.594-1.172 2.766t-2.766 1.172h-32.063q-1.594 0-2.766-1.172t-1.172-2.766v-22.031q0-1.594 1.172-2.813t2.766-1.219h8.063v-3.938q0-1.594 1.172-2.813t2.766-1.219h8.063z"></path>
</svg>
