<?xml version="1.0" encoding="utf-8"?>
<!-- Generated by IcoMoon.io -->
<!DOCTYPE svg PUBLIC "-//W3C//DTD SVG 1.1//EN" "http://www.w3.org/Graphics/SVG/1.1/DTD/svg11.dtd">
<svg version="1.1" xmlns="http://www.w3.org/2000/svg" xmlns:xlink="http://www.w3.org/1999/xlink" width="48" height="48" viewBox="0 0 48 48">
<path fill="#181818" d="M36 12v24h-24v-24h7.969v4.031h-3.938v15.938h15.938v-15.938h-6v4.5q2.063 1.125 2.063 3.469 0 1.594-1.219 2.813t-2.813 1.219-2.813-1.219-1.219-2.813q0-2.344 2.063-3.469v-4.5q0-1.594 1.172-2.813t2.766-1.219h10.031zM40.031 40.031v-32.063h-32.063v32.063h32.063zM40.031 4.031q1.594 0 2.766 1.172t1.172 2.766v32.063q0 1.594-1.172 2.766t-2.766 1.172h-32.063q-1.594 0-2.766-1.172t-1.172-2.766v-32.063q0-1.594 1.172-2.766t2.766-1.172h32.063z"></path>
</svg>
