<?xml version="1.0" encoding="utf-8"?>
<!-- Generated by IcoMoon.io -->
<!DOCTYPE svg PUBLIC "-//W3C//DTD SVG 1.1//EN" "http://www.w3.org/Graphics/SVG/1.1/DTD/svg11.dtd">
<svg version="1.1" xmlns="http://www.w3.org/2000/svg" xmlns:xlink="http://www.w3.org/1999/xlink" width="48" height="48" viewBox="0 0 48 48">
<path fill="#181818" d="M17.813 12v2.438l-3.656-3.656q0.469-3.75 3.234-6.281t6.609-2.531q4.125 0 7.078 2.953t2.953 7.078v4.031h1.969q1.594 0 2.813 1.172t1.219 2.766v16.688l-20.719-20.625h10.875v-4.031q0-2.531-1.828-4.359t-4.359-1.828-4.359 1.828-1.828 4.359zM42 43.594l-2.438 2.438-2.25-2.25q-0.75 0.188-1.313 0.188h-24q-1.594 0-2.813-1.172t-1.219-2.766v-20.063q0-2.344 2.156-3.469l-4.125-4.031 2.438-2.438z"></path>
</svg>
