<?xml version="1.0" encoding="utf-8"?>
<!-- Generated by IcoMoon.io -->
<!DOCTYPE svg PUBLIC "-//W3C//DTD SVG 1.1//EN" "http://www.w3.org/Graphics/SVG/1.1/DTD/svg11.dtd">
<svg version="1.1" xmlns="http://www.w3.org/2000/svg" xmlns:xlink="http://www.w3.org/1999/xlink" width="48" height="48" viewBox="0 0 48 48">
<path fill="#181818" d="M36 29.344l-17.906-18.844q0.281-0.094 0.75-0.328l0.656-0.328h0.094l0.563-0.281q0.094 0 0.375-0.094t0.469-0.094v-1.406q0-1.219 0.844-2.109t2.156-0.891 2.156 0.891 0.844 2.109v1.406q4.219 1.031 6.609 4.5t2.391 8.156v7.313zM24 43.969q-1.688 0-2.859-1.125t-1.172-2.813h8.063q0 1.688-1.172 2.813t-2.859 1.125zM15.656 12.281q2.25 2.344 11.766 12.094t14.578 15.094l-2.531 2.531-4.031-4.031h-27.469v-1.969l4.031-4.031v-10.031q0-3.844 1.594-6.844l-5.625-5.531 2.531-2.625z"></path>
</svg>
