<?xml version="1.0" encoding="utf-8"?>
<!-- Generated by IcoMoon.io -->
<!DOCTYPE svg PUBLIC "-//W3C//DTD SVG 1.1//EN" "http://www.w3.org/Graphics/SVG/1.1/DTD/svg11.dtd">
<svg version="1.1" xmlns="http://www.w3.org/2000/svg" xmlns:xlink="http://www.w3.org/1999/xlink" width="48" height="48" viewBox="0 0 48 48">
<path fill="#181818" d="M28.969 19.594v-3.563h-9.938v3.563h5.531l-5.531 6.844v3.563h9.938v-3.563h-5.531zM36 31.969l4.031 4.031v1.969h-32.063v-1.969l4.031-4.031v-9.938q0-4.688 2.391-8.156t6.609-4.5v-1.406q0-1.219 0.844-2.109t2.156-0.891 2.156 0.891 0.844 2.109v1.406q4.219 1.031 6.609 4.5t2.391 8.156v9.938zM24 43.969q-1.688 0-2.859-1.172t-1.172-2.766h8.063q0 1.594-1.219 2.766t-2.813 1.172z"></path>
</svg>
