<?xml version="1.0" encoding="utf-8"?>
<!-- Generated by IcoMoon.io -->
<!DOCTYPE svg PUBLIC "-//W3C//DTD SVG 1.1//EN" "http://www.w3.org/Graphics/SVG/1.1/DTD/svg11.dtd">
<svg version="1.1" xmlns="http://www.w3.org/2000/svg" xmlns:xlink="http://www.w3.org/1999/xlink" width="48" height="48" viewBox="0 0 48 48">
<path fill="#181818" d="M24 43.969q-1.688 0-2.859-1.172t-1.172-2.766h7.969q0 1.688-1.125 2.813t-2.813 1.125zM36 22.031v9.938l4.031 4.031v1.969h-32.063v-1.969l4.031-4.031v-9.938q0-4.688 2.391-8.156t6.609-4.5v-1.406q0-1.219 0.844-2.109t2.156-0.891 2.156 0.891 0.844 2.109v1.406q4.219 1.031 6.609 4.5t2.391 8.156zM39.938 21q-0.469-8.063-7.031-12.844l2.813-2.813q7.781 6 8.25 15.656h-4.031zM15.188 8.156q-6.656 4.688-7.125 12.844h-4.031q0.469-9.656 8.25-15.656z"></path>
</svg>
