<?xml version="1.0" encoding="utf-8"?>
<!-- Generated by IcoMoon.io -->
<!DOCTYPE svg PUBLIC "-//W3C//DTD SVG 1.1//EN" "http://www.w3.org/Graphics/SVG/1.1/DTD/svg11.dtd">
<svg version="1.1" xmlns="http://www.w3.org/2000/svg" xmlns:xlink="http://www.w3.org/1999/xlink" width="48" height="48" viewBox="0 0 48 48">
<path fill="#181818" d="M7.969 25.969v14.063h14.063v3.938h-14.063q-1.594 0-2.766-1.172t-1.172-2.766v-14.063h3.938zM40.031 40.031v-14.063h3.938v14.063q0 1.594-1.172 2.766t-2.766 1.172h-14.063v-3.938h14.063zM40.031 4.031q1.594 0 2.766 1.172t1.172 2.766v14.063h-3.938v-14.063h-14.063v-3.938h14.063zM34.031 16.969q0 1.219-0.891 2.109t-2.109 0.891-2.109-0.891-0.891-2.109 0.891-2.109 2.109-0.891 2.109 0.891 0.891 2.109zM19.969 25.969l6 7.406 4.031-5.344 6 7.969h-24zM7.969 7.969v14.063h-3.938v-14.063q0-1.594 1.172-2.766t2.766-1.172h14.063v3.938h-14.063z"></path>
</svg>
