<?xml version="1.0" encoding="utf-8"?>
<!-- Generated by IcoMoon.io -->
<!DOCTYPE svg PUBLIC "-//W3C//DTD SVG 1.1//EN" "http://www.w3.org/Graphics/SVG/1.1/DTD/svg11.dtd">
<svg version="1.1" xmlns="http://www.w3.org/2000/svg" xmlns:xlink="http://www.w3.org/1999/xlink" width="48" height="48" viewBox="0 0 48 48">
<path fill="#181818" d="M33.563 36.375l2.813-2.813-5.813-5.813q1.406-2.344 1.406-4.781 0-3.75-2.625-6.375t-6.375-2.625-6.375 2.625-2.625 6.375 2.625 6.375 6.375 2.625q2.438 0 4.781-1.406zM40.031 7.969q1.594 0 2.766 1.219t1.172 2.813v24q0 1.594-1.172 2.813t-2.766 1.219h-32.063q-1.594 0-2.766-1.219t-1.172-2.813v-24q0-1.594 1.172-2.813t2.766-1.219h32.063zM22.969 18q2.063 0 3.563 1.453t1.5 3.516-1.5 3.563-3.563 1.5-3.516-1.5-1.453-3.563 1.453-3.516 3.516-1.453z"></path>
</svg>
