<?xml version="1.0" encoding="utf-8"?>
<!-- Generated by IcoMoon.io -->
<!DOCTYPE svg PUBLIC "-//W3C//DTD SVG 1.1//EN" "http://www.w3.org/Graphics/SVG/1.1/DTD/svg11.dtd">
<svg version="1.1" xmlns="http://www.w3.org/2000/svg" xmlns:xlink="http://www.w3.org/1999/xlink" width="48" height="48" viewBox="0 0 48 48">
<path fill="#181818" d="M37.969 6q1.594 0 2.813 1.219t1.219 2.813v12h-10.031l2.063-8.063-8.063 2.063v-10.031h12zM34.031 34.031l-2.063-8.063h10.031v12q0 1.594-1.219 2.813t-2.813 1.219h-12v-10.031zM16.031 25.969l-2.063 8.063 8.063-2.063v10.031h-12q-1.594 0-2.813-1.219t-1.219-2.813v-12h10.031zM6 10.031q0-1.594 1.219-2.813t2.813-1.219h12v10.031l-8.063-2.063 2.063 8.063h-10.031v-12z"></path>
</svg>
