<?xml version="1.0" encoding="utf-8"?>
<!-- Generated by IcoMoon.io -->
<!DOCTYPE svg PUBLIC "-//W3C//DTD SVG 1.1//EN" "http://www.w3.org/Graphics/SVG/1.1/DTD/svg11.dtd">
<svg version="1.1" xmlns="http://www.w3.org/2000/svg" xmlns:xlink="http://www.w3.org/1999/xlink" width="48" height="48" viewBox="0 0 48 48">
<path fill="#181818" d="M46.031 10.969v29.063q0 3.281-2.391 5.625t-5.672 2.344h-14.531q-3.375 0-5.719-2.344l-15.75-16.031q2.531-2.438 2.625-2.438 0.656-0.563 1.594-0.563 0.656 0 1.219 0.281l8.625 4.875v-23.813q0-1.219 0.891-2.109t2.109-0.891 2.109 0.891 0.891 2.109v14.063h1.969v-19.031q0-1.313 0.844-2.156t2.156-0.844 2.156 0.844 0.844 2.156v19.031h1.969v-17.063q0-1.219 0.891-2.109t2.109-0.891 2.109 0.891 0.891 2.109v17.063h2.063v-11.063q0-1.219 0.891-2.109t2.109-0.891 2.109 0.891 0.891 2.109z"></path>
</svg>
