<?xml version="1.0" encoding="utf-8"?>
<!-- Generated by IcoMoon.io -->
<!DOCTYPE svg PUBLIC "-//W3C//DTD SVG 1.1//EN" "http://www.w3.org/Graphics/SVG/1.1/DTD/svg11.dtd">
<svg version="1.1" xmlns="http://www.w3.org/2000/svg" xmlns:xlink="http://www.w3.org/1999/xlink" width="48" height="48" viewBox="0 0 48 48">
<path fill="#181818" d="M24 7.969q7.219 0 15.938 1.5l1.781 0.281 0.563 1.781q1.688 6.188 1.688 12.469t-1.688 12.469l-0.563 1.781-1.781 0.281q-8.719 1.5-15.938 1.5t-15.938-1.5l-1.781-0.281-0.563-1.781q-1.688-6.188-1.688-12.469t1.688-12.469l0.563-1.781 1.781-0.281q8.719-1.5 15.938-1.5zM24 12q-6.563 0-14.625 1.313-1.406 5.344-1.406 10.688t1.406 10.688q8.063 1.313 14.625 1.313t14.625-1.313q1.406-5.344 1.406-10.688t-1.406-10.688q-8.063-1.313-14.625-1.313z"></path>
</svg>
