<?xml version="1.0" encoding="utf-8"?>
<!-- Generated by IcoMoon.io -->
<!DOCTYPE svg PUBLIC "-//W3C//DTD SVG 1.1//EN" "http://www.w3.org/Graphics/SVG/1.1/DTD/svg11.dtd">
<svg version="1.1" xmlns="http://www.w3.org/2000/svg" xmlns:xlink="http://www.w3.org/1999/xlink" width="48" height="48" viewBox="0 0 48 48">
<path fill="#181818" d="M42.844 7.969q1.125 0 1.125 1.313v29.438q0 1.313-1.125 1.313-0.188 0-0.563-0.188-9-3.281-18.281-3.281t-18.281 3.281q-0.375 0.188-0.563 0.188-1.125 0-1.125-1.313v-29.438q0-1.313 1.125-1.313 0.188 0 0.563 0.188 9 3.281 18.281 3.281t18.281-3.281q0.375-0.188 0.563-0.188zM40.031 13.125q-7.313 2.25-16.031 2.25-8.25 0-16.031-2.25v21.75q7.688-2.25 16.031-2.25 8.25 0 16.031 2.25v-21.75z"></path>
</svg>
