<?xml version="1.0" encoding="utf-8"?>
<!-- Generated by IcoMoon.io -->
<!DOCTYPE svg PUBLIC "-//W3C//DTD SVG 1.1//EN" "http://www.w3.org/Graphics/SVG/1.1/DTD/svg11.dtd">
<svg version="1.1" xmlns="http://www.w3.org/2000/svg" xmlns:xlink="http://www.w3.org/1999/xlink" width="48" height="48" viewBox="0 0 48 48">
<path fill="#181818" d="M13.125 40.031h21.75q-2.25-7.781-2.25-16.031t2.25-16.031h-21.75q2.25 7.688 2.25 16.031 0 8.25-2.25 16.031zM39.844 42.281q0.188 0.375 0.188 0.563 0 1.125-1.313 1.125h-29.438q-1.313 0-1.313-1.125 0-0.188 0.188-0.563 3.281-9 3.281-18.281t-3.281-18.281q-0.188-0.375-0.188-0.563 0-1.125 1.313-1.125h29.438q1.313 0 1.313 1.125 0 0.188-0.188 0.563-3.281 9-3.281 18.281t3.281 18.281z"></path>
</svg>
