<?xml version="1.0" encoding="utf-8"?>
<!-- Generated by IcoMoon.io -->
<!DOCTYPE svg PUBLIC "-//W3C//DTD SVG 1.1//EN" "http://www.w3.org/Graphics/SVG/1.1/DTD/svg11.dtd">
<svg version="1.1" xmlns="http://www.w3.org/2000/svg" xmlns:xlink="http://www.w3.org/1999/xlink" width="48" height="48" viewBox="0 0 48 48">
<path fill="#181818" d="M24 34.031q4.125 0 7.078-2.953t2.953-7.078q0-0.656-0.188-1.969h-4.219q0.375 1.313 0.375 1.969 0 2.438-1.781 4.219t-4.219 1.781h-7.969q3.094 4.031 7.969 4.031zM24 13.969q-4.125 0-7.078 2.953t-2.953 7.078q0 0.656 0.188 1.969h4.219q-0.375-1.313-0.375-1.969 0-2.438 1.781-4.219t4.219-1.781h7.969q-3.094-4.031-7.969-4.031zM40.031 7.969q1.594 0 2.766 1.219t1.172 2.813v24q0 1.594-1.172 2.813t-2.766 1.219h-32.063q-1.594 0-2.766-1.219t-1.172-2.813v-24q0-1.594 1.172-2.813t2.766-1.219h6.375l3.656-3.938h12l3.656 3.938h6.375z"></path>
</svg>
