<?xml version="1.0" encoding="utf-8"?>
<!-- Generated by IcoMoon.io -->
<!DOCTYPE svg PUBLIC "-//W3C//DTD SVG 1.1//EN" "http://www.w3.org/Graphics/SVG/1.1/DTD/svg11.dtd">
<svg version="1.1" xmlns="http://www.w3.org/2000/svg" xmlns:xlink="http://www.w3.org/1999/xlink" width="48" height="48" viewBox="0 0 48 48">
<path fill="#181818" d="M33 13.031q-1.594 0-2.813 1.172t-1.219 2.766 1.219 2.813 2.813 1.219 2.813-1.219 1.219-2.813-1.219-2.766-2.813-1.172zM33 24q-2.906 0-4.969-2.063t-2.063-4.969 2.063-4.922 4.969-2.016 4.969 2.016 2.063 4.922-2.063 4.969-4.969 2.063zM15 13.031q-1.594 0-2.813 1.172t-1.219 2.766 1.219 2.813 2.813 1.219 2.813-1.219 1.219-2.813-1.219-2.766-2.813-1.172zM15 24q-2.906 0-4.969-2.063t-2.063-4.969 2.063-4.922 4.969-2.016 4.969 2.016 2.063 4.922-2.063 4.969-4.969 2.063zM43.031 34.969v-2.438q0-0.938-3.328-2.25t-6.703-1.313q-2.438 0-6 1.125 1.031 1.219 1.031 2.438v2.438h15zM25.031 34.969v-2.438q0-0.938-3.328-2.25t-6.703-1.313-6.703 1.313-3.328 2.25v2.438h20.063zM33 25.969q4.031 0 8.531 1.828t4.5 4.734v5.438h-44.063v-5.438q0-2.906 4.5-4.734t8.531-1.828q4.406 0 9 2.063 4.594-2.063 9-2.063z"></path>
</svg>
