<?xml version="1.0" encoding="utf-8"?>
<!-- Generated by IcoMoon.io -->
<!DOCTYPE svg PUBLIC "-//W3C//DTD SVG 1.1//EN" "http://www.w3.org/Graphics/SVG/1.1/DTD/svg11.dtd">
<svg version="1.1" xmlns="http://www.w3.org/2000/svg" xmlns:xlink="http://www.w3.org/1999/xlink" width="48" height="48" viewBox="0 0 48 48">
<path fill="#181818" d="M37.969 40.969q1.219 0 2.109-0.891t0.891-2.109-0.891-2.109-2.109-0.891-2.109 0.891-0.891 2.109 0.891 2.109 2.109 0.891zM45.375 39l2.156 1.594q0.281 0.281 0.094 0.656l-1.969 3.469q-0.281 0.469-0.656 0.281l-2.438-1.031q-0.281 0.281-1.688 0.938l-0.375 2.719q0 0.375-0.563 0.375h-3.938q-0.563 0-0.563-0.375l-0.375-2.719q-0.75-0.375-1.688-0.938l-2.438 1.031q-0.469 0.188-0.656-0.281l-1.969-3.469q-0.188-0.375 0.094-0.656l2.156-1.594q0-0.094-0.047-0.469t-0.047-0.563 0.047-0.516 0.047-0.422l-2.156-1.688q-0.281-0.281-0.094-0.656l1.969-3.469q0.188-0.375 0.656-0.188l2.438 1.031q1.125-0.75 1.688-1.031l0.375-2.625q0-0.375 0.563-0.375h3.938q0.563 0 0.563 0.375l0.375 2.625q0.375 0.188 1.688 1.031l2.438-1.031q0.469-0.188 0.656 0.188l1.969 3.469q0.188 0.375-0.094 0.656l-2.156 1.688q0.094 0.281 0.094 0.938 0 0.188-0.047 0.563t-0.047 0.469zM37.969 22.969q-6.188 0-10.594 4.406t-4.406 10.594q0 0.75 0.188 2.063h-23.156l40.031-40.031-0.094 23.156q-1.313-0.188-1.969-0.188z"></path>
</svg>
