<?xml version="1.0" encoding="utf-8"?>
<!-- Generated by IcoMoon.io -->
<!DOCTYPE svg PUBLIC "-//W3C//DTD SVG 1.1//EN" "http://www.w3.org/Graphics/SVG/1.1/DTD/svg11.dtd">
<svg version="1.1" xmlns="http://www.w3.org/2000/svg" xmlns:xlink="http://www.w3.org/1999/xlink" width="48" height="48" viewBox="0 0 48 48">
<path fill="#181818" d="M24 25.969q3 0 6.563 0.844t6.516 2.813 2.953 4.406v6h-32.063v-6q0-2.438 2.953-4.406t6.516-2.813 6.563-0.844zM24 7.969q3.281 0 5.625 2.391t2.344 5.672-2.344 5.625-5.625 2.344-5.625-2.344-2.344-5.625 2.344-5.672 5.625-2.391zM24 29.813q-4.125 0-8.156 1.547t-4.031 2.672v2.156h24.375v-2.156q0-1.125-4.031-2.672t-8.156-1.547zM24 11.813q-1.781 0-3 1.219t-1.219 3 1.219 2.953 3 1.172 3-1.172 1.219-2.953-1.219-3-3-1.219z"></path>
</svg>
