<?xml version="1.0" encoding="utf-8"?>
<!-- Generated by IcoMoon.io -->
<!DOCTYPE svg PUBLIC "-//W3C//DTD SVG 1.1//EN" "http://www.w3.org/Graphics/SVG/1.1/DTD/svg11.dtd">
<svg version="1.1" xmlns="http://www.w3.org/2000/svg" xmlns:xlink="http://www.w3.org/1999/xlink" width="48" height="48" viewBox="0 0 48 48">
<path fill="#181818" d="M28.031 25.969v-7.969q0-1.594-1.219-2.813t-2.813-1.219-2.813 1.219-1.219 2.813v7.969q0 1.594 1.219 2.813t2.813 1.219 2.813-1.219 1.219-2.813zM40.031 10.031q1.594 0 2.766 1.172t1.172 2.766v24q0 1.594-1.172 2.813t-2.766 1.219h-14.063v-4.219q4.219-0.75 7.125-4.078t2.906-7.734h-4.031q0 3.281-2.344 5.672t-5.625 2.391-5.625-2.391-2.344-5.672h-4.031q0 4.406 2.906 7.734t7.125 4.078v4.219h-14.063q-1.594 0-2.766-1.219t-1.172-2.813v-24q0-1.594 1.172-2.766t2.766-1.172h6.375l3.656-4.031h12l3.656 4.031h6.375z"></path>
</svg>
