<?xml version="1.0" encoding="utf-8"?>
<!-- Generated by IcoMoon.io -->
<!DOCTYPE svg PUBLIC "-//W3C//DTD SVG 1.1//EN" "http://www.w3.org/Graphics/SVG/1.1/DTD/svg11.dtd">
<svg version="1.1" xmlns="http://www.w3.org/2000/svg" xmlns:xlink="http://www.w3.org/1999/xlink" width="48" height="48" viewBox="0 0 48 48">
<path fill="#181818" d="M24 28.031q5.156 0 7.969-4.313 0-1.781-2.766-2.953t-5.203-1.172-5.203 1.172-2.766 2.953q2.813 4.313 7.969 4.313zM24 7.969q-1.594 0-2.813 1.219t-1.219 2.813q0 1.688 1.219 2.859t2.813 1.172 2.813-1.172 1.219-2.859q0-1.594-1.219-2.813t-2.813-1.219zM24 4.031q5.813 0 9.891 4.078t4.078 9.891q0 2.906-1.453 6.656t-3.516 7.031-4.078 6.141-3.422 4.547l-1.5 1.594q-0.563-0.656-1.5-1.734t-3.375-4.313-4.266-6.281-3.328-6.891-1.5-6.75q0-5.813 4.078-9.891t9.891-4.078z"></path>
</svg>
