<?xml version="1.0" encoding="utf-8"?>
<!-- Generated by IcoMoon.io -->
<!DOCTYPE svg PUBLIC "-//W3C//DTD SVG 1.1//EN" "http://www.w3.org/Graphics/SVG/1.1/DTD/svg11.dtd">
<svg version="1.1" xmlns="http://www.w3.org/2000/svg" xmlns:xlink="http://www.w3.org/1999/xlink" width="48" height="48" viewBox="0 0 48 48">
<path fill="#181818" d="M34.688 29.719l1.594 1.594t0.797 0.844 0.75 0.891 0.703 0.891 0.609 0.938 0.469 1.031 0.281 1.078 0.094 1.125-0.047 1.172q-1.031 3.938-4.688 4.688-0.656 0.094-4.547-0.375t-6.516-0.469h-0.375q-2.625 0-6.516 0.469t-4.547 0.375q-3.656-0.75-4.688-4.688-0.281-1.875 0.656-3.844t1.734-2.813 2.859-2.906q0.938-1.031 2.484-2.906t2.484-2.906q1.688-2.063 3.469-2.625 0.375-0.188 0.656-0.188 0.563-0.094 1.594-0.094 1.125 0 1.594 0.094 0.281 0 0.656 0.188 1.781 0.563 3.469 2.625 0.844 1.031 2.438 2.906t2.531 2.906zM34.031 19.031q0-2.063 1.453-3.563t3.516-1.5 3.516 1.5 1.453 3.563-1.453 3.516-3.516 1.453-3.516-1.453-1.453-3.516zM25.031 10.969q0-2.063 1.453-3.516t3.516-1.453 3.516 1.453 1.453 3.516-1.453 3.563-3.516 1.5-3.516-1.5-1.453-3.563zM13.031 10.969q0-2.063 1.453-3.516t3.516-1.453 3.516 1.453 1.453 3.516-1.453 3.563-3.516 1.5-3.516-1.5-1.453-3.563zM4.031 19.031q0-2.063 1.453-3.563t3.516-1.5 3.516 1.5 1.453 3.563-1.453 3.516-3.516 1.453-3.516-1.453-1.453-3.516z"></path>
</svg>
