<?xml version="1.0" encoding="utf-8"?>
<!-- Generated by IcoMoon.io -->
<!DOCTYPE svg PUBLIC "-//W3C//DTD SVG 1.1//EN" "http://www.w3.org/Graphics/SVG/1.1/DTD/svg11.dtd">
<svg version="1.1" xmlns="http://www.w3.org/2000/svg" xmlns:xlink="http://www.w3.org/1999/xlink" width="48" height="48" viewBox="0 0 48 48">
<path fill="#181818" d="M19.031 22.031v-3q0-1.125-0.891-1.875t-2.109-0.75-2.109 0.75-0.891 1.875v3h6zM21.563 22.031q0.938 0 1.688 0.75t0.75 1.781v7.031q0 0.938-0.797 1.688t-1.828 0.75h-10.969q-0.938 0-1.688-0.797t-0.75-1.828v-7.031q0-0.938 0.75-1.641t1.688-0.703v-3q0-2.063 1.734-3.563t3.891-1.5 3.844 1.5 1.688 3.563v3zM37.969 1.969q1.594 0 2.813 1.219t1.219 2.813v36q0 1.594-1.219 2.813t-2.813 1.219h-19.969q-1.594 0-2.813-1.219t-1.219-2.813v-6h4.031v4.031h19.969v-32.063h-19.969v4.031h-4.031v-6q0-1.594 1.219-2.813t2.813-1.219h19.969z"></path>
</svg>
