<?xml version="1.0" encoding="utf-8"?>
<!-- Generated by IcoMoon.io -->
<!DOCTYPE svg PUBLIC "-//W3C//DTD SVG 1.1//EN" "http://www.w3.org/Graphics/SVG/1.1/DTD/svg11.dtd">
<svg version="1.1" xmlns="http://www.w3.org/2000/svg" xmlns:xlink="http://www.w3.org/1999/xlink" width="48" height="48" viewBox="0 0 48 48">
<path fill="#181818" d="M46.031 16.031q0.844 0 1.406 0.563t0.563 1.406v19.969q0 0.844-0.563 1.453t-1.406 0.609h-0.375l-6-6h4.313v-14.063h-7.969v10.406l-4.031-4.031v-8.344q0-0.844 0.609-1.406t1.453-0.563h12zM7.969 12.563v21.469h21.469zM3.844 3.281q7.594 7.594 21.609 21.656t17.203 17.25l-2.531 2.531-4.688-4.688h-35.438v-6h4.031v-22.031q0-1.406 0.938-2.531l-3.656-3.656zM43.969 12h-26.344l-4.031-4.031h30.375v4.031z"></path>
</svg>
