<?xml version="1.0" encoding="utf-8"?>
<!-- Generated by IcoMoon.io -->
<!DOCTYPE svg PUBLIC "-//W3C//DTD SVG 1.1//EN" "http://www.w3.org/Graphics/SVG/1.1/DTD/svg11.dtd">
<svg version="1.1" xmlns="http://www.w3.org/2000/svg" xmlns:xlink="http://www.w3.org/1999/xlink" width="48" height="48" viewBox="0 0 48 48">
<path fill="#181818" d="M37.969 1.969q1.594 0 2.813 1.219t1.219 2.813v36q0 1.594-1.219 2.813t-2.813 1.219h-19.969q-1.594 0-2.813-1.219t-1.219-2.813v-6h4.031v4.031h19.969v-32.063h-19.969v4.031h-4.031v-6q0-1.594 1.219-2.813t2.813-1.219h19.969zM25.969 16.406l-7.969 7.969 7.969 8.063-1.969 1.969-7.969-7.969-8.063 7.969-1.969-1.969 7.969-8.063-7.969-7.969 1.969-1.969 8.063 7.969 7.969-7.969z"></path>
</svg>
