<?xml version="1.0" encoding="utf-8"?>
<!-- Generated by IcoMoon.io -->
<!DOCTYPE svg PUBLIC "-//W3C//DTD SVG 1.1//EN" "http://www.w3.org/Graphics/SVG/1.1/DTD/svg11.dtd">
<svg version="1.1" xmlns="http://www.w3.org/2000/svg" xmlns:xlink="http://www.w3.org/1999/xlink" width="48" height="48" viewBox="0 0 48 48">
<path fill="#181818" d="M38.438 7.969v-0.938q0-1.406-1.031-2.438t-2.438-1.031-2.391 1.031-0.984 2.438v0.938h6.844zM40.031 7.969q0.844 0 1.406 0.609t0.563 1.453v7.969q0 0.844-0.563 1.406t-1.406 0.563h-10.031q-0.844 0-1.406-0.563t-0.563-1.406v-7.969q0-0.844 0.563-1.453t1.406-0.609v-0.938q0-2.063 1.453-3.563t3.516-1.5 3.563 1.5 1.5 3.563v0.938zM40.031 31.031q0.844 0 1.406 0.563t0.563 1.406v7.031q0 0.844-0.563 1.406t-1.406 0.563q-14.063 0-24.047-9.984t-9.984-24.047q0-0.844 0.563-1.406t1.406-0.563h7.031q0.844 0 1.406 0.563t0.563 1.406q0 3.75 1.125 7.125 0.375 1.219-0.469 2.063l-4.406 4.406q4.406 8.625 13.219 13.219l4.406-4.406q0.844-0.844 2.063-0.469 3.375 1.125 7.125 1.125z"></path>
</svg>
