<?xml version="1.0" encoding="utf-8"?>
<!-- Generated by IcoMoon.io -->
<!DOCTYPE svg PUBLIC "-//W3C//DTD SVG 1.1//EN" "http://www.w3.org/Graphics/SVG/1.1/DTD/svg11.dtd">
<svg version="1.1" xmlns="http://www.w3.org/2000/svg" xmlns:xlink="http://www.w3.org/1999/xlink" width="48" height="48" viewBox="0 0 48 48">
<path fill="#181818" d="M37.969 6h4.031v13.969h-4.031v-13.969zM40.031 31.031q0.844 0 1.406 0.563t0.563 1.406v7.031q0 0.844-0.563 1.406t-1.406 0.563q-14.063 0-24.047-9.984t-9.984-24.047q0-0.844 0.563-1.406t1.406-0.563h7.031q0.844 0 1.406 0.563t0.563 1.406q0 3.75 1.125 7.125 0.375 1.219-0.469 2.063l-4.406 4.406q4.406 8.625 13.219 13.219l4.406-4.406q0.844-0.844 2.063-0.469 3.375 1.125 7.125 1.125zM34.031 6v13.969h-4.031v-13.969h4.031z"></path>
</svg>
