<?xml version="1.0" encoding="utf-8"?>
<!-- Generated by IcoMoon.io -->
<!DOCTYPE svg PUBLIC "-//W3C//DTD SVG 1.1//EN" "http://www.w3.org/Graphics/SVG/1.1/DTD/svg11.dtd">
<svg version="1.1" xmlns="http://www.w3.org/2000/svg" xmlns:xlink="http://www.w3.org/1999/xlink" width="48" height="48" viewBox="0 0 48 48">
<path fill="#181818" d="M37.969 1.969q1.594 0 2.813 1.219t1.219 2.813v36q0 1.594-1.219 2.813t-2.813 1.219h-19.969q-1.594 0-2.813-1.219t-1.219-2.813v-6h4.031v4.031h19.969v-32.063h-19.969v4.031h-4.031v-6q0-1.594 1.219-2.813t2.813-1.219h19.969zM16.031 28.031q1.594 0 2.766-1.219t1.172-2.813-1.172-2.813-2.766-1.219-2.813 1.219-1.219 2.813 1.219 2.813 2.813 1.219zM23.625 25.031l2.156 1.781q0.375 0.375 0.188 0.563l-1.969 3.469q-0.188 0.188-0.563 0.188l-2.625-1.031q-1.313 0.844-1.781 1.031l-0.469 2.531q-0.469 0.469-0.563 0.469h-4.031q-0.188 0-0.328-0.188t-0.047-0.281l-0.375-2.531q-0.469-0.188-1.781-1.031l-2.813 0.844q-0.188 0.188-0.656-0.281l-1.969-3.375q0-0.375 0.188-0.75l2.25-1.594v-2.063l-2.25-1.594q-0.375-0.375-0.188-0.563l1.969-3.469q0.188-0.188 0.656-0.188l2.531 1.031q1.219-0.844 1.875-1.031l0.375-2.531q0.469-0.469 0.563-0.469h4.031q0.563 0 0.563 0.469l0.469 2.531q0.469 0.188 1.781 1.031l2.625-0.844q0.188-0.094 0.563 0.281l1.969 3.375q0 0.375-0.188 0.563l-2.156 1.594v2.063z"></path>
</svg>
