<?xml version="1.0" encoding="utf-8"?>
<!-- Generated by IcoMoon.io -->
<!DOCTYPE svg PUBLIC "-//W3C//DTD SVG 1.1//EN" "http://www.w3.org/Graphics/SVG/1.1/DTD/svg11.dtd">
<svg version="1.1" xmlns="http://www.w3.org/2000/svg" xmlns:xlink="http://www.w3.org/1999/xlink" width="48" height="48" viewBox="0 0 48 48">
<path fill="#181818" d="M6 37.969h19.969l-6.375-8.531-4.969 6.469-3.656-4.313zM1.969 22.031h28.031v19.969h-24q-1.594 0-2.813-1.219t-1.219-2.813v-15.938zM10.031 6h3.938v4.031h-3.938v-4.031zM18 6h4.031v4.031h-4.031v-4.031zM6 6v4.031h-4.031q0-1.5 1.266-2.766t2.766-1.266zM34.031 37.969h3.938v4.031h-3.938v-4.031zM34.031 6h3.938v4.031h-3.938v-4.031zM1.969 13.969h4.031v4.031h-4.031v-4.031zM42 6q1.5 0 2.766 1.266t1.266 2.766h-4.031v-4.031zM42 13.969h4.031v4.031h-4.031v-4.031zM25.969 6h4.031v4.031h-4.031v-4.031zM46.031 37.969q0 1.5-1.266 2.766t-2.766 1.266v-4.031h4.031zM42 22.031h4.031v3.938h-4.031v-3.938zM42 30h4.031v4.031h-4.031v-4.031z"></path>
</svg>
