<?xml version="1.0" encoding="utf-8"?>
<!-- Generated by IcoMoon.io -->
<!DOCTYPE svg PUBLIC "-//W3C//DTD SVG 1.1//EN" "http://www.w3.org/Graphics/SVG/1.1/DTD/svg11.dtd">
<svg version="1.1" xmlns="http://www.w3.org/2000/svg" xmlns:xlink="http://www.w3.org/1999/xlink" width="48" height="48" viewBox="0 0 48 48">
<path fill="#181818" d="M13.969 6v4.031h-3.938v-4.031h3.938zM22.031 6v4.031h-4.031v-4.031h4.031zM6 22.031v3.938h-4.031v-3.938h4.031zM6 6v4.031h-4.031q0-1.5 1.266-2.766t2.766-1.266zM37.969 37.969v4.031h-3.938v-4.031h3.938zM37.969 6v4.031h-3.938v-4.031h3.938zM30 37.969v4.031h-4.031v-4.031h4.031zM6 13.969v4.031h-4.031v-4.031h4.031zM6 42q-1.594 0-2.813-1.219t-1.219-2.813v-7.969h20.063v12h-16.031zM42 6q1.5 0 2.766 1.266t1.266 2.766h-4.031v-4.031zM46.031 13.969v4.031h-4.031v-4.031h4.031zM30 6v4.031h-4.031v-4.031h4.031zM46.031 37.969q0 1.5-1.266 2.766t-2.766 1.266v-4.031h4.031zM46.031 22.031v3.938h-4.031v-3.938h4.031zM46.031 30v4.031h-4.031v-4.031h4.031z"></path>
</svg>
