<?xml version="1.0" encoding="utf-8"?>
<!-- Generated by IcoMoon.io -->
<!DOCTYPE svg PUBLIC "-//W3C//DTD SVG 1.1//EN" "http://www.w3.org/Graphics/SVG/1.1/DTD/svg11.dtd">
<svg version="1.1" xmlns="http://www.w3.org/2000/svg" xmlns:xlink="http://www.w3.org/1999/xlink" width="48" height="48" viewBox="0 0 48 48">
<path fill="#181818" d="M38.063 19.969h3.938v18q0 1.594-1.172 2.813t-2.766 1.219h-28.031q-1.594 0-2.813-1.219t-1.219-2.813v-27.938q0-1.594 1.219-2.813t2.813-1.219h18v4.031h-18v27.938h28.031v-18zM24.75 13.031l2.438 5.25 5.156 2.344-5.156 2.344-2.438 5.25-2.344-5.25-5.25-2.344 5.25-2.344zM34.219 17.813l-1.125-2.625-2.625-1.219 2.625-1.125 1.125-2.625 1.219 2.625 2.625 1.125-2.625 1.219z"></path>
</svg>
