<?xml version="1.0" encoding="utf-8"?>
<!-- Generated by IcoMoon.io -->
<!DOCTYPE svg PUBLIC "-//W3C//DTD SVG 1.1//EN" "http://www.w3.org/Graphics/SVG/1.1/DTD/svg11.dtd">
<svg version="1.1" xmlns="http://www.w3.org/2000/svg" xmlns:xlink="http://www.w3.org/1999/xlink" width="48" height="48" viewBox="0 0 48 48">
<path fill="#181818" d="M28.031 22.969v-6h1.969v6h-1.969zM7.969 12v28.031h28.031v3.938h-28.031q-1.594 0-2.766-1.172t-1.172-2.766v-28.031h3.938zM18 19.031v-2.063h1.969v2.063h-1.969zM40.969 16.969v-3h-6v12h3v-3.938h3v-3h-3v-2.063h3zM33 22.969v-6q0-1.219-0.844-2.109t-2.156-0.891h-4.969v12h4.969q1.313 0 2.156-0.891t0.844-2.109zM22.969 19.031v-2.063q0-1.219-0.891-2.109t-2.109-0.891h-4.969v12h3v-3.938h1.969q1.219 0 2.109-0.891t0.891-2.109zM40.031 4.031q1.594 0 2.766 1.172t1.172 2.766v24q0 1.594-1.172 2.813t-2.766 1.219h-24q-1.594 0-2.813-1.219t-1.219-2.813v-24q0-1.594 1.219-2.766t2.813-1.172h24z"></path>
</svg>
