<?xml version="1.0" encoding="utf-8"?>
<!-- Generated by IcoMoon.io -->
<!DOCTYPE svg PUBLIC "-//W3C//DTD SVG 1.1//EN" "http://www.w3.org/Graphics/SVG/1.1/DTD/svg11.dtd">
<svg version="1.1" xmlns="http://www.w3.org/2000/svg" xmlns:xlink="http://www.w3.org/1999/xlink" width="48" height="48" viewBox="0 0 48 48">
<path fill="#181818" d="M24 22.969q2.063 0 3.516-1.453t1.453-3.516-1.453-3.516-3.516-1.453-3.516 1.453-1.453 3.516 1.453 3.516 3.516 1.453zM24 4.031q5.813 0 9.891 4.078t4.078 9.891q0 2.906-1.453 6.656t-3.516 7.031-4.078 6.141-3.422 4.547l-1.5 1.594q-0.563-0.656-1.5-1.734t-3.375-4.313-4.266-6.281-3.328-6.891-1.5-6.75q0-5.813 4.078-9.891t9.891-4.078z"></path>
</svg>
