<?xml version="1.0" encoding="utf-8"?>
<!-- Generated by IcoMoon.io -->
<!DOCTYPE svg PUBLIC "-//W3C//DTD SVG 1.1//EN" "http://www.w3.org/Graphics/SVG/1.1/DTD/svg11.dtd">
<svg version="1.1" xmlns="http://www.w3.org/2000/svg" xmlns:xlink="http://www.w3.org/1999/xlink" width="48" height="48" viewBox="0 0 48 48">
<path fill="#181818" d="M28.031 10.969q0-2.063 1.453-3.516t3.516-1.453 3.516 1.453 1.453 3.516-1.453 3.563-3.516 1.5-3.516-1.5-1.453-3.563zM17.344 24q-1.125 0-2.344-0.75-0.375-0.281-1.5-0.75l6.469-6.469-1.969-2.063q-3-3-7.969-3v-4.969q3.844 0 6.281 0.891t4.688 3.141l12.844 12.75q-0.563 0.375-0.844 0.469-1.219 0.75-2.344 0.75-1.031 0-2.25-0.75-2.063-1.219-4.406-1.219t-4.406 1.219q-1.219 0.75-2.25 0.75zM43.969 33q-2.156 0-4.313-1.313-1.031-0.656-2.344-0.656-1.219 0-2.25 0.656-2.156 1.313-4.406 1.313-2.156 0-4.313-1.313-1.031-0.656-2.344-0.656-1.219 0-2.25 0.656-2.156 1.313-4.406 1.313-2.156 0-4.313-1.313-1.031-0.656-2.344-0.656-1.219 0-2.25 0.656-2.156 1.313-4.406 1.313v-4.031q1.219 0 2.25-0.656 2.156-1.313 4.406-1.313 2.156 0 4.313 1.313 1.031 0.656 2.344 0.656 1.219 0 2.25-0.656 2.156-1.313 4.406-1.313 2.156 0 4.313 1.313 1.031 0.656 2.344 0.656 1.219 0 2.25-0.656 2.156-1.313 4.406-1.313 2.156 0 4.313 1.313 1.031 0.656 2.344 0.656v4.031zM43.969 42q-2.156 0-4.313-1.313-1.031-0.656-2.344-0.656-1.219 0-2.25 0.656-2.156 1.313-4.406 1.313-2.156 0-4.313-1.313-1.031-0.656-2.344-0.656-1.219 0-2.25 0.656-2.156 1.313-4.406 1.313t-4.406-1.313q-1.031-0.656-2.25-0.656-1.313 0-2.344 0.656-2.156 1.313-4.313 1.313v-4.031q1.219 0 2.25-0.656 2.156-1.313 4.406-1.313 2.156 0 4.313 1.313 1.031 0.656 2.344 0.656 1.219 0 2.25-0.656 2.156-1.313 4.406-1.313t4.406 1.313q1.031 0.656 2.25 0.656 1.313 0 2.344-0.656 2.156-1.313 4.313-1.313 2.25 0 4.406 1.313 1.031 0.656 2.25 0.656v4.031z"></path>
</svg>
