<?xml version="1.0" encoding="utf-8"?>
<!-- Generated by IcoMoon.io -->
<!DOCTYPE svg PUBLIC "-//W3C//DTD SVG 1.1//EN" "http://www.w3.org/Graphics/SVG/1.1/DTD/svg11.dtd">
<svg version="1.1" xmlns="http://www.w3.org/2000/svg" xmlns:xlink="http://www.w3.org/1999/xlink" width="48" height="48" viewBox="0 0 48 48">
<path fill="#181818" d="M37.969 37.969v-27.938h-27.938v27.938h27.938zM37.969 6q1.594 0 2.813 1.219t1.219 2.813v27.938q0 1.594-1.219 2.813t-2.813 1.219h-27.938q-1.594 0-2.813-1.219t-1.219-2.813v-27.938q0-1.594 1.219-2.813t2.813-1.219h27.938zM33 32.531v1.5h-18v-1.5q0-2.063 3.094-3.281t5.906-1.219 5.906 1.219 3.094 3.281zM24 24.469q-1.875 0-3.188-1.359t-1.313-3.141 1.313-3.141 3.188-1.359 3.188 1.359 1.313 3.141-1.313 3.141-3.188 1.359z"></path>
</svg>
