<?xml version="1.0" encoding="utf-8"?>
<!-- Generated by IcoMoon.io -->
<!DOCTYPE svg PUBLIC "-//W3C//DTD SVG 1.1//EN" "http://www.w3.org/Graphics/SVG/1.1/DTD/svg11.dtd">
<svg version="1.1" xmlns="http://www.w3.org/2000/svg" xmlns:xlink="http://www.w3.org/1999/xlink" width="48" height="48" viewBox="0 0 48 48">
<path fill="#181818" d="M6.563 4.969l1.969 2.063 33.469 33.469-2.531 2.531-15-15.094h-0.094l-0.375 0.094q-1.594 0-2.813-1.219t-1.219-2.813l0.094-0.375-3.188-3.188q-0.844 1.688-0.844 3.563 0 4.594 3.938 6.938l-1.969 3.469q-2.719-1.594-4.359-4.359t-1.641-6.047q0-3.563 1.875-6.469l-2.813-2.906q-3.094 4.313-3.094 9.375 0 4.313 2.156 8.016t5.813 5.859l-1.969 3.469q-4.594-2.625-7.266-7.266t-2.672-10.078q0-6.938 4.125-12.281l-4.125-4.219zM24 7.969q-4.031 0-7.5 1.875l-2.906-2.906q4.688-2.906 10.406-2.906 8.25 0 14.109 5.859t5.859 14.109q0 5.719-2.906 10.406l-3-2.906q1.969-3.656 1.969-7.5 0-6.563-4.734-11.297t-11.297-4.734zM35.156 28.5l-3.281-3.281q0.094-0.375 0.094-1.219 0-3.281-2.344-5.625t-5.625-2.344q-0.844 0-1.219 0.094l-3.281-3.281q2.063-0.844 4.5-0.844 4.969 0 8.484 3.516t3.516 8.484q0 2.438-0.844 4.5z"></path>
</svg>
