<?xml version="1.0" encoding="utf-8"?>
<!-- Generated by IcoMoon.io -->
<!DOCTYPE svg PUBLIC "-//W3C//DTD SVG 1.1//EN" "http://www.w3.org/Graphics/SVG/1.1/DTD/svg11.dtd">
<svg version="1.1" xmlns="http://www.w3.org/2000/svg" xmlns:xlink="http://www.w3.org/1999/xlink" width="48" height="48" viewBox="0 0 48 48">
<path fill="#181818" d="M35.813 34.781q4.219-4.5 4.219-10.781 0-4.969-2.766-9t-7.266-5.813v0.844q0 1.594-1.219 2.766t-2.813 1.172h-3.938v4.031q0 0.844-0.609 1.406t-1.453 0.563h-3.938v4.031h12q0.844 0 1.406 0.563t0.563 1.406v6h1.969q2.813 0 3.844 2.813zM22.031 39.844v-3.844q-1.594 0-2.813-1.219t-1.219-2.813v-1.969l-9.563-9.563q-0.469 1.875-0.469 3.563 0 6.094 4.078 10.594t9.984 5.25zM24 4.031q8.25 0 14.109 5.859t5.859 14.109-5.859 14.109-14.109 5.859-14.109-5.859-5.859-14.109 5.859-14.109 14.109-5.859z"></path>
</svg>
