<?xml version="1.0" encoding="utf-8"?>
<!-- Generated by IcoMoon.io -->
<!DOCTYPE svg PUBLIC "-//W3C//DTD SVG 1.1//EN" "http://www.w3.org/Graphics/SVG/1.1/DTD/svg11.dtd">
<svg version="1.1" xmlns="http://www.w3.org/2000/svg" xmlns:xlink="http://www.w3.org/1999/xlink" width="48" height="48" viewBox="0 0 48 48">
<path fill="#181818" d="M37.969 22.031v-4.031h-7.969v-7.969h-4.031v7.969h-7.969v4.031h7.969v7.969h4.031v-7.969h7.969zM40.031 4.031q1.594 0 2.766 1.172t1.172 2.766v24q0 1.594-1.172 2.813t-2.766 1.219h-24q-1.594 0-2.813-1.219t-1.219-2.813v-24q0-1.594 1.219-2.766t2.813-1.172h24zM7.969 12v28.031h28.031v3.938h-28.031q-1.594 0-2.766-1.172t-1.172-2.766v-28.031h3.938z"></path>
</svg>
