<?xml version="1.0" encoding="utf-8"?>
<!-- Generated by IcoMoon.io -->
<!DOCTYPE svg PUBLIC "-//W3C//DTD SVG 1.1//EN" "http://www.w3.org/Graphics/SVG/1.1/DTD/svg11.dtd">
<svg version="1.1" xmlns="http://www.w3.org/2000/svg" xmlns:xlink="http://www.w3.org/1999/xlink" width="48" height="48" viewBox="0 0 48 48">
<path fill="#181818" d="M48 36l-9 9-3-3 6-6-6-6 3-3zM25.969 19.969h6v4.031h-6v6h-3.938v-6h-6v-4.031h6v-6h3.938v6zM42 6q1.594 0 2.813 1.172t1.219 2.859v15.938h-4.031v-15.938h-36v24h30v3.938h-4.031v4.031h-15.938v-4.031h-10.031q-1.688 0-2.859-1.172t-1.172-2.766v-24q0-1.688 1.172-2.859t2.859-1.172h36z"></path>
</svg>
