<?xml version="1.0" encoding="utf-8"?>
<!-- Generated by IcoMoon.io -->
<!DOCTYPE svg PUBLIC "-//W3C//DTD SVG 1.1//EN" "http://www.w3.org/Graphics/SVG/1.1/DTD/svg11.dtd">
<svg version="1.1" xmlns="http://www.w3.org/2000/svg" xmlns:xlink="http://www.w3.org/1999/xlink" width="48" height="48" viewBox="0 0 48 48">
<path fill="#181818" d="M40.031 24v-7.969h-32.063v7.969h24v-4.031h4.031v4.031h4.031zM13.969 40.031q2.438 0 4.219-1.781t1.781-4.219-1.781-4.219-4.219-1.781-4.219 1.781-1.781 4.219 1.781 4.219 4.219 1.781zM6.469 12.281l25.313-10.313 1.313 3.375-16.5 6.656h23.438q1.688 0 2.813 1.172t1.125 2.859v24q0 1.594-1.125 2.766t-2.813 1.172h-32.063q-1.688 0-2.813-1.172t-1.125-2.766v-24q0-2.813 2.438-3.75z"></path>
</svg>
