<?xml version="1.0" encoding="utf-8"?>
<!-- Generated by IcoMoon.io -->
<!DOCTYPE svg PUBLIC "-//W3C//DTD SVG 1.1//EN" "http://www.w3.org/Graphics/SVG/1.1/DTD/svg11.dtd">
<svg version="1.1" xmlns="http://www.w3.org/2000/svg" xmlns:xlink="http://www.w3.org/1999/xlink" width="48" height="48" viewBox="0 0 48 48">
<path fill="#181818" d="M25.031 34.031v-1.5q0-2.063-3.094-3.281t-5.906-1.219-5.906 1.219-3.094 3.281v1.5h18zM16.031 15.469q-1.781 0-3.141 1.359t-1.359 3.141 1.359 3.141 3.141 1.359 3.141-1.359 1.359-3.141-1.359-3.141-3.141-1.359zM28.031 10.031q0.844 0 1.406 0.563t0.563 1.406v24q0 0.844-0.563 1.406t-1.406 0.563h-24q-0.844 0-1.453-0.563t-0.609-1.406v-24q0-0.844 0.609-1.406t1.453-0.563h24zM34.031 37.969v-27.938h3.938v27.938h-3.938zM42 10.031h4.031v27.938h-4.031v-27.938z"></path>
</svg>
