<?xml version="1.0" encoding="utf-8"?>
<!-- Generated by IcoMoon.io -->
<!DOCTYPE svg PUBLIC "-//W3C//DTD SVG 1.1//EN" "http://www.w3.org/Graphics/SVG/1.1/DTD/svg11.dtd">
<svg version="1.1" xmlns="http://www.w3.org/2000/svg" xmlns:xlink="http://www.w3.org/1999/xlink" width="48" height="48" viewBox="0 0 48 48">
<path fill="#181818" d="M6 43.969v-39.938l3 3 3-3 3 3 3-3 3 3 3-3 3 3 3-3 3 3 3-3 3 3 3-3v39.938l-3-3-3 3-3-3-3 3-3-3-3 3-3-3-3 3-3-3-3 3-3-3zM36 18v-4.031h-24v4.031h24zM36 25.969v-3.938h-24v3.938h24zM36 34.031v-4.031h-24v4.031h24z"></path>
</svg>
