<?xml version="1.0" encoding="utf-8"?>
<!-- Generated by IcoMoon.io -->
<!DOCTYPE svg PUBLIC "-//W3C//DTD SVG 1.1//EN" "http://www.w3.org/Graphics/SVG/1.1/DTD/svg11.dtd">
<svg version="1.1" xmlns="http://www.w3.org/2000/svg" xmlns:xlink="http://www.w3.org/1999/xlink" width="48" height="48" viewBox="0 0 48 48">
<path fill="#181818" d="M40.125 4.031q5.813 6.094 5.813 14.109t-5.813 13.828l-3.281-3.188q4.125-4.781 4.125-10.922t-4.125-10.641zM33.563 10.688q3 3.281 3 7.406t-3 7.125l-3.375-3.375q1.313-1.781 1.313-3.891t-1.313-3.891zM18 30q5.063 0 10.547 2.203t5.484 5.766v4.031h-32.063v-4.031q0-3.563 5.484-5.766t10.547-2.203zM10.031 18q0-3.281 2.344-5.625t5.625-2.344 5.625 2.344 2.344 5.625-2.344 5.625-5.625 2.344-5.625-2.344-2.344-5.625z"></path>
</svg>
