<?xml version="1.0" encoding="utf-8"?>
<!-- Generated by IcoMoon.io -->
<!DOCTYPE svg PUBLIC "-//W3C//DTD SVG 1.1//EN" "http://www.w3.org/Graphics/SVG/1.1/DTD/svg11.dtd">
<svg version="1.1" xmlns="http://www.w3.org/2000/svg" xmlns:xlink="http://www.w3.org/1999/xlink" width="48" height="48" viewBox="0 0 48 48">
<path fill="#181818" d="M40.031 28.031v-12h-10.219l4.219 5.625-3.281 2.344q-6-8.156-6.75-9.188-0.75 1.031-6.75 9.188l-3.281-2.344 4.219-5.625h-10.219v12h32.063zM40.031 37.969v-3.938h-32.063v3.938h32.063zM18 7.969q-0.844 0-1.406 0.609t-0.563 1.453 0.563 1.406 1.406 0.563 1.406-0.563 0.563-1.406-0.563-1.453-1.406-0.609zM30 7.969q-0.844 0-1.406 0.609t-0.563 1.453 0.563 1.406 1.406 0.563 1.406-0.563 0.563-1.406-0.563-1.453-1.406-0.609zM40.031 12q1.688 0 2.813 1.172t1.125 2.859v21.938q0 1.688-1.125 2.859t-2.813 1.172h-32.063q-1.688 0-2.813-1.172t-1.125-2.859v-21.938q0-1.688 1.125-2.859t2.813-1.172h4.406q-0.375-1.313-0.375-1.969 0-2.438 1.781-4.219t4.219-1.781q3.094 0 4.969 2.625l1.031 1.406 1.031-1.406q1.875-2.625 4.969-2.625 2.438 0 4.219 1.781t1.781 4.219q0 0.656-0.375 1.969h4.406z"></path>
</svg>
