<?xml version="1.0" encoding="utf-8"?>
<!-- Generated by IcoMoon.io -->
<!DOCTYPE svg PUBLIC "-//W3C//DTD SVG 1.1//EN" "http://www.w3.org/Graphics/SVG/1.1/DTD/svg11.dtd">
<svg version="1.1" xmlns="http://www.w3.org/2000/svg" xmlns:xlink="http://www.w3.org/1999/xlink" width="48" height="48" viewBox="0 0 48 48">
<path fill="#181818" d="M23.625 27.188q-0.656 0.281-0.656 0.375l-0.188 0.281h-1.406l0.469-4.406h4.781v1.406h-3.469l-0.188 1.781q0.188 0 0.188-0.188 0-0.094 0.141-0.141t0.141-0.141h0.75q0.75 0 1.031 0.281 0.094 0.094 0.375 0.281t0.375 0.281q0.844 0.844 0.844 2.156 0 0.844-0.188 1.031-0.094 0.094-0.281 0.469t-0.375 0.563-0.422 0.328-0.328 0.234q-0.188 0.188-1.219 0.188-0.844 0-1.031-0.188-0.094-0.094-0.422-0.188t-0.516-0.188q-0.844-0.469-0.844-1.781h1.594q0 0.938 1.219 0.938 0.375 0 0.563-0.188l0.469-0.375q0.188-0.375 0.188-0.563v-1.219l-0.188-0.375-0.469-0.469q-0.375-0.188-0.563-0.188h-0.375zM24 10.031q6.656 0 11.344 4.688t4.688 11.25q0 6.656-4.734 11.344t-11.297 4.688-11.297-4.688-4.734-11.344h4.031q0 4.969 3.563 8.484t8.438 3.516 8.438-3.516 3.563-8.484-3.563-8.484-8.438-3.516v8.063l-10.031-10.031 10.031-10.031v8.063z"></path>
</svg>
