<?xml version="1.0" encoding="utf-8"?>
<!-- Generated by IcoMoon.io -->
<!DOCTYPE svg PUBLIC "-//W3C//DTD SVG 1.1//EN" "http://www.w3.org/Graphics/SVG/1.1/DTD/svg11.dtd">
<svg version="1.1" xmlns="http://www.w3.org/2000/svg" xmlns:xlink="http://www.w3.org/1999/xlink" width="48" height="48" viewBox="0 0 48 48">
<path fill="#181818" d="M26.813 30.375q0 0.656 1.031 0.656 0.375 0 0.563-0.188l0.375-0.469q0.188-0.375 0.188-0.563v-4.031q0-0.094-0.094-0.281t-0.094-0.281q0-0.188-0.375-0.422t-0.563-0.234q-0.375 0-0.656 0.281l-0.375 0.375q-0.188 0.375-0.188 0.563v4.031q0.188 0.375 0.188 0.563zM30.563 28.406q0 1.219-0.188 1.594l-0.563 1.219q-0.656 0.563-1.031 0.563-0.188 0-0.609 0.094t-0.609 0.094q-0.656 0-2.156-0.75-0.188-0.094-0.563-1.219-0.281-0.844-0.281-1.594v-1.406q0-1.031 0.281-1.594l0.563-1.219q0.656-0.563 1.031-0.563 0.188 0 0.563-0.094t0.563-0.094q0.844 0 1.219 0.188 0.188 0.094 0.516 0.281t0.516 0.281 0.563 1.219q0.188 0.563 0.188 1.594v1.406zM19.969 27q1.406 0 1.406-1.219v-0.375q-0.188-0.188-0.188-0.375t-0.375-0.188h-1.031q-0.188 0.188-0.375 0.188t-0.188 0.375v0.375h-2.063q0-0.75 0.516-1.453t1.172-0.703q0.094 0 0.469-0.094t0.469-0.094q1.125 0 2.25 0.563 0.75 0.375 0.75 1.781v0.656q-0.188 0.375-0.188 0.563 0 0.375-0.375 0.375-0.188 0-0.656 0.469 0.844 0.469 1.031 0.75 0.375 0.75 0.375 1.219 0 0.844-0.188 1.031-0.094 0.094-0.281 0.375t-0.281 0.375q-0.375 0.375-1.031 0.375-0.188 0-0.609 0.094t-0.609 0.094q-0.75 0-0.938-0.188-0.094-0.094-0.469-0.188t-0.563-0.188q-0.844-0.469-0.844-1.969h1.688v0.375q0.188 0.188 0.188 0.375t0.375 0.188h1.031q0.188-0.188 0.375-0.188t0.188-0.375v-1.031q-0.188-0.188-0.188-0.375t-0.375-0.188h-1.219v-1.406h0.75zM24 10.031q6.656 0 11.344 4.688t4.688 11.25q0 6.656-4.734 11.344t-11.297 4.688-11.297-4.688-4.734-11.344h4.031q0 4.969 3.563 8.484t8.438 3.516 8.438-3.516 3.563-8.484-3.563-8.484-8.438-3.516v8.063l-10.031-10.031 10.031-10.031v8.063z"></path>
</svg>
