<?xml version="1.0" encoding="utf-8"?>
<!-- Generated by IcoMoon.io -->
<!DOCTYPE svg PUBLIC "-//W3C//DTD SVG 1.1//EN" "http://www.w3.org/Graphics/SVG/1.1/DTD/svg11.dtd">
<svg version="1.1" xmlns="http://www.w3.org/2000/svg" xmlns:xlink="http://www.w3.org/1999/xlink" width="48" height="48" viewBox="0 0 48 48">
<path fill="#181818" d="M24 16.031h3v8.438l7.031 4.219-1.5 2.438-8.531-5.156v-9.938zM25.969 6q7.406 0 12.703 5.25t5.297 12.75-5.297 12.75-12.703 5.25-12.656-5.25l2.813-2.906q4.125 4.125 9.844 4.125 5.813 0 9.938-4.078t4.125-9.891-4.125-9.891-9.938-4.078-9.891 4.078-4.078 9.891h6l-8.063 8.063-0.188-0.281-7.781-7.781h6q0-7.5 5.297-12.75t12.703-5.25z"></path>
</svg>
