<?xml version="1.0" encoding="utf-8"?>
<!-- Generated by IcoMoon.io -->
<!DOCTYPE svg PUBLIC "-//W3C//DTD SVG 1.1//EN" "http://www.w3.org/Graphics/SVG/1.1/DTD/svg11.dtd">
<svg version="1.1" xmlns="http://www.w3.org/2000/svg" xmlns:xlink="http://www.w3.org/1999/xlink" width="48" height="48" viewBox="0 0 48 48">
<path fill="#181818" d="M25.969 8.156q5.906 0.75 9.984 5.25t4.078 10.594-4.078 10.594-9.984 5.25v-4.031q4.313-0.75 7.172-4.078t2.859-7.734-2.859-7.734-7.172-4.078v7.781l-9.094-8.906 9.094-9.094v6.188zM14.156 36.656l2.906-2.906q2.156 1.594 4.969 2.063v4.031q-4.5-0.563-7.875-3.188zM12.188 25.969q0.469 2.719 1.969 4.969l-2.813 2.813q-2.625-3.469-3.188-7.781h4.031zM14.25 17.063q-1.688 2.438-2.063 4.969h-4.031q0.563-4.219 3.281-7.781z"></path>
</svg>
