<?xml version="1.0" encoding="utf-8"?>
<!-- Generated by IcoMoon.io -->
<!DOCTYPE svg PUBLIC "-//W3C//DTD SVG 1.1//EN" "http://www.w3.org/Graphics/SVG/1.1/DTD/svg11.dtd">
<svg version="1.1" xmlns="http://www.w3.org/2000/svg" xmlns:xlink="http://www.w3.org/1999/xlink" width="48" height="48" viewBox="0 0 48 48">
<path fill="#181818" d="M33.75 30.938q1.594-2.156 2.063-4.969h4.031q-0.563 4.313-3.188 7.781zM25.969 35.813q2.813-0.469 4.969-2.063l2.906 2.906q-3.375 2.625-7.875 3.188v-4.031zM39.844 22.031h-4.031q-0.469-2.813-2.063-4.969l2.906-2.813q2.625 3.469 3.188 7.781zM31.125 11.063l-9.094 8.906v-7.781q-4.313 0.75-7.172 4.078t-2.859 7.734 2.859 7.734 7.172 4.078v4.031q-5.906-0.75-9.984-5.25t-4.078-10.594 4.078-10.594 9.984-5.25v-6.188z"></path>
</svg>
