<?xml version="1.0" encoding="utf-8"?>
<!-- Generated by IcoMoon.io -->
<!DOCTYPE svg PUBLIC "-//W3C//DTD SVG 1.1//EN" "http://www.w3.org/Graphics/SVG/1.1/DTD/svg11.dtd">
<svg version="1.1" xmlns="http://www.w3.org/2000/svg" xmlns:xlink="http://www.w3.org/1999/xlink" width="48" height="48" viewBox="0 0 48 48">
<path fill="#181818" d="M38.719 13.313q5.25 5.25 5.25 12.703t-5.25 12.703q-5.156 5.25-12.75 5.25-4.594 0-8.625-2.25l3-2.906q2.531 1.219 5.625 1.219 5.813 0 9.938-4.125 4.031-4.031 4.031-9.844t-4.031-9.938q-4.125-4.125-9.938-4.125v6.469l-8.438-8.438 8.438-8.531v6.469q7.594 0 12.75 5.344zM7.406 25.781l7.313 7.313 7.313-7.313-7.313-7.313zM14.719 12.844l12.938 12.938-12.938 12.938-13.031-12.938z"></path>
</svg>
