<?xml version="1.0" encoding="utf-8"?>
<!-- Generated by IcoMoon.io -->
<!DOCTYPE svg PUBLIC "-//W3C//DTD SVG 1.1//EN" "http://www.w3.org/Graphics/SVG/1.1/DTD/svg11.dtd">
<svg version="1.1" xmlns="http://www.w3.org/2000/svg" xmlns:xlink="http://www.w3.org/1999/xlink" width="48" height="48" viewBox="0 0 48 48">
<path fill="#181818" d="M42 16.031v9.938h-4.031v-9.938q0-2.438-1.781-4.219t-4.219-1.781h-9.938v-4.031h9.938q4.125 0 7.078 2.953t2.953 7.078zM6 42v-4.031h4.031v4.031h-4.031zM13.969 42v-4.031h4.031v4.031h-4.031zM22.031 42v-4.031h3.938v4.031h-3.938zM13.969 10.031v-4.031h4.031v4.031h-4.031zM6 10.031v-4.031h4.031v4.031h-4.031zM6 18v-4.031h4.031v4.031h-4.031zM6 34.031v-4.031h4.031v4.031h-4.031zM6 25.969v-3.938h4.031v3.938h-4.031zM37.969 34.031v-4.031h4.031v4.031h-4.031zM37.969 37.969h4.031v4.031h-4.031v-4.031z"></path>
</svg>
