<?xml version="1.0" encoding="utf-8"?>
<!-- Generated by IcoMoon.io -->
<!DOCTYPE svg PUBLIC "-//W3C//DTD SVG 1.1//EN" "http://www.w3.org/Graphics/SVG/1.1/DTD/svg11.dtd">
<svg version="1.1" xmlns="http://www.w3.org/2000/svg" xmlns:xlink="http://www.w3.org/1999/xlink" width="48" height="48" viewBox="0 0 48 48">
<path fill="#181818" d="M30 36v-4.031h-4.031v4.031h4.031zM22.969 36v-4.031h-3.938v4.031h3.938zM16.031 36v-4.031h-4.031v4.031h4.031zM37.969 25.969q1.594 0 2.813 1.219t1.219 2.813v7.969q0 1.594-1.219 2.813t-2.813 1.219h-27.938q-1.594 0-2.813-1.219t-1.219-2.813v-7.969q0-1.594 1.219-2.813t2.813-1.219h19.969v-7.969h4.031v7.969h3.938zM38.625 13.406l-1.594 1.594q-1.969-1.969-5.063-1.969-3 0-4.969 1.969l-1.594-1.594q2.813-2.813 6.563-2.813 3.844 0 6.656 2.813zM40.406 11.813q-3.844-3.375-8.438-3.375-4.5 0-8.344 3.375l-1.594-1.594q4.219-4.219 9.938-4.219 5.813 0 10.031 4.219z"></path>
</svg>
