<?xml version="1.0" encoding="utf-8"?>
<!-- Generated by IcoMoon.io -->
<!DOCTYPE svg PUBLIC "-//W3C//DTD SVG 1.1//EN" "http://www.w3.org/Graphics/SVG/1.1/DTD/svg11.dtd">
<svg version="1.1" xmlns="http://www.w3.org/2000/svg" xmlns:xlink="http://www.w3.org/1999/xlink" width="48" height="48" viewBox="0 0 48 48">
<path fill="#181818" d="M42 42l-6 6-6-6v-3l-14.156-14.156q-0.656 0.094-1.875 0.094v-4.313q2.438 0.094 5.063-1.078t4.313-2.953l2.813-3.094q1.5-1.5 3.281-1.5h0.094q1.781 0 3.141 1.313t1.359 3.188v11.531q0 2.438-1.875 4.313l-7.125-7.125v-4.594q-1.875 1.594-4.594 2.813l12.563 12.563h3zM30 1.969q1.594 0 2.813 1.219t1.219 2.813-1.219 2.813-2.813 1.219-2.813-1.219-1.219-2.813 1.219-2.813 2.813-1.219zM16.969 28.969l5.063 5.063h-4.031l-7.031 6.938-3-3z"></path>
</svg>
