<?xml version="1.0" encoding="utf-8"?>
<!-- Generated by IcoMoon.io -->
<!DOCTYPE svg PUBLIC "-//W3C//DTD SVG 1.1//EN" "http://www.w3.org/Graphics/SVG/1.1/DTD/svg11.dtd">
<svg version="1.1" xmlns="http://www.w3.org/2000/svg" xmlns:xlink="http://www.w3.org/1999/xlink" width="48" height="48" viewBox="0 0 48 48">
<path fill="#181818" d="M34.031 4.031l6 6-6 6v-4.031h-16.031v-4.031h16.031v-3.938zM36 28.031v-6h-7.969v6h7.969zM22.031 40.031q0.844 0 1.406-0.609t0.563-1.453-0.563-1.406-1.406-0.563-1.453 0.563-0.609 1.406 0.609 1.453 1.453 0.609zM40.031 34.031h3.938v3.938h-15.938q0 2.438-1.781 4.219t-4.219 1.781-4.219-1.781-1.781-4.219h-4.031q-1.594 0-2.813-1.172t-1.219-2.766v-6h14.063v-6h-8.063v3.938l-6-6 6-6v4.031h22.031q1.594 0 2.813 1.219t1.219 2.813v12z"></path>
</svg>
