<?xml version="1.0" encoding="utf-8"?>
<!-- Generated by IcoMoon.io -->
<!DOCTYPE svg PUBLIC "-//W3C//DTD SVG 1.1//EN" "http://www.w3.org/Graphics/SVG/1.1/DTD/svg11.dtd">
<svg version="1.1" xmlns="http://www.w3.org/2000/svg" xmlns:xlink="http://www.w3.org/1999/xlink" width="48" height="48" viewBox="0 0 48 48">
<path fill="#181818" d="M21.563 19.969v2.063h4.875v-2.063q0-0.938-0.703-1.641t-1.734-0.703-1.734 0.703-0.703 1.641zM19.969 31.969q-0.844 0-1.406-0.563t-0.563-1.406v-6q0-0.844 0.563-1.406t1.406-0.563v-2.063q0-1.594 1.172-2.766t2.859-1.172 2.859 1.125 1.172 2.813v2.063q0.844 0 1.406 0.563t0.563 1.406v6q0 0.844-0.563 1.406t-1.406 0.563h-8.063zM37.969 34.031v-20.063h-27.938v20.063h27.938zM42 10.031q1.594 0 2.813 1.172t1.219 2.766v20.063q0 1.594-1.219 2.766t-2.813 1.172h-36q-1.594 0-2.813-1.172t-1.219-2.766v-20.063q0-1.594 1.219-2.766t2.813-1.172h36z"></path>
</svg>
