<?xml version="1.0" encoding="utf-8"?>
<!-- Generated by IcoMoon.io -->
<!DOCTYPE svg PUBLIC "-//W3C//DTD SVG 1.1//EN" "http://www.w3.org/Graphics/SVG/1.1/DTD/svg11.dtd">
<svg version="1.1" xmlns="http://www.w3.org/2000/svg" xmlns:xlink="http://www.w3.org/1999/xlink" width="48" height="48" viewBox="0 0 48 48">
<path fill="#181818" d="M34.031 37.969v-27.938h-20.063v27.938h20.063zM34.031 1.969q1.594 0 2.766 1.219t1.172 2.813v36q0 1.594-1.172 2.813t-2.766 1.219h-20.063q-1.594 0-2.766-1.219t-1.172-2.813v-36q0-1.594 1.172-2.813t2.766-1.219h20.063zM21.563 19.969v2.063h4.875v-2.063q0-0.938-0.703-1.641t-1.734-0.703-1.734 0.703-0.703 1.641zM19.969 31.969q-0.844 0-1.406-0.563t-0.563-1.406v-6q0-0.844 0.563-1.406t1.406-0.563v-2.063q0-1.594 1.172-2.766t2.859-1.172 2.859 1.125 1.172 2.813v2.063q0.844 0 1.406 0.563t0.563 1.406v6q0 0.844-0.563 1.406t-1.406 0.563h-8.063z"></path>
</svg>
