<?xml version="1.0" encoding="utf-8"?>
<!-- Generated by IcoMoon.io -->
<!DOCTYPE svg PUBLIC "-//W3C//DTD SVG 1.1//EN" "http://www.w3.org/Graphics/SVG/1.1/DTD/svg11.dtd">
<svg version="1.1" xmlns="http://www.w3.org/2000/svg" xmlns:xlink="http://www.w3.org/1999/xlink" width="48" height="48" viewBox="0 0 48 48">
<path fill="#181818" d="M15 42.938l2.719-2.625 7.594 7.594-1.313 0.094q-9.375 0-16.266-6.375t-7.641-15.656h3q0.563 5.625 3.75 10.125t8.156 6.844zM29.625 42.375l12.75-12.75-24-24-12.75 12.75zM20.438 3.469l24.094 24.094q0.938 0.844 0.938 2.063t-0.938 2.156l-12.75 12.75q-0.844 0.938-2.063 0.938t-2.156-0.938l-24.094-24.094q-0.938-0.844-0.938-2.063t0.938-2.156l12.75-12.75q0.844-0.938 2.063-0.938t2.156 0.938zM33 5.063l-2.719 2.625-7.594-7.594 1.313-0.094q9.375 0 16.266 6.375t7.641 15.656h-3q-0.563-5.625-3.75-10.125t-8.156-6.844z"></path>
</svg>
