<?xml version="1.0" encoding="utf-8"?>
<!-- Generated by IcoMoon.io -->
<!DOCTYPE svg PUBLIC "-//W3C//DTD SVG 1.1//EN" "http://www.w3.org/Graphics/SVG/1.1/DTD/svg11.dtd">
<svg version="1.1" xmlns="http://www.w3.org/2000/svg" xmlns:xlink="http://www.w3.org/1999/xlink" width="48" height="48" viewBox="0 0 48 48">
<path fill="#181818" d="M33.563 4.969v1.031h6.844v-1.031q0-1.406-0.984-2.391t-2.391-0.984-2.438 0.984-1.031 2.391zM31.969 18q-0.844 0-1.406-0.563t-0.563-1.406v-8.063q0-0.844 0.563-1.406t1.406-0.563v-1.031q0-2.063 1.5-3.516t3.563-1.453 3.516 1.453 1.453 3.516v1.031q0.844 0 1.406 0.563t0.563 1.406v8.063q0 0.844-0.563 1.406t-1.406 0.563h-10.031zM16.969 40.969l2.625-2.625 7.594 7.594-1.313 0.094q-9.375 0-16.266-6.375t-7.641-15.656h3q0.563 5.531 3.797 10.078t8.203 6.891zM46.5 25.5q0.938 0.844 0.938 2.109t-0.938 2.203l-12.75 12.656q-0.844 0.938-2.063 0.938t-2.156-0.938l-24-24q-0.938-0.844-0.938-2.063t0.938-2.156l12.656-12.75q0.844-0.938 2.109-0.938t2.203 0.938l4.875 4.875-2.813 2.813-4.219-4.125-11.344 11.25 22.688 22.688 11.25-11.344-4.406-4.406 2.813-2.813z"></path>
</svg>
