<?xml version="1.0" encoding="utf-8"?>
<!-- Generated by IcoMoon.io -->
<!DOCTYPE svg PUBLIC "-//W3C//DTD SVG 1.1//EN" "http://www.w3.org/Graphics/SVG/1.1/DTD/svg11.dtd">
<svg version="1.1" xmlns="http://www.w3.org/2000/svg" xmlns:xlink="http://www.w3.org/1999/xlink" width="48" height="48" viewBox="0 0 48 48">
<path fill="#181818" d="M18 18v12h12v-12h-12zM13.969 34.031v-20.063h20.063v20.063h-20.063zM30 10.031v-4.031h4.031v4.031h-4.031zM30 42v-4.031h4.031v4.031h-4.031zM37.969 34.031v-4.031h4.031v4.031h-4.031zM37.969 18v-4.031h4.031v4.031h-4.031zM37.969 42v-4.031h4.031q0 1.594-1.219 2.813t-2.813 1.219zM37.969 25.969v-3.938h4.031v3.938h-4.031zM22.031 42v-4.031h3.938v4.031h-3.938zM18 6v4.031h-4.031v-4.031h4.031zM6 34.031v-4.031h4.031v4.031h-4.031zM10.031 42q-1.594 0-2.813-1.219t-1.219-2.813h4.031v4.031zM37.969 6q1.594 0 2.813 1.219t1.219 2.813h-4.031v-4.031zM25.969 6v4.031h-3.938v-4.031h3.938zM6 18v-4.031h4.031v4.031h-4.031zM13.969 42v-4.031h4.031v4.031h-4.031zM6 25.969v-3.938h4.031v3.938h-4.031zM6 10.031q0-1.594 1.219-2.813t2.813-1.219v4.031h-4.031z"></path>
</svg>
