<?xml version="1.0" encoding="utf-8"?>
<!-- Generated by IcoMoon.io -->
<!DOCTYPE svg PUBLIC "-//W3C//DTD SVG 1.1//EN" "http://www.w3.org/Graphics/SVG/1.1/DTD/svg11.dtd">
<svg version="1.1" xmlns="http://www.w3.org/2000/svg" xmlns:xlink="http://www.w3.org/1999/xlink" width="48" height="48" viewBox="0 0 48 48">
<path fill="#181818" d="M34.5 24q0-0.938-0.094-1.406l3-2.25q0.469-0.375 0.094-0.938l-2.813-4.875q-0.281-0.469-0.844-0.281l-3.469 1.406q-1.219-0.938-2.344-1.406l-0.563-3.656q-0.188-0.563-0.656-0.563h-5.625q-0.563 0-0.656 0.563l-0.563 3.75q-1.5 0.656-2.344 1.313l-3.469-1.406q-0.469-0.188-0.844 0.375l-2.813 4.781q-0.375 0.563 0.094 0.938l3 2.25q-0.094 0.469-0.094 1.406t0.094 1.406l-3 2.25q-0.469 0.375-0.094 0.938l2.813 4.875q0.281 0.469 0.844 0.281l3.469-1.406q1.219 0.938 2.344 1.406l0.563 3.656q0.188 0.563 0.656 0.563h5.625q0.563 0 0.656-0.563l0.563-3.75q1.5-0.656 2.344-1.313l3.469 1.406q0.469 0.188 0.844-0.375l2.813-4.781q0.375-0.563-0.094-0.938l-3-2.25q0.094-0.469 0.094-1.406zM37.969 6q1.688 0 2.859 1.219t1.172 2.813v27.938q0 1.594-1.172 2.813t-2.859 1.219h-27.938q-1.688 0-2.859-1.219t-1.172-2.813v-27.938q0-1.594 1.172-2.813t2.859-1.219h27.938zM24 19.969q1.594 0 2.813 1.219t1.219 2.813-1.219 2.813-2.813 1.219-2.813-1.219-1.219-2.813 1.219-2.813 2.813-1.219z"></path>
</svg>
