<?xml version="1.0" encoding="utf-8"?>
<!-- Generated by IcoMoon.io -->
<!DOCTYPE svg PUBLIC "-//W3C//DTD SVG 1.1//EN" "http://www.w3.org/Graphics/SVG/1.1/DTD/svg11.dtd">
<svg version="1.1" xmlns="http://www.w3.org/2000/svg" xmlns:xlink="http://www.w3.org/1999/xlink" width="48" height="48" viewBox="0 0 48 48">
<path fill="#181818" d="M31.031 30q1.219 0 2.109 0.844t0.891 2.156-0.891 2.156-2.109 0.844-2.109-0.844-0.891-2.156 0.891-2.156 2.109-0.844zM34.969 19.969q1.219 0 2.109 0.891t0.891 2.109-0.891 2.109-2.109 0.891-2.109-0.891-0.891-2.109 0.891-2.109 2.109-0.891zM24 42q7.5 0 12.75-5.25t5.25-12.75-5.25-12.75-12.75-5.25-12.75 5.25-5.25 12.75 5.25 12.75 12.75 5.25zM24 1.969q9.094 0 15.563 6.469t6.469 15.563-6.469 15.563-15.563 6.469-15.563-6.469-6.469-15.563 6.469-15.563 15.563-6.469zM16.969 30q1.219 0 2.109 0.844t0.891 2.156-0.891 2.156-2.109 0.844-2.109-0.844-0.891-2.156 0.891-2.156 2.109-0.844zM30 13.031q0 1.219-0.844 2.109t-2.156 0.891h-6q-1.313 0-2.156-0.891t-0.844-2.109 0.844-2.109 2.156-0.891h6q1.313 0 2.156 0.891t0.844 2.109zM16.031 22.969q0 1.219-0.891 2.109t-2.109 0.891-2.109-0.891-0.891-2.109 0.891-2.109 2.109-0.891 2.109 0.891 0.891 2.109z"></path>
</svg>
