<?xml version="1.0" encoding="utf-8"?>
<!-- Generated by IcoMoon.io -->
<!DOCTYPE svg PUBLIC "-//W3C//DTD SVG 1.1//EN" "http://www.w3.org/Graphics/SVG/1.1/DTD/svg11.dtd">
<svg version="1.1" xmlns="http://www.w3.org/2000/svg" xmlns:xlink="http://www.w3.org/1999/xlink" width="48" height="48" viewBox="0 0 48 48">
<path fill="#181818" d="M30 48v-4.031h4.031v4.031h-4.031zM33.094 8.906q6.938 4.875 6.938 13.125 0 6.563-4.688 11.25t-11.344 4.688-11.344-4.688-4.688-11.25q0-8.25 6.938-13.125l2.813 2.813q-5.719 3.563-5.719 10.313 0 4.969 3.516 8.484t8.484 3.516 8.484-3.516 3.516-8.484q0-6.75-5.813-10.219zM25.969 4.031v19.969h-3.938v-19.969h3.938zM22.031 48v-4.031h3.938v4.031h-3.938zM13.969 48v-4.031h4.031v4.031h-4.031z"></path>
</svg>
