<?xml version="1.0" encoding="utf-8"?>
<!-- Generated by IcoMoon.io -->
<!DOCTYPE svg PUBLIC "-//W3C//DTD SVG 1.1//EN" "http://www.w3.org/Graphics/SVG/1.1/DTD/svg11.dtd">
<svg version="1.1" xmlns="http://www.w3.org/2000/svg" xmlns:xlink="http://www.w3.org/1999/xlink" width="48" height="48" viewBox="0 0 48 48">
<path fill="#181818" d="M37.969 19.969q0 5.063-3.516 8.906t-8.484 4.594v6.563h-3.938v-6.563q-4.969-0.75-8.484-4.594t-3.516-8.906h3.375q0 4.406 3.141 7.313t7.453 2.906 7.453-2.906 3.141-7.313h3.375zM30 48v-4.031h4.031v4.031h-4.031zM22.031 48v-4.031h3.938v4.031h-3.938zM24 25.969q-2.438 0-4.219-1.781t-1.781-4.219v-12q0-2.438 1.781-4.219t4.219-1.781 4.219 1.781 1.781 4.219v12q0 2.438-1.781 4.219t-4.219 1.781zM13.969 48v-4.031h4.031v4.031h-4.031z"></path>
</svg>
