<?xml version="1.0" encoding="utf-8"?>
<!-- Generated by IcoMoon.io -->
<!DOCTYPE svg PUBLIC "-//W3C//DTD SVG 1.1//EN" "http://www.w3.org/Graphics/SVG/1.1/DTD/svg11.dtd">
<svg version="1.1" xmlns="http://www.w3.org/2000/svg" xmlns:xlink="http://www.w3.org/1999/xlink" width="48" height="48" viewBox="0 0 48 48">
<path fill="#181818" d="M34.031 31.969v-3.938h12v3.938q0 1.969-1.125 3.469t-2.906 2.156v8.438h-4.031v-8.438q-3.938-1.406-3.938-5.625zM25.969 4.031v7.969h4.031v12h-12v-12h4.031v-7.969q0-0.844 0.563-1.453t1.406-0.609 1.406 0.609 0.563 1.453zM42 12h4.031v12h-12v-12h3.938v-7.969q0-0.844 0.609-1.453t1.453-0.609 1.406 0.609 0.563 1.453v7.969zM1.969 31.969v-3.938h12v3.938q0 4.219-3.938 5.625v8.438h-4.031v-8.438q-1.781-0.656-2.906-2.156t-1.125-3.469zM18 31.969v-3.938h12v3.938q0 1.969-1.125 3.469t-2.906 2.156v8.438h-3.938v-8.438q-1.781-0.656-2.906-2.156t-1.125-3.469zM10.031 4.031v7.969h3.938v12h-12v-12h4.031v-7.969q0-0.844 0.563-1.453t1.406-0.609 1.453 0.609 0.609 1.453z"></path>
</svg>
