<?xml version="1.0" encoding="utf-8"?>
<!-- Generated by IcoMoon.io -->
<!DOCTYPE svg PUBLIC "-//W3C//DTD SVG 1.1//EN" "http://www.w3.org/Graphics/SVG/1.1/DTD/svg11.dtd">
<svg version="1.1" xmlns="http://www.w3.org/2000/svg" xmlns:xlink="http://www.w3.org/1999/xlink" width="48" height="48" viewBox="0 0 48 48">
<path fill="#181818" d="M24 6q7.5 0 12.75 5.25t5.25 12.75-5.25 12.75-12.75 5.25q-6.188 0-10.969-3.75l2.813-2.813q3.75 2.531 8.156 2.531 5.813 0 9.891-4.078t4.078-9.891-4.078-9.891-9.891-4.078-9.891 4.078-4.078 9.891h6l-8.063 7.969-7.969-7.969h6q0-7.5 5.25-12.75t12.75-5.25zM28.031 24q0 1.594-1.219 2.813t-2.813 1.219-2.813-1.219-1.219-2.813 1.219-2.813 2.813-1.219 2.813 1.219 1.219 2.813z"></path>
</svg>
