<?xml version="1.0" encoding="utf-8"?>
<!-- Generated by IcoMoon.io -->
<!DOCTYPE svg PUBLIC "-//W3C//DTD SVG 1.1//EN" "http://www.w3.org/Graphics/SVG/1.1/DTD/svg11.dtd">
<svg version="1.1" xmlns="http://www.w3.org/2000/svg" xmlns:xlink="http://www.w3.org/1999/xlink" width="48" height="48" viewBox="0 0 48 48">
<path fill="#181818" d="M24 0q9.281 0 15.563 6.469l-2.813 2.813q-5.25-5.25-12.75-5.25t-12.75 5.25l-2.813-2.813q6.469-6.469 15.563-6.469zM14.063 12.094q4.125-4.125 9.938-4.125t9.938 4.125l-2.813 2.813q-2.906-2.906-7.125-2.906t-7.125 2.906zM24 30q1.594 0 2.813-1.219t1.219-2.813-1.219-2.766-2.813-1.172-2.813 1.172-1.219 2.766 1.219 2.813 2.813 1.219zM30 18q0.844 0 1.406 0.563t0.563 1.406v24q0 0.844-0.563 1.453t-1.406 0.609h-12q-0.844 0-1.406-0.609t-0.563-1.453v-24q0-0.844 0.563-1.406t1.406-0.563h12z"></path>
</svg>
