<?xml version="1.0" encoding="utf-8"?>
<!-- Generated by IcoMoon.io -->
<!DOCTYPE svg PUBLIC "-//W3C//DTD SVG 1.1//EN" "http://www.w3.org/Graphics/SVG/1.1/DTD/svg11.dtd">
<svg version="1.1" xmlns="http://www.w3.org/2000/svg" xmlns:xlink="http://www.w3.org/1999/xlink" width="48" height="48" viewBox="0 0 48 48">
<path fill="#181818" d="M24 1.969q9.094 0 15.563 6.469t6.469 15.563h-4.031q0-7.5-5.25-12.75t-12.75-5.25-12.75 5.25-5.25 12.75h-4.031q0-9.094 6.469-15.563t15.563-6.469zM25.969 28.594v6.563l6.844 6.844-2.813 2.813-6-6-6 6-2.813-2.813 6.844-6.844v-6.563q-3-1.219-3-4.594 0-2.063 1.453-3.516t3.516-1.453 3.516 1.453 1.453 3.516q0 3.375-3 4.594zM24 10.031q5.813 0 9.891 4.078t4.078 9.891h-3.938q0-4.125-2.953-7.078t-7.078-2.953-7.078 2.953-2.953 7.078h-3.938q0-5.813 4.078-9.891t9.891-4.078z"></path>
</svg>
