<?xml version="1.0" encoding="utf-8"?>
<!-- Generated by IcoMoon.io -->
<!DOCTYPE svg PUBLIC "-//W3C//DTD SVG 1.1//EN" "http://www.w3.org/Graphics/SVG/1.1/DTD/svg11.dtd">
<svg version="1.1" xmlns="http://www.w3.org/2000/svg" xmlns:xlink="http://www.w3.org/1999/xlink" width="48" height="48" viewBox="0 0 48 48">
<path fill="#181818" d="M42 38.063v-28.125h-36v28.125h36zM42 6q1.594 0 2.813 1.219t1.219 2.813v27.938q0 1.594-1.219 2.813t-2.813 1.219h-36q-1.594 0-2.813-1.219t-1.219-2.813v-27.938q0-1.594 1.219-2.813t2.813-1.219h36zM18 31.969q-2.438 0-4.219-1.781t-1.781-4.219q0-2.344 1.547-4.031t3.797-1.875h0.375q1.969-4.031 6.281-4.031 2.625 0 4.594 1.734t2.344 4.266h0.094q2.063 0 3.516 1.453t1.453 3.516-1.453 3.516-3.516 1.453h-13.031z"></path>
</svg>
