<?xml version="1.0" encoding="utf-8"?>
<!-- Generated by IcoMoon.io -->
<!DOCTYPE svg PUBLIC "-//W3C//DTD SVG 1.1//EN" "http://www.w3.org/Graphics/SVG/1.1/DTD/svg11.dtd">
<svg version="1.1" xmlns="http://www.w3.org/2000/svg" xmlns:xlink="http://www.w3.org/1999/xlink" width="48" height="48" viewBox="0 0 48 48">
<path fill="#181818" d="M24 18v12q2.438 0 4.219-1.781t1.781-4.219-1.781-4.219-4.219-1.781zM16.031 31.969v-4.969l-3-3 3-3v-4.969h4.969l3-3 3 3h4.969v4.969l3 3-3 3v4.969h-4.969l-3 3-3-3h-4.969zM42 38.063v-28.125h-36v28.125h36zM42 6q1.594 0 2.813 1.219t1.219 2.813v27.938q0 1.594-1.219 2.813t-2.813 1.219h-36q-1.594 0-2.813-1.219t-1.219-2.813v-27.938q0-1.594 1.219-2.813t2.813-1.219h36z"></path>
</svg>
