<?xml version="1.0" encoding="utf-8"?>
<!-- Generated by IcoMoon.io -->
<!DOCTYPE svg PUBLIC "-//W3C//DTD SVG 1.1//EN" "http://www.w3.org/Graphics/SVG/1.1/DTD/svg11.dtd">
<svg version="1.1" xmlns="http://www.w3.org/2000/svg" xmlns:xlink="http://www.w3.org/1999/xlink" width="48" height="48" viewBox="0 0 48 48">
<path fill="#181818" d="M36 32.156q2.438 0 4.125 1.734t1.688 4.078q0 2.438-1.734 4.172t-4.078 1.734-4.078-1.734-1.734-4.172q0-0.938 0.094-1.313l-14.156-8.25q-1.781 1.594-4.125 1.594-2.438 0-4.219-1.781t-1.781-4.219 1.781-4.219 4.219-1.781q2.344 0 4.125 1.594l14.063-8.156q-0.188-0.938-0.188-1.406 0-2.438 1.781-4.219t4.219-1.781 4.219 1.781 1.781 4.219-1.781 4.219-4.219 1.781q-2.25 0-4.125-1.688l-14.063 8.25q0.188 0.938 0.188 1.406t-0.188 1.406l14.25 8.25q1.688-1.5 3.938-1.5z"></path>
</svg>
