<?xml version="1.0" encoding="utf-8"?>
<!-- Generated by IcoMoon.io -->
<!DOCTYPE svg PUBLIC "-//W3C//DTD SVG 1.1//EN" "http://www.w3.org/Graphics/SVG/1.1/DTD/svg11.dtd">
<svg version="1.1" xmlns="http://www.w3.org/2000/svg" xmlns:xlink="http://www.w3.org/1999/xlink" width="48" height="48" viewBox="0 0 48 48">
<path fill="#181818" d="M24 30l10.969-7.969-10.969-6v13.969zM24 6v4.031h7.969v-4.031h-7.969zM36 10.031h10.031v21.938q0 1.688-1.172 2.859t-2.859 1.172h-28.031q-1.688 0-2.813-1.172t-1.125-2.859v-21.938h9.938v-4.031q0-1.688 1.172-2.859t2.859-1.172h7.969q1.688 0 2.859 1.172t1.172 2.859v4.031zM6 18v22.031h31.969q0 1.688-1.125 2.813t-2.813 1.125h-28.031q-1.688 0-2.859-1.125t-1.172-2.813v-22.031h4.031z"></path>
</svg>
