<?xml version="1.0" encoding="utf-8"?>
<!-- Generated by IcoMoon.io -->
<!DOCTYPE svg PUBLIC "-//W3C//DTD SVG 1.1//EN" "http://www.w3.org/Graphics/SVG/1.1/DTD/svg11.dtd">
<svg version="1.1" xmlns="http://www.w3.org/2000/svg" xmlns:xlink="http://www.w3.org/1999/xlink" width="48" height="48" viewBox="0 0 48 48">
<path fill="#181818" d="M24 34.031q1.594 0 2.813-1.219t1.219-2.813-1.219-2.813-2.813-1.219-2.813 1.219-1.219 2.813 1.219 2.813 2.813 1.219zM18 18h12l-6-8.813zM34.406 18h9.563q0.844 0 1.453 0.563t0.609 1.406q-0.938 3.75-2.813 10.547t-2.344 8.578q-0.844 2.906-3.844 2.906h-26.063q-3 0-3.844-2.906l-5.063-18.563q-0.094-0.188-0.094-0.563 0-0.844 0.609-1.406t1.453-0.563h9.563l8.719-13.125q0.563-0.844 1.688-0.844t1.688 0.844z"></path>
</svg>
