<?xml version="1.0" encoding="utf-8"?>
<!-- Generated by IcoMoon.io -->
<!DOCTYPE svg PUBLIC "-//W3C//DTD SVG 1.1//EN" "http://www.w3.org/Graphics/SVG/1.1/DTD/svg11.dtd">
<svg version="1.1" xmlns="http://www.w3.org/2000/svg" xmlns:xlink="http://www.w3.org/1999/xlink" width="48" height="48" viewBox="0 0 48 48">
<path fill="#181818" d="M31.031 28.969v5.25l-7.031 8.813-23.156-29.063 0.563-0.469q0.563-0.375 1.172-0.797t1.641-1.078 2.203-1.219 2.672-1.266 3.188-1.219 3.516-0.984 3.938-0.703 4.266-0.234 4.266 0.234 3.938 0.703 3.516 0.984 3.188 1.219 2.672 1.266 2.203 1.219 1.641 1.078 1.172 0.797l0.563 0.469-4.125 5.25q-0.563-0.188-2.063-0.188-4.219 0-7.078 2.859t-2.859 7.078zM43.969 31.969v-3q0-1.219-0.891-2.109t-2.109-0.891-2.109 0.891-0.891 2.109v3h6zM46.031 31.969q0.75 0 1.359 0.656t0.609 1.406v7.969q0 0.75-0.609 1.359t-1.359 0.609h-10.031q-0.75 0-1.359-0.609t-0.609-1.359v-7.969q0-0.75 0.609-1.406t1.359-0.656v-3q0-2.156 1.406-3.563t3.563-1.406 3.609 1.453 1.453 3.516v3z"></path>
</svg>
