<?xml version="1.0" encoding="utf-8"?>
<!-- Generated by IcoMoon.io -->
<!DOCTYPE svg PUBLIC "-//W3C//DTD SVG 1.1//EN" "http://www.w3.org/Graphics/SVG/1.1/DTD/svg11.dtd">
<svg version="1.1" xmlns="http://www.w3.org/2000/svg" xmlns:xlink="http://www.w3.org/1999/xlink" width="48" height="48" viewBox="0 0 48 48">
<path fill="#181818" d="M34.031 30v-7.969h-4.031v7.969h4.031zM25.969 25.969v-3.938h-3.938v3.938h3.938zM25.969 37.969v-7.969h-3.938v7.969h3.938zM18 30v-7.969h-4.031v7.969h4.031zM34.031 37.969v-3.938h-4.031v3.938h4.031zM18 37.969v-3.938h-4.031v3.938h4.031zM39.938 7.969l0.094 32.063q0 1.594-1.219 2.766t-2.813 1.172h-24q-1.594 0-2.813-1.172t-1.219-2.766v-24l12-12h16.031q1.594 0 2.766 1.172t1.172 2.766z"></path>
</svg>
