<?xml version="1.0" encoding="utf-8"?>
<!-- Generated by IcoMoon.io -->
<!DOCTYPE svg PUBLIC "-//W3C//DTD SVG 1.1//EN" "http://www.w3.org/Graphics/SVG/1.1/DTD/svg11.dtd">
<svg version="1.1" xmlns="http://www.w3.org/2000/svg" xmlns:xlink="http://www.w3.org/1999/xlink" width="48" height="48" viewBox="0 0 48 48">
<path fill="#181818" d="M43.969 24q0 7.688-5.156 13.406t-12.75 6.469v-4.031q5.906-0.75 9.938-5.297t4.031-10.547-4.031-10.547-9.938-5.297v-4.031q7.594 0.75 12.75 6.469t5.156 13.406zM11.344 39.469l2.813-2.813q3.469 2.625 7.875 3.188v4.031q-5.906-0.563-10.688-4.406zM8.156 25.969q0.563 4.406 3.188 7.781l-2.813 2.906q-3.844-4.781-4.406-10.688h4.031zM11.344 14.156q-2.625 3.469-3.188 7.875h-4.031q0.563-5.906 4.406-10.688zM22.031 8.156q-4.406 0.563-7.875 3.188l-2.813-2.813q4.781-3.844 10.688-4.406v4.031zM26.063 19.594l5.906 4.406q-5.906 4.406-12 9z"></path>
</svg>
