<?xml version="1.0" encoding="utf-8"?>
<!-- Generated by IcoMoon.io -->
<!DOCTYPE svg PUBLIC "-//W3C//DTD SVG 1.1//EN" "http://www.w3.org/Graphics/SVG/1.1/DTD/svg11.dtd">
<svg version="1.1" xmlns="http://www.w3.org/2000/svg" xmlns:xlink="http://www.w3.org/1999/xlink" width="48" height="48" viewBox="0 0 48 48">
<path fill="#181818" d="M34.031 31.875l-5.906-5.906h5.906v5.906zM28.969 17.438q-2.719 0-4.688-2.016t-1.969-4.734 1.969-4.688 4.688-1.969v3q-1.594 0-2.625 0.984t-1.031 2.484q0 1.594 1.078 2.813t2.578 1.219h3.094q2.813 0 4.875 1.828t2.063 4.453v3.188h-3v-2.531q0-1.875-1.172-2.953t-2.766-1.078h-3.094zM37.688 9.75q2.813 1.313 4.547 4.031t1.734 6.094v4.125h-3v-4.125q0-3.375-2.297-5.766t-5.672-2.391v-3q1.5 0 2.578-1.078t1.078-2.672h3q0 2.813-1.969 4.781zM36 25.969h3v6h-3v-6zM40.969 25.969h3v6h-3v-6zM4.031 12l2.438-2.531 34.031 34.031-2.531 2.531-13.969-14.063h-19.969v-6h13.969z"></path>
</svg>
