<?xml version="1.0" encoding="utf-8"?>
<!-- Generated by IcoMoon.io -->
<!DOCTYPE svg PUBLIC "-//W3C//DTD SVG 1.1//EN" "http://www.w3.org/Graphics/SVG/1.1/DTD/svg11.dtd">
<svg version="1.1" xmlns="http://www.w3.org/2000/svg" xmlns:xlink="http://www.w3.org/1999/xlink" width="48" height="48" viewBox="0 0 48 48">
<path fill="#181818" d="M32.063 20.438q2.906 0 4.922 1.781t2.016 4.5v3.281h-3v-2.625q0-1.875-1.172-2.953t-2.766-1.078h-3.094q-2.719 0-4.688-2.016t-1.969-4.734 1.969-4.688 4.688-1.969v3q-1.594 0-2.625 0.984t-1.031 2.484q0 1.594 1.078 2.813t2.578 1.219h3.094zM37.688 15.469q2.813 1.313 4.547 4.031t1.734 6v4.5h-3v-4.5q0-3.375-2.297-5.719t-5.672-2.344v-3q1.5 0 2.578-1.078t1.078-2.672q0-1.5-1.078-2.578t-2.578-1.078v-3q2.719 0 4.688 1.969t1.969 4.688q0 2.813-1.969 4.781zM36 31.969h3v6h-3v-6zM40.969 31.969h3v6h-3v-6zM4.031 31.969h30v6h-30v-6z"></path>
</svg>
