<?xml version="1.0" encoding="utf-8"?>
<!-- Generated by IcoMoon.io -->
<!DOCTYPE svg PUBLIC "-//W3C//DTD SVG 1.1//EN" "http://www.w3.org/Graphics/SVG/1.1/DTD/svg11.dtd">
<svg version="1.1" xmlns="http://www.w3.org/2000/svg" xmlns:xlink="http://www.w3.org/1999/xlink" width="48" height="48" viewBox="0 0 48 48">
<path fill="#181818" d="M24 24q2.438 0 4.219 1.781t1.781 4.219-1.781 4.219-4.219 1.781-4.219-1.781-1.781-4.219 1.781-4.219 4.219-1.781zM24 40.031q4.125 0 7.078-2.953t2.953-7.078-2.953-7.078-7.078-2.953-7.078 2.953-2.953 7.078 2.953 7.078 7.078 2.953zM24 7.969q-1.688 0-2.859 1.219t-1.172 2.813 1.172 2.813 2.859 1.219q1.594 0 2.813-1.219t1.219-2.813-1.219-2.813-2.813-1.219zM34.031 4.031q1.594 0 2.766 1.172t1.172 2.766v32.063q0 1.594-1.172 2.766t-2.766 1.172h-20.063q-1.594 0-2.766-1.172t-1.172-2.766v-32.063q0-1.594 1.172-2.766t2.766-1.172h20.063z"></path>
</svg>
