<?xml version="1.0" encoding="utf-8"?>
<!-- Generated by IcoMoon.io -->
<!DOCTYPE svg PUBLIC "-//W3C//DTD SVG 1.1//EN" "http://www.w3.org/Graphics/SVG/1.1/DTD/svg11.dtd">
<svg version="1.1" xmlns="http://www.w3.org/2000/svg" xmlns:xlink="http://www.w3.org/1999/xlink" width="48" height="48" viewBox="0 0 48 48">
<path fill="#181818" d="M12 10.031v31.969h19.969v4.031h-19.969q-1.688 0-2.859-1.219t-1.172-2.813v-31.969h4.031zM22.969 25.031q0-2.063 1.5-3.563t3.563-1.5 3.516 1.5 1.453 3.563-1.453 3.516-3.516 1.453-3.563-1.453-1.5-3.516zM28.031 33q3.281 0 5.625-2.344t2.344-5.625-2.344-5.672-5.625-2.391-5.672 2.391-2.391 5.672 2.391 5.625 5.672 2.344zM28.031 6q-1.594 0-2.813 1.172t-1.219 2.859 1.172 2.813 2.859 1.125q1.594 0 2.766-1.125t1.172-2.813-1.172-2.859-2.766-1.172zM36.375 1.969q1.5 0 2.578 1.078t1.078 2.578v28.781q0 1.5-1.078 2.531t-2.578 1.031h-16.781q-1.5 0-2.531-1.031t-1.031-2.531v-28.781q0-1.5 1.031-2.578t2.531-1.078h16.781z"></path>
</svg>
