<?xml version="1.0" encoding="utf-8"?>
<!-- Generated by IcoMoon.io -->
<!DOCTYPE svg PUBLIC "-//W3C//DTD SVG 1.1//EN" "http://www.w3.org/Graphics/SVG/1.1/DTD/svg11.dtd">
<svg version="1.1" xmlns="http://www.w3.org/2000/svg" xmlns:xlink="http://www.w3.org/1999/xlink" width="48" height="48" viewBox="0 0 48 48">
<path fill="#181818" d="M30 40.031v-16.031h-12v16.031h12zM29.719 20.063q0.938 0 1.594 0.656t0.656 1.594v19.406q0 0.938-0.656 1.594t-1.594 0.656h-11.438q-0.938 0-1.594-0.656t-0.656-1.594v-19.406q0-0.938 0.656-1.641t1.594-0.703zM24 1.969q9 0 15.469 6.469l-2.813 2.813q-5.25-5.25-12.656-5.25t-12.656 5.25l-2.813-2.813q6.469-6.469 15.469-6.469zM13.969 14.156q4.125-4.125 10.031-4.125t10.031 4.125l-2.906 2.813q-2.906-2.906-7.125-2.906t-7.125 2.906z"></path>
</svg>
