<?xml version="1.0" encoding="utf-8"?>
<!-- Generated by IcoMoon.io -->
<!DOCTYPE svg PUBLIC "-//W3C//DTD SVG 1.1//EN" "http://www.w3.org/Graphics/SVG/1.1/DTD/svg11.dtd">
<svg version="1.1" xmlns="http://www.w3.org/2000/svg" xmlns:xlink="http://www.w3.org/1999/xlink" width="48" height="48" viewBox="0 0 48 48">
<path fill="#181818" d="M13.969 30q2.719-3.75 7.313-4.875l-3.188-3.188q-3 2.906-4.125 8.063zM4.781 3.469l39.469 39.469-2.531 2.531-5.438-5.438h-36.281v-4.031h7.969q-1.688 0-2.813-1.172t-1.125-2.766v-20.063q0-1.781 1.313-2.906l-3.094-3.094zM43.969 32.063q0 2.344-2.063 3.469l-11.063-11.063 3.188-3-8.063-7.406v4.219q-0.188 0.094-0.516 0.094t-0.516 0.094l-10.5-10.406h25.594q1.594 0 2.766 1.125t1.172 2.813v20.063zM42.469 36h5.531v4.031h-1.594z"></path>
</svg>
