<?xml version="1.0" encoding="utf-8"?>
<!-- Generated by IcoMoon.io -->
<!DOCTYPE svg PUBLIC "-//W3C//DTD SVG 1.1//EN" "http://www.w3.org/Graphics/SVG/1.1/DTD/svg11.dtd">
<svg version="1.1" xmlns="http://www.w3.org/2000/svg" xmlns:xlink="http://www.w3.org/1999/xlink" width="48" height="48" viewBox="0 0 48 48">
<path fill="#181818" d="M18.75 26.25q0 5.063 5.813 5.063 4.594 0 4.594-3.375 0-1.5-0.609-2.156t-2.203-1.406q-0.094 0-0.328-0.094t-0.422-0.188-0.375-0.094h-19.219v-4.031h36v4.031h-7.781q0 0.094 0.141 0.328t0.234 0.328q0.656 1.594 0.656 3.281 0 5.719-6.281 7.5-1.969 0.563-4.313 0.563-1.5 0-2.906-0.281-3.375-0.656-5.25-2.063-3.656-2.719-3.656-7.406h5.906zM29.156 15q0-4.219-4.781-4.219-3.375 0-4.406 2.063-0.281 0.563-0.281 1.313 0 1.406 1.5 2.438 1.5 0.938 2.813 1.406h-9.188q0-0.094-0.188-0.234t-0.188-0.234q-0.75-1.219-0.75-3.375 0-3.469 3-5.906 3.188-2.25 7.781-2.25 4.969 0 7.781 2.531 2.906 2.625 2.906 6.469h-6z"></path>
</svg>
