<?xml version="1.0" encoding="utf-8"?>
<!-- Generated by IcoMoon.io -->
<!DOCTYPE svg PUBLIC "-//W3C//DTD SVG 1.1//EN" "http://www.w3.org/Graphics/SVG/1.1/DTD/svg11.dtd">
<svg version="1.1" xmlns="http://www.w3.org/2000/svg" xmlns:xlink="http://www.w3.org/1999/xlink" width="48" height="48" viewBox="0 0 48 48">
<path fill="#181818" d="M11.719 39.469v-12.656l6.938 16.688h-2.906q-1.594 0-2.813-1.219t-1.219-2.813zM15.75 17.531q0.844 0 1.406-0.609t0.563-1.453-0.563-1.406-1.406-0.563-1.406 0.563-0.563 1.406 0.563 1.453 1.406 0.609zM44.063 31.875q0.656 1.5 0 3.047t-2.156 2.203l-14.719 6.094q-0.75 0.281-1.594 0.281-2.625 0-3.656-2.438l-9.938-24q-0.281-0.844-0.281-1.594 0-2.531 2.438-3.563l14.813-6.094q0.844-0.281 1.594-0.281 2.531 0 3.563 2.438zM5.063 39.281q-1.5-0.656-2.156-2.156t0-3l4.875-11.719v18z"></path>
</svg>
