<?xml version="1.0" encoding="utf-8"?>
<!-- Generated by IcoMoon.io -->
<!DOCTYPE svg PUBLIC "-//W3C//DTD SVG 1.1//EN" "http://www.w3.org/Graphics/SVG/1.1/DTD/svg11.dtd">
<svg version="1.1" xmlns="http://www.w3.org/2000/svg" xmlns:xlink="http://www.w3.org/1999/xlink" width="48" height="48" viewBox="0 0 48 48">
<path fill="#181818" d="M18 25.969q2.063 0 4.781 0.563-4.781 2.625-4.781 6.938v4.5h-13.969v-4.969q0-2.156 2.578-3.844t5.672-2.438 5.719-0.75zM33 28.031q3.469 0 7.219 1.5t3.75 3.938v4.5h-21.938v-4.5q0-2.438 3.75-3.938t7.219-1.5zM18 22.031q-2.438 0-4.219-1.781t-1.781-4.219 1.781-4.219 4.219-1.781 4.219 1.781 1.781 4.219-1.781 4.219-4.219 1.781zM33 24q-2.063 0-3.516-1.453t-1.453-3.516 1.453-3.563 3.516-1.5 3.516 1.5 1.453 3.563-1.453 3.516-3.516 1.453z"></path>
</svg>
