<?xml version="1.0" encoding="utf-8"?>
<!-- Generated by IcoMoon.io -->
<!DOCTYPE svg PUBLIC "-//W3C//DTD SVG 1.1//EN" "http://www.w3.org/Graphics/SVG/1.1/DTD/svg11.dtd">
<svg version="1.1" xmlns="http://www.w3.org/2000/svg" xmlns:xlink="http://www.w3.org/1999/xlink" width="48" height="48" viewBox="0 0 48 48">
<path fill="#181818" d="M24 19.969q1.594 0 2.813 1.219t1.219 2.813-1.219 2.813-2.813 1.219-2.813-1.219-1.219-2.813 1.219-2.813 2.813-1.219zM35.344 35.344q4.688-4.688 4.688-11.344t-4.688-11.344l-2.906 2.906q3.563 3.563 3.563 8.438 0 5.063-3.469 8.531zM24 31.969q3.281 0 5.625-2.344t2.344-5.625-2.344-5.625-5.625-2.344-5.625 2.344-2.344 5.625 2.344 5.625 5.625 2.344zM15.563 32.438q-3.563-3.563-3.563-8.438 0-5.063 3.469-8.531l-2.813-2.813q-4.688 4.688-4.688 11.344t4.688 11.344zM40.031 7.969q1.594 0 2.766 1.219t1.172 2.813v24q0 1.594-1.172 2.813t-2.766 1.219h-32.063q-1.594 0-2.766-1.219t-1.172-2.813v-24q0-1.594 1.172-2.813t2.766-1.219h32.063z"></path>
</svg>
