<?xml version="1.0" encoding="utf-8"?>
<!-- Generated by IcoMoon.io -->
<!DOCTYPE svg PUBLIC "-//W3C//DTD SVG 1.1//EN" "http://www.w3.org/Graphics/SVG/1.1/DTD/svg11.dtd">
<svg version="1.1" xmlns="http://www.w3.org/2000/svg" xmlns:xlink="http://www.w3.org/1999/xlink" width="48" height="48" viewBox="0 0 48 48">
<path fill="#181818" d="M36 7.969l7.969 8.063h-6v13.969q0 3.281-2.344 5.625t-5.625 2.344-5.625-2.344-2.344-5.625v-13.969q0-1.594-1.219-2.813t-2.813-1.219-2.813 1.219-1.219 2.813v13.969h6l-7.969 7.969-7.969-7.969h6v-13.969q0-3.281 2.344-5.672t5.625-2.391 5.625 2.391 2.344 5.672v13.969q0 1.594 1.219 2.813t2.813 1.219 2.813-1.219 1.219-2.813v-13.969h-6z"></path>
</svg>
