<?xml version="1.0" encoding="utf-8"?>
<!-- Generated by IcoMoon.io -->
<!DOCTYPE svg PUBLIC "-//W3C//DTD SVG 1.1//EN" "http://www.w3.org/Graphics/SVG/1.1/DTD/svg11.dtd">
<svg version="1.1" xmlns="http://www.w3.org/2000/svg" xmlns:xlink="http://www.w3.org/1999/xlink" width="48" height="48" viewBox="0 0 48 48">
<path fill="#181818" d="M40.031 7.969l-4.781 4.781q4.781 4.781 4.781 11.25 0 4.5-2.438 8.438l-3-2.906q1.406-2.813 1.406-5.531 0-4.875-3.563-8.438l-4.406 4.406v-12h12zM5.719 10.781l2.531-2.531 31.406 31.5-2.531 2.531-4.688-4.688q-2.25 1.313-4.5 1.875v-4.125q0.75-0.281 1.594-0.75l-16.125-16.125q-1.406 2.813-1.406 5.531 0 4.875 3.563 8.438l4.406-4.406v12h-12l4.781-4.781q-4.781-4.781-4.781-11.25 0-4.5 2.438-8.438zM19.969 12.656q-0.563 0.188-1.5 0.75l-2.906-3q2.344-1.406 4.406-1.875v4.125z"></path>
</svg>
