<?xml version="1.0" encoding="utf-8"?>
<!-- Generated by IcoMoon.io -->
<!DOCTYPE svg PUBLIC "-//W3C//DTD SVG 1.1//EN" "http://www.w3.org/Graphics/SVG/1.1/DTD/svg11.dtd">
<svg version="1.1" xmlns="http://www.w3.org/2000/svg" xmlns:xlink="http://www.w3.org/1999/xlink" width="48" height="48" viewBox="0 0 48 48">
<path fill="#181818" d="M22.031 25.969v-12h3.938v12h-3.938zM42 7.969l-4.688 4.781q4.688 4.688 4.688 11.25 0 5.531-3.375 9.844t-8.625 5.625v-4.125q3.563-1.219 5.766-4.313t2.203-7.031q0-4.969-3.469-8.438l-4.5 4.406v-12h12zM22.031 34.031v-4.031h3.938v4.031h-3.938zM6 24q0-5.531 3.375-9.844t8.625-5.625v4.125q-3.563 1.219-5.766 4.313t-2.203 7.031q0 4.969 3.469 8.438l4.5-4.406v12h-12l4.688-4.781q-4.688-4.688-4.688-11.25z"></path>
</svg>
