<?xml version="1.0" encoding="utf-8"?>
<!-- Generated by IcoMoon.io -->
<!DOCTYPE svg PUBLIC "-//W3C//DTD SVG 1.1//EN" "http://www.w3.org/Graphics/SVG/1.1/DTD/svg11.dtd">
<svg version="1.1" xmlns="http://www.w3.org/2000/svg" xmlns:xlink="http://www.w3.org/1999/xlink" width="48" height="48" viewBox="0 0 48 48">
<path fill="#181818" d="M34.031 42v-4.031h3.938v4.031h-3.938zM25.969 42v-4.031h4.031v4.031h-4.031zM42 25.969v-3.938h4.031v3.938h-4.031zM42 42v-4.031h4.031q0 1.594-1.219 2.813t-2.813 1.219zM10.031 10.031v-4.031h3.938v4.031h-3.938zM10.031 42v-4.031h3.938v4.031h-3.938zM18 10.031v-4.031h4.031v4.031h-4.031zM42 34.031v-4.031h4.031v4.031h-4.031zM42 6q1.594 0 2.813 1.219t1.219 2.813v7.969h-20.063v-12h16.031zM6 42q-1.594 0-2.813-1.219t-1.219-2.813h4.031v4.031zM1.969 34.031v-4.031h4.031v4.031h-4.031zM18 42v-4.031h4.031v4.031h-4.031zM1.969 10.031q0-1.594 1.219-2.813t2.813-1.219v4.031h-4.031zM1.969 25.969v-3.938h4.031v3.938h-4.031zM1.969 18v-4.031h4.031v4.031h-4.031z"></path>
</svg>
