<?xml version="1.0" encoding="utf-8"?>
<!-- Generated by IcoMoon.io -->
<!DOCTYPE svg PUBLIC "-//W3C//DTD SVG 1.1//EN" "http://www.w3.org/Graphics/SVG/1.1/DTD/svg11.dtd">
<svg version="1.1" xmlns="http://www.w3.org/2000/svg" xmlns:xlink="http://www.w3.org/1999/xlink" width="48" height="48" viewBox="0 0 48 48">
<path fill="#181818" d="M34.031 2.063q1.594 0 2.766 1.172t1.172 2.766v34.031q0 1.594-1.172 2.766t-2.766 1.172h-4.219q-0.281-4.031-1.875-7.969h6.094v-25.969h-20.063v12q-2.344-1.031-3.938-1.313v-14.719q0-1.594 1.172-2.813t2.766-1.219zM4.031 24q9.094 0 15.516 6.422t6.422 15.609h-3.938q0-7.406-5.297-12.703t-12.703-5.297v-4.031zM4.031 40.031q2.438 0 4.219 1.781t1.781 4.219h-6v-6zM4.031 31.969q5.813 0 9.891 4.125t4.078 9.938h-4.031q0-4.125-2.906-7.078t-7.031-2.953v-4.031z"></path>
</svg>
