<?xml version="1.0" encoding="utf-8"?>
<!-- Generated by IcoMoon.io -->
<!DOCTYPE svg PUBLIC "-//W3C//DTD SVG 1.1//EN" "http://www.w3.org/Graphics/SVG/1.1/DTD/svg11.dtd">
<svg version="1.1" xmlns="http://www.w3.org/2000/svg" xmlns:xlink="http://www.w3.org/1999/xlink" width="48" height="48" viewBox="0 0 48 48">
<path fill="#181818" d="M45 19.969q1.313 0 2.156 0.891t0.844 2.109v13.031q0 1.313-0.844 2.156l-9.938 9.844-1.594-1.594q-0.656-0.656-0.656-1.594 0.281-1.313 0.797-3.75t0.609-3.094h-10.406q-0.844 0-1.406-0.563t-0.563-1.406v-2.531q0-0.281 0.188-1.031l4.594-10.594q0.844-1.875 2.719-1.875h13.5zM24 12v2.531q0 0.281-0.188 1.031l-4.594 10.594q-0.844 1.875-2.719 1.875h-13.5q-1.313 0-2.156-0.891t-0.844-2.109v-13.031q0-1.313 0.844-2.156l9.938-9.844 1.594 1.594q0.656 0.656 0.656 1.594-0.281 1.313-0.797 3.75t-0.609 3.094h10.406q0.844 0 1.406 0.563t0.563 1.406z"></path>
</svg>
