<?xml version="1.0" encoding="utf-8"?>
<!-- Generated by IcoMoon.io -->
<!DOCTYPE svg PUBLIC "-//W3C//DTD SVG 1.1//EN" "http://www.w3.org/Graphics/SVG/1.1/DTD/svg11.dtd">
<svg version="1.1" xmlns="http://www.w3.org/2000/svg" xmlns:xlink="http://www.w3.org/1999/xlink" width="48" height="48" viewBox="0 0 48 48">
<path fill="#181818" d="M24 40.031q3.656 0 7.031-1.969l-19.125-19.125q-1.875 3.188-1.875 7.031 0 5.813 4.078 9.938t9.891 4.125zM6 7.969l35.531 35.531-2.531 2.531-5.063-5.063q-4.688 3-9.938 3-7.5 0-12.75-5.297t-5.25-12.703q0-5.438 3-9.938l-5.531-5.531zM22.031 18.844v-2.813h3.938v6.844zM30 1.969v4.031h-12v-4.031h12zM38.063 9.094l2.813 2.813-2.813 2.906q3.938 4.969 3.938 11.156 0 5.438-3 9.938l-2.906-2.906q1.875-3.188 1.875-7.031 0-5.813-4.078-9.891t-9.891-4.078q-3.75 0-6.938 1.875l-3-2.906q4.5-3 9.938-3 6.281 0 11.25 3.938z"></path>
</svg>
