<?xml version="1.0" encoding="utf-8"?>
<!-- Generated by IcoMoon.io -->
<!DOCTYPE svg PUBLIC "-//W3C//DTD SVG 1.1//EN" "http://www.w3.org/Graphics/SVG/1.1/DTD/svg11.dtd">
<svg version="1.1" xmlns="http://www.w3.org/2000/svg" xmlns:xlink="http://www.w3.org/1999/xlink" width="48" height="48" viewBox="0 0 48 48">
<path fill="#181818" d="M25.781 26.438v-5.063q0-3.375-0.938-4.969-0.656-1.406-2.813-1.406-0.938 0-1.688 0.281-2.156 1.313-2.156 6.188v4.969q0 2.25 0.188 3.094 0.094 0.469 0.844 1.969t2.813 1.5 2.813-1.5q0.563-1.125 0.75-1.969t0.188-3.094zM14.25 22.031q0-10.219 7.781-10.219 3.844 0 5.625 2.25 2.063 2.625 2.063 7.969v3.844q0 10.313-7.688 10.313-7.781 0-7.781-10.313v-3.844zM40.875 20.906q-2.813 0-2.813 2.156 0 0.281 0.047 0.516t0.141 0.375l0.188 0.281t0.281 0.234l0.281 0.141t0.422 0.188 0.422 0.141q0.844 0.375 1.781 0.469 0.844 0.188 2.625 0.75 0.75 0.281 2.063 1.125 0.75 0.469 1.219 1.5 0.469 0.938 0.469 1.969 0 3.469-4.125 4.875-1.125 0.375-2.813 0.375-5.344 0-6.938-3.656-0.469-1.125-0.469-2.063h3.844q0 2.813 3.563 2.813 3.094 0 3.094-2.156 0-0.563-0.281-0.984t-0.563-0.563-0.938-0.422-2.297-0.703-2.203-0.609q-0.75-0.281-1.875-1.031-1.781-1.219-1.781-3.375 0-3.563 3.938-4.875 1.125-0.375 2.719-0.375 3.094 0 5.063 1.406t1.969 4.125h-3.938q0-1.969-1.688-2.344-1.125-0.281-1.406-0.281zM0 15.469l9.469-3.469h0.563v24h-4.031v-19.219l-6 2.063v-3.375z"></path>
</svg>
