<?xml version="1.0" encoding="utf-8"?>
<!-- Generated by IcoMoon.io -->
<!DOCTYPE svg PUBLIC "-//W3C//DTD SVG 1.1//EN" "http://www.w3.org/Graphics/SVG/1.1/DTD/svg11.dtd">
<svg version="1.1" xmlns="http://www.w3.org/2000/svg" xmlns:xlink="http://www.w3.org/1999/xlink" width="48" height="48" viewBox="0 0 48 48">
<path fill="#181818" d="M24 40.031q5.813 0 9.891-4.125t4.078-9.938-4.078-9.891-9.891-4.078-9.891 4.078-4.078 9.891 4.078 9.938 9.891 4.125zM38.063 14.813q3.938 4.969 3.938 11.156 0 7.406-5.25 12.703t-12.75 5.297-12.75-5.297-5.25-12.703 5.25-12.703 12.75-5.297q6.094 0 11.25 4.031l2.813-2.906q1.5 1.219 2.813 2.813zM22.031 28.031v-12h3.938v12h-3.938zM30 1.969v4.031h-12v-4.031h12z"></path>
</svg>
