<?xml version="1.0" encoding="utf-8"?>
<!-- Generated by IcoMoon.io -->
<!DOCTYPE svg PUBLIC "-//W3C//DTD SVG 1.1//EN" "http://www.w3.org/Graphics/SVG/1.1/DTD/svg11.dtd">
<svg version="1.1" xmlns="http://www.w3.org/2000/svg" xmlns:xlink="http://www.w3.org/1999/xlink" width="48" height="48" viewBox="0 0 48 48">
<path fill="#181818" d="M35.063 20.906q-2.906 0-2.906 2.156 0 0.281 0.047 0.469t0.094 0.328 0.188 0.281 0.234 0.188 0.281 0.188 0.281 0.141 0.375 0.141 0.375 0.141q0.844 0.375 1.688 0.469 1.031 0.188 2.719 0.75 0.75 0.281 2.063 1.125 0.656 0.469 1.219 1.5 0.469 0.938 0.469 1.969 0 3.469-4.125 4.875-1.125 0.375-2.906 0.375-5.25 0-6.844-3.656-0.469-1.125-0.469-2.063h3.75q0 1.406 1.031 2.109t2.625 0.703q3.094 0 3.094-2.156 0-0.563-0.281-0.984t-0.563-0.563-0.938-0.422q-0.469-0.188-1.969-0.563-2.625-0.563-4.5-1.781-1.688-1.125-1.688-3.375 0-3.563 3.938-4.875 1.125-0.375 2.719-0.375 3.094 0 5.063 1.406t1.969 4.125h-3.938q0-1.875-1.781-2.344-1.125-0.281-1.313-0.281zM20.156 23.719q3.938 1.5 3.938 5.438 0 3.469-2.25 5.156-2.156 1.875-5.625 1.875t-5.672-1.781-2.203-4.969h4.031q0 1.875 1.031 2.625 1.219 0.938 2.813 0.938 3.938 0 3.938-3.844t-4.313-3.844h-2.438v-3.094h2.344q3 0 3.844-2.156 0.188-0.469 0.188-1.5 0-3.563-3.563-3.563-2.438 0-3.375 1.875-0.281 0.563-0.281 1.406h-3.938q0-4.219 4.5-6 1.594-0.469 3.094-0.469 3.563 0 5.531 1.688t1.969 5.063-3.563 5.156z"></path>
</svg>
