<?xml version="1.0" encoding="utf-8"?>
<!-- Generated by IcoMoon.io -->
<!DOCTYPE svg PUBLIC "-//W3C//DTD SVG 1.1//EN" "http://www.w3.org/Graphics/SVG/1.1/DTD/svg11.dtd">
<svg version="1.1" xmlns="http://www.w3.org/2000/svg" xmlns:xlink="http://www.w3.org/1999/xlink" width="48" height="48" viewBox="0 0 48 48">
<path fill="#181818" d="M46.031 16.031q0 1.594-1.219 2.766t-2.813 1.172q-0.75 0-1.031-0.094l-7.125 7.125q0.188 0.563 0.188 1.031 0 1.594-1.219 2.766t-2.813 1.172-2.813-1.172-1.219-2.766q0-0.469 0.188-1.031l-5.156-5.156q-0.563 0.188-1.031 0.188t-1.031-0.188l-9.094 9.094q0.188 0.563 0.188 1.031 0 1.594-1.219 2.813t-2.813 1.219-2.813-1.219-1.219-2.813 1.219-2.766 2.813-1.172q0.75 0 1.031 0.094l9.094-9.094q-0.094-0.281-0.094-1.031 0-1.594 1.172-2.813t2.766-1.219 2.813 1.219 1.219 2.813q0 0.75-0.094 1.031l5.063 5.063q0.281-0.094 1.031-0.094t1.031 0.094l7.125-7.031q-0.188-0.563-0.188-1.031 0-1.594 1.219-2.813t2.813-1.219 2.813 1.219 1.219 2.813z"></path>
</svg>
