<?xml version="1.0" encoding="utf-8"?>
<!-- Generated by IcoMoon.io -->
<!DOCTYPE svg PUBLIC "-//W3C//DTD SVG 1.1//EN" "http://www.w3.org/Graphics/SVG/1.1/DTD/svg11.dtd">
<svg version="1.1" xmlns="http://www.w3.org/2000/svg" xmlns:xlink="http://www.w3.org/1999/xlink" width="48" height="48" viewBox="0 0 48 48">
<path fill="#181818" d="M24 40.031q6.563 0 11.297-4.734t4.734-11.297-4.734-11.297-11.297-4.734-11.297 4.734-4.734 11.297 4.734 11.297 11.297 4.734zM24 4.031q8.25 0 14.109 5.859t5.859 14.109-5.859 14.109-14.109 5.859-14.109-5.859-5.859-14.109 5.859-14.109 14.109-5.859zM32.438 15.563q3.563 3.563 3.563 8.438t-3.469 8.438-8.438 3.563-8.531-3.563l8.438-8.438v-12q4.875 0 8.438 3.563z"></path>
</svg>
