<?xml version="1.0" encoding="utf-8"?>
<!-- Generated by IcoMoon.io -->
<!DOCTYPE svg PUBLIC "-//W3C//DTD SVG 1.1//EN" "http://www.w3.org/Graphics/SVG/1.1/DTD/svg11.dtd">
<svg version="1.1" xmlns="http://www.w3.org/2000/svg" xmlns:xlink="http://www.w3.org/1999/xlink" width="48" height="48" viewBox="0 0 48 48">
<path fill="#181818" d="M39.469 28.031q0.188-0.563 0.375-2.063h-13.875v2.063h13.5zM36.469 34.031q1.125-1.594 1.406-2.063h-11.906v2.063h10.5zM25.969 39.844q3-0.375 5.813-1.875h-5.813v1.875zM25.969 19.969v2.063h13.875q-0.188-1.5-0.375-2.063h-13.5zM25.969 13.969v2.063h11.906q-0.281-0.469-1.406-2.063h-10.5zM25.969 8.156v1.875h5.813q-2.813-1.5-5.813-1.875zM22.031 39.844v-31.688q-5.906 0.75-9.984 5.25t-4.078 10.594 4.078 10.594 9.984 5.25zM24 4.031q8.25 0 14.109 5.859t5.859 14.109-5.859 14.109-14.109 5.859-14.109-5.859-5.859-14.109 5.859-14.109 14.109-5.859z"></path>
</svg>
