<?xml version="1.0" encoding="utf-8"?>
<!-- Generated by IcoMoon.io -->
<!DOCTYPE svg PUBLIC "-//W3C//DTD SVG 1.1//EN" "http://www.w3.org/Graphics/SVG/1.1/DTD/svg11.dtd">
<svg version="1.1" xmlns="http://www.w3.org/2000/svg" xmlns:xlink="http://www.w3.org/1999/xlink" width="48" height="48" viewBox="0 0 48 48">
<path fill="#181818" d="M37.688 31.781q1.781 0.844 1.781 2.719v0.375l-1.5 10.594q-0.094 1.125-0.938 1.828t-1.969 0.703h-13.594q-1.219 0-2.063-0.844l-9.938-9.938 1.594-1.594q0.656-0.656 1.594-0.656 0.094 0 0.234 0.047t0.234 0.047l6.844 1.406v-21.469q0-1.313 0.891-2.156t2.109-0.844 2.109 0.844 0.891 2.156v12h1.594q0.281 0 1.031 0.188zM18 22.5q-4.031-2.625-4.031-7.5 0-3.75 2.625-6.375t6.375-2.625 6.375 2.625 2.625 6.375q0 4.969-3.938 7.5v-7.5q0-2.063-1.5-3.516t-3.563-1.453-3.516 1.453-1.453 3.516v7.5z"></path>
</svg>
