<?xml version="1.0" encoding="utf-8"?>
<!-- Generated by IcoMoon.io -->
<!DOCTYPE svg PUBLIC "-//W3C//DTD SVG 1.1//EN" "http://www.w3.org/Graphics/SVG/1.1/DTD/svg11.dtd">
<svg version="1.1" xmlns="http://www.w3.org/2000/svg" xmlns:xlink="http://www.w3.org/1999/xlink" width="48" height="48" viewBox="0 0 48 48">
<path fill="#181818" d="M38.156 9.844q5.813 5.813 5.813 14.156 0 8.25-5.859 14.109t-14.109 5.859-14.109-5.859-5.859-14.109 5.859-14.109 14.109-5.859h1.969v16.5q2.063 1.125 2.063 3.469 0 1.594-1.219 2.813t-2.813 1.219-2.813-1.219-1.219-2.813q0-2.344 2.063-3.469v-4.219q-2.625 0.75-4.313 2.813t-1.688 4.875q0 3.281 2.344 5.625t5.625 2.344 5.625-2.344 2.344-5.625q0-3.094-2.344-5.625l2.813-2.813q3.563 3.563 3.563 8.438 0 4.969-3.516 8.484t-8.484 3.516-8.484-3.516-3.516-8.484q0-4.406 2.859-7.734t7.172-4.078v-4.031q-5.906 0.75-9.984 5.25t-4.078 10.594q0 6.563 4.734 11.297t11.297 4.734 11.297-4.734 4.734-11.297q0-6.656-4.688-11.344z"></path>
</svg>
