<?xml version="1.0" encoding="utf-8"?>
<!-- Generated by IcoMoon.io -->
<!DOCTYPE svg PUBLIC "-//W3C//DTD SVG 1.1//EN" "http://www.w3.org/Graphics/SVG/1.1/DTD/svg11.dtd">
<svg version="1.1" xmlns="http://www.w3.org/2000/svg" xmlns:xlink="http://www.w3.org/1999/xlink" width="48" height="48" viewBox="0 0 48 48">
<path fill="#181818" d="M24 18q1.688 0 2.859-1.219t1.172-2.813q0-1.688-1.172-2.813t-2.859-1.125-2.859 1.125-1.172 2.813q0 1.594 1.172 2.813t2.859 1.219zM24 28.031q1.688 0 2.859-1.219t1.172-2.813-1.219-2.813-2.813-1.219q-1.688 0-2.859 1.219t-1.172 2.813 1.172 2.813 2.859 1.219zM24 37.969q1.688 0 2.859-1.172t1.172-2.766-1.219-2.813-2.813-1.219q-1.688 0-2.859 1.219t-1.172 2.813 1.172 2.766 2.859 1.172zM40.031 19.969q0 2.813-1.688 4.922t-4.313 2.859v2.25h6q0 2.813-1.688 4.875t-4.313 2.813v2.344q0 0.844-0.609 1.406t-1.453 0.563h-15.938q-0.844 0-1.453-0.563t-0.609-1.406v-2.344q-2.625-0.75-4.313-2.813t-1.688-4.875h6v-2.25q-2.625-0.75-4.313-2.859t-1.688-4.922h6v-2.25q-2.625-0.75-4.313-2.813t-1.688-4.875h6v-2.063q0-0.844 0.609-1.406t1.453-0.563h15.938q0.844 0 1.453 0.563t0.609 1.406v2.063h6q0 2.813-1.688 4.875t-4.313 2.813v2.25h6z"></path>
</svg>
