<?xml version="1.0" encoding="utf-8"?>
<!-- Generated by IcoMoon.io -->
<!DOCTYPE svg PUBLIC "-//W3C//DTD SVG 1.1//EN" "http://www.w3.org/Graphics/SVG/1.1/DTD/svg11.dtd">
<svg version="1.1" xmlns="http://www.w3.org/2000/svg" xmlns:xlink="http://www.w3.org/1999/xlink" width="48" height="48" viewBox="0 0 48 48">
<path fill="#181818" d="M31.781 34.031h6.469l-3.281-8.719zM37.031 19.969l9 24h-4.031l-2.25-6h-9.469l-2.25 6h-4.031l9-24h4.031zM25.781 30.094l-1.594 4.125-6.188-6.188-10.031 9.938-2.813-2.813 10.219-10.031q-3.75-4.125-6-9.094h4.031q1.969 3.75 4.594 6.656 4.313-4.781 6.375-10.688h-22.406v-4.031h14.063v-3.938h3.938v3.938h14.063v4.031h-5.906q-2.438 7.5-7.406 13.031l-0.094 0.094z"></path>
</svg>
