<?xml version="1.0" encoding="utf-8"?>
<!-- Generated by IcoMoon.io -->
<!DOCTYPE svg PUBLIC "-//W3C//DTD SVG 1.1//EN" "http://www.w3.org/Graphics/SVG/1.1/DTD/svg11.dtd">
<svg version="1.1" xmlns="http://www.w3.org/2000/svg" xmlns:xlink="http://www.w3.org/1999/xlink" width="48" height="48" viewBox="0 0 48 48">
<path fill="#181818" d="M25.031 16.031v8.438l6.938 4.219-1.406 2.438-8.531-5.156v-9.938h3zM42 20.25h-13.594l5.531-5.625q-4.125-4.125-9.891-4.172t-9.891 3.984q-4.031 4.125-4.031 9.75t4.031 9.75 9.844 4.125 9.938-4.125q4.031-4.031 4.031-9.75h4.031q0 7.406-5.25 12.563-5.25 5.25-12.75 5.25t-12.75-5.25q-5.25-5.156-5.25-12.516t5.25-12.609 12.656-5.25 12.656 5.25l5.438-5.625v14.25z"></path>
</svg>
