<?xml version="1.0" encoding="utf-8"?>
<!-- Generated by IcoMoon.io -->
<!DOCTYPE svg PUBLIC "-//W3C//DTD SVG 1.1//EN" "http://www.w3.org/Graphics/SVG/1.1/DTD/svg11.dtd">
<svg version="1.1" xmlns="http://www.w3.org/2000/svg" xmlns:xlink="http://www.w3.org/1999/xlink" width="48" height="48" viewBox="0 0 48 48">
<path fill="#181818" d="M30 13.969h7.969v8.063h-1.969v3.938q0 1.688-1.172 2.859t-2.859 1.172h-6v6.094q2.438 1.313 2.438 3.938 0 1.781-1.266 3.094t-3.141 1.313-3.141-1.313-1.266-3.094q0-2.625 2.438-3.938v-6.094h-6q-1.688 0-2.859-1.172t-1.172-2.859v-4.125q-2.438-1.313-2.438-3.844 0-1.875 1.313-3.141t3.094-1.266 3.094 1.266 1.313 3.141q0 2.625-2.344 3.844v4.125h6v-15.938h-4.031l6-8.063 6 8.063h-4.031v15.938h6v-3.938h-1.969v-8.063z"></path>
</svg>
