<?xml version="1.0" encoding="utf-8"?>
<!-- Generated by IcoMoon.io -->
<!DOCTYPE svg PUBLIC "-//W3C//DTD SVG 1.1//EN" "http://www.w3.org/Graphics/SVG/1.1/DTD/svg11.dtd">
<svg version="1.1" xmlns="http://www.w3.org/2000/svg" xmlns:xlink="http://www.w3.org/1999/xlink" width="48" height="48" viewBox="0 0 48 48">
<path fill="#181818" d="M31.969 37.969v-27.938h-15.938v27.938h15.938zM33 6q1.313 0 2.156 0.844t0.844 2.156v30q0 1.313-0.844 2.156t-2.156 0.844h-18q-1.313 0-2.156-0.844t-0.844-2.156v-30q0-1.313 0.844-2.156t2.156-0.844h18zM37.969 34.031v-20.063h4.031v20.063h-4.031zM43.969 18h4.031v12h-4.031v-12zM6 34.031v-20.063h4.031v20.063h-4.031zM0 30v-12h4.031v12h-4.031z"></path>
</svg>
