<?xml version="1.0" encoding="utf-8"?>
<!-- Generated by IcoMoon.io -->
<!DOCTYPE svg PUBLIC "-//W3C//DTD SVG 1.1//EN" "http://www.w3.org/Graphics/SVG/1.1/DTD/svg11.dtd">
<svg version="1.1" xmlns="http://www.w3.org/2000/svg" xmlns:xlink="http://www.w3.org/1999/xlink" width="48" height="48" viewBox="0 0 48 48">
<path fill="#181818" d="M39 24q1.313 0 2.156-0.844t0.844-2.156-0.844-2.156-2.156-0.844-2.156 0.844-0.844 2.156 0.844 2.156 2.156 0.844zM31.031 30q1.219 0 2.109-0.844t0.891-2.156-0.891-2.156-2.109-0.844-2.109 0.844-0.891 2.156 0.891 2.156 2.109 0.844zM22.031 25.969v-3.938h-6v-6h-4.031v6h-6v3.938h6v6h4.031v-6h6zM42 12q1.594 0 2.813 1.219t1.219 2.813v15.938q0 1.594-1.219 2.813t-2.813 1.219h-36q-1.594 0-2.813-1.219t-1.219-2.813v-15.938q0-1.594 1.219-2.813t2.813-1.219h36z"></path>
</svg>
