<?xml version="1.0" encoding="utf-8"?>
<!-- Generated by IcoMoon.io -->
<!DOCTYPE svg PUBLIC "-//W3C//DTD SVG 1.1//EN" "http://www.w3.org/Graphics/SVG/1.1/DTD/svg11.dtd">
<svg version="1.1" xmlns="http://www.w3.org/2000/svg" xmlns:xlink="http://www.w3.org/1999/xlink" width="48" height="48" viewBox="0 0 48 48">
<path fill="#181818" d="M25.969 10.031q0.844 0 1.453 0.563t0.609 1.406v24q0 0.844-0.609 1.406t-1.453 0.563h-6q-0.844 0-1.406-0.563t-0.563-1.406v-24q0-0.844 0.563-1.406t1.406-0.563h6zM40.031 10.031q0.844 0 1.406 0.563t0.563 1.406v24q0 0.844-0.563 1.406t-1.406 0.563h-6q-0.844 0-1.453-0.563t-0.609-1.406v-24q0-0.844 0.609-1.406t1.453-0.563h6zM12 10.031q0.844 0 1.406 0.563t0.563 1.406v24q0 0.844-0.563 1.406t-1.406 0.563h-6q-0.844 0-1.406-0.563t-0.563-1.406v-24q0-0.844 0.563-1.406t1.406-0.563h6z"></path>
</svg>
