<?xml version="1.0" encoding="utf-8"?>
<!-- Generated by IcoMoon.io -->
<!DOCTYPE svg PUBLIC "-//W3C//DTD SVG 1.1//EN" "http://www.w3.org/Graphics/SVG/1.1/DTD/svg11.dtd">
<svg version="1.1" xmlns="http://www.w3.org/2000/svg" xmlns:xlink="http://www.w3.org/1999/xlink" width="48" height="48" viewBox="0 0 48 48">
<path fill="#181818" d="M23.719 18h0.281q2.438 0 4.219 1.781t1.781 4.219v0.375zM15.094 19.594q-1.125 2.25-1.125 4.406 0 4.125 2.953 7.078t7.078 2.953q2.156 0 4.406-1.125l-3.094-3.094q-0.75 0.188-1.313 0.188-2.438 0-4.219-1.781t-1.781-4.219q0-0.563 0.188-1.313zM4.031 8.531l2.531-2.531 35.438 35.438-2.531 2.531q-0.469-0.469-2.953-2.906t-3.797-3.75q-4.031 1.688-8.719 1.688-7.406 0-13.406-4.125t-8.625-10.875q2.344-5.813 7.5-9.938-1.125-1.125-3.141-3.188t-2.297-2.344zM24 13.969q-1.875 0-3.656 0.75l-4.313-4.313q3.656-1.406 7.969-1.406 7.406 0 13.359 4.125t8.578 10.875q-2.25 5.531-6.844 9.469l-5.813-5.813q0.75-1.781 0.75-3.656 0-4.125-2.953-7.078t-7.078-2.953z"></path>
</svg>
