<?xml version="1.0" encoding="utf-8"?>
<!-- Generated by IcoMoon.io -->
<!DOCTYPE svg PUBLIC "-//W3C//DTD SVG 1.1//EN" "http://www.w3.org/Graphics/SVG/1.1/DTD/svg11.dtd">
<svg version="1.1" xmlns="http://www.w3.org/2000/svg" xmlns:xlink="http://www.w3.org/1999/xlink" width="48" height="48" viewBox="0 0 48 48">
<path fill="#181818" d="M24 18q2.438 0 4.219 1.781t1.781 4.219-1.781 4.219-4.219 1.781-4.219-1.781-1.781-4.219 1.781-4.219 4.219-1.781zM24 34.031q4.125 0 7.078-2.953t2.953-7.078-2.953-7.078-7.078-2.953-7.078 2.953-2.953 7.078 2.953 7.078 7.078 2.953zM24 9q7.406 0 13.406 4.125t8.625 10.875q-2.625 6.75-8.625 10.875t-13.406 4.125-13.406-4.125-8.625-10.875q2.625-6.75 8.625-10.875t13.406-4.125z"></path>
</svg>
