<?xml version="1.0" encoding="utf-8"?>
<!-- Generated by IcoMoon.io -->
<!DOCTYPE svg PUBLIC "-//W3C//DTD SVG 1.1//EN" "http://www.w3.org/Graphics/SVG/1.1/DTD/svg11.dtd">
<svg version="1.1" xmlns="http://www.w3.org/2000/svg" xmlns:xlink="http://www.w3.org/1999/xlink" width="48" height="48" viewBox="0 0 48 48">
<path fill="#181818" d="M37.031 30q2.906 0 4.922-2.063t2.016-4.969-2.016-4.922-4.922-2.016-4.969 2.016-2.063 4.922 2.063 4.969 4.969 2.063zM10.969 30q2.906 0 4.969-2.063t2.063-4.969-2.063-4.922-4.969-2.016-4.922 2.016-2.016 4.922 2.016 4.969 4.922 2.063zM37.031 12q4.594 0 7.781 3.188t3.188 7.781-3.188 7.828-7.781 3.234h-26.063q-4.594 0-7.781-3.234t-3.188-7.828 3.188-7.781 7.781-3.188 7.828 3.188 3.234 7.781q0 4.031-2.531 7.031h9q-2.531-3-2.531-7.031 0-4.594 3.234-7.781t7.828-3.188z"></path>
</svg>
