<?xml version="1.0" encoding="utf-8"?>
<!-- Generated by IcoMoon.io -->
<!DOCTYPE svg PUBLIC "-//W3C//DTD SVG 1.1//EN" "http://www.w3.org/Graphics/SVG/1.1/DTD/svg11.dtd">
<svg version="1.1" xmlns="http://www.w3.org/2000/svg" xmlns:xlink="http://www.w3.org/1999/xlink" width="48" height="48" viewBox="0 0 48 48">
<path fill="#181818" d="M19.969 41.906v-3.938q-1.594 0-2.766-1.172t-1.172-2.766v-2.063l-9.656-9.563q-0.375 1.5-0.375 3.563 0 6.094 4.031 10.641t9.938 5.297zM37.875 24h4.031q0.094 0.656 0.094 1.969 0 8.344-5.859 14.203t-14.109 5.859q-8.344 0-14.203-5.859t-5.859-14.203q0-8.25 5.859-14.109t14.203-5.859q2.906 0 6 0.938v5.063q0 1.594-1.219 2.813t-2.813 1.219h-4.031v3.938q0 0.844-0.563 1.453t-1.406 0.609h-4.031v3.938h12q0.844 0 1.453 0.609t0.609 1.453v6h1.969q2.906 0 3.844 2.719 4.125-4.406 4.125-10.781 0-1.313-0.094-1.969zM42.375 7.969v-0.938q0-1.406-0.984-2.438t-2.391-1.031-2.391 1.031-0.984 2.438v0.938h6.75zM43.969 7.969q0.844 0 1.453 0.609t0.609 1.453v7.969q0 0.844-0.609 1.406t-1.453 0.563h-9.938q-0.844 0-1.453-0.563t-0.609-1.406v-7.969q0-0.844 0.609-1.453t1.453-0.609v-0.938q0-2.063 1.453-3.563t3.516-1.5 3.516 1.5 1.453 3.563v0.938z"></path>
</svg>
