<?xml version="1.0" encoding="utf-8"?>
<!-- Generated by IcoMoon.io -->
<!DOCTYPE svg PUBLIC "-//W3C//DTD SVG 1.1//EN" "http://www.w3.org/Graphics/SVG/1.1/DTD/svg11.dtd">
<svg version="1.1" xmlns="http://www.w3.org/2000/svg" xmlns:xlink="http://www.w3.org/1999/xlink" width="48" height="48" viewBox="0 0 48 48">
<path fill="#181818" d="M20.625 31.969h3.75l-6.375-18h-4.031l-6.375 18h3.844l1.406-3.938h6.375zM43.969 13.969h3.656l-4.125 18h-3.469l-3-12.188-3 12.188h-3.563l-0.188-0.844q-1.969 4.031-5.813 6.469t-8.438 2.438q-6.656 0-11.344-4.734t-4.688-11.297 4.688-11.297 11.344-4.734q7.688 0 12.469 6h1.5l2.438 12.656 3-12.656h3.188l3 12.656zM13.688 25.313l2.344-7.313 2.25 7.313h-4.594z"></path>
</svg>
