<?xml version="1.0" encoding="utf-8"?>
<!-- Generated by IcoMoon.io -->
<!DOCTYPE svg PUBLIC "-//W3C//DTD SVG 1.1//EN" "http://www.w3.org/Graphics/SVG/1.1/DTD/svg11.dtd">
<svg version="1.1" xmlns="http://www.w3.org/2000/svg" xmlns:xlink="http://www.w3.org/1999/xlink" width="48" height="48" viewBox="0 0 48 48">
<path fill="#181818" d="M34.5 36.281l2.813-2.719 3.563 3.563-2.813 2.813zM40.031 21h6v4.031h-6v-4.031zM30 12.656q2.719 1.594 4.359 4.313t1.641 6q0 4.969-3.516 8.484t-8.484 3.516-8.484-3.516-3.516-8.484q0-3.281 1.641-6t4.359-4.313v-9.656h12v9.656zM7.969 21v4.031h-6v-4.031h6zM22.031 44.906v-5.906h3.938v5.906h-3.938zM7.125 37.125l3.563-3.656 2.813 2.813-3.563 3.656z"></path>
</svg>
