<?xml version="1.0" encoding="utf-8"?>
<!-- Generated by IcoMoon.io -->
<!DOCTYPE svg PUBLIC "-//W3C//DTD SVG 1.1//EN" "http://www.w3.org/Graphics/SVG/1.1/DTD/svg11.dtd">
<svg version="1.1" xmlns="http://www.w3.org/2000/svg" xmlns:xlink="http://www.w3.org/1999/xlink" width="48" height="48" viewBox="0 0 48 48">
<path fill="#181818" d="M7.125 37.125l3.563-3.656 2.813 2.813-3.563 3.656zM22.031 44.906v-5.906h3.938v5.906h-3.938zM24 10.969q4.969 0 8.484 3.516t3.516 8.484-3.516 8.484-8.484 3.516-8.484-3.516-3.516-8.484 3.516-8.484 8.484-3.516zM40.031 21h6v4.031h-6v-4.031zM34.5 36.281l2.813-2.719 3.563 3.563-2.813 2.813zM40.875 8.906l-3.563 3.563-2.813-2.813 3.563-3.563zM25.969 1.125v5.906h-3.938v-5.906h3.938zM7.969 21v4.031h-6v-4.031h6zM13.5 9.656l-2.813 2.813-3.563-3.563 2.813-2.813z"></path>
</svg>
