<?xml version="1.0" encoding="utf-8"?>
<!-- Generated by IcoMoon.io -->
<!DOCTYPE svg PUBLIC "-//W3C//DTD SVG 1.1//EN" "http://www.w3.org/Graphics/SVG/1.1/DTD/svg11.dtd">
<svg version="1.1" xmlns="http://www.w3.org/2000/svg" xmlns:xlink="http://www.w3.org/1999/xlink" width="48" height="48" viewBox="0 0 48 48">
<path fill="#181818" d="M33 12q-1.688 0-2.859-1.172t-1.172-2.859 1.172-2.813 2.859-1.125 2.859 1.125 1.172 2.813-1.172 2.859-2.859 1.172zM15 12q-1.688 0-2.859-1.172t-1.172-2.859 1.172-2.813 2.859-1.125 2.859 1.125 1.172 2.813-1.172 2.859-2.859 1.172zM36 43.969h-6v-12h-6l5.063-15.188q1.031-2.813 3.844-2.813h0.188q2.813 0 3.844 2.813l5.063 15.188h-6v12zM10.969 43.969v-15h-3v-10.969q0-1.594 1.219-2.813t2.813-1.219h6q1.594 0 2.813 1.219t1.219 2.813v10.969h-3v15h-8.063z"></path>
</svg>
