<?xml version="1.0" encoding="utf-8"?>
<!-- Generated by IcoMoon.io -->
<!DOCTYPE svg PUBLIC "-//W3C//DTD SVG 1.1//EN" "http://www.w3.org/Graphics/SVG/1.1/DTD/svg11.dtd">
<svg version="1.1" xmlns="http://www.w3.org/2000/svg" xmlns:xlink="http://www.w3.org/1999/xlink" width="48" height="48" viewBox="0 0 48 48">
<path fill="#181818" d="M36 10.031q1.594 0 2.813 1.172t1.219 2.766v4.313q-1.781 0.656-2.906 2.156t-1.125 3.469v4.125h-24v-4.125q0-1.969-1.125-3.469t-2.906-2.156v-4.313q0-1.594 1.219-2.766t2.813-1.172h24zM42 19.969q1.594 0 2.813 1.219t1.219 2.813v10.031q0 1.594-1.219 2.766t-2.813 1.172h-36q-1.594 0-2.813-1.172t-1.219-2.766v-10.031q0-1.594 1.219-2.813t2.813-1.219 2.813 1.219 1.219 2.813v6h27.938v-6q0-1.594 1.219-2.813t2.813-1.219z"></path>
</svg>
