<?xml version="1.0" encoding="utf-8"?>
<!-- Generated by IcoMoon.io -->
<!DOCTYPE svg PUBLIC "-//W3C//DTD SVG 1.1//EN" "http://www.w3.org/Graphics/SVG/1.1/DTD/svg11.dtd">
<svg version="1.1" xmlns="http://www.w3.org/2000/svg" xmlns:xlink="http://www.w3.org/1999/xlink" width="48" height="48" viewBox="0 0 48 48">
<path fill="#181818" d="M23.438 37.969q4.031 0 6.797-2.766t2.766-6.797q0-4.125-1.125-8.063-2.906 3.844-9.281 5.156-5.625 1.219-5.625 6.188 0 2.625 1.875 4.453t4.594 1.828zM27 1.313q6 4.875 9.516 11.859t3.516 14.859q0 6.563-4.688 11.25t-11.344 4.688-11.344-4.688-4.688-11.25q0-10.125 6.469-17.813v0.75q0 3.094 2.063 5.25t5.156 2.156q3 0 4.922-2.109t1.922-5.297q0-1.875-0.375-4.313t-0.75-3.844z"></path>
</svg>
