<?xml version="1.0" encoding="UTF-8" standalone="no"?>
<!-- Generated by IcoMoon.io -->

<svg
   xmlns:dc="http://purl.org/dc/elements/1.1/"
   xmlns:cc="http://creativecommons.org/ns#"
   xmlns:rdf="http://www.w3.org/1999/02/22-rdf-syntax-ns#"
   xmlns:svg="http://www.w3.org/2000/svg"
   xmlns="http://www.w3.org/2000/svg"
   xmlns:sodipodi="http://sodipodi.sourceforge.net/DTD/sodipodi-0.dtd"
   xmlns:inkscape="http://www.inkscape.org/namespaces/inkscape"
   version="1.1"
   width="48"
   height="48"
   viewBox="0 0 48 48"
   id="svg2"
   inkscape:version="0.91 r13725"
   sodipodi:docname="whatshot.svg">
  <metadata
     id="metadata10">
    <rdf:RDF>
      <cc:Work
         rdf:about="">
        <dc:format>image/svg+xml</dc:format>
        <dc:type
           rdf:resource="http://purl.org/dc/dcmitype/StillImage" />
      </cc:Work>
    </rdf:RDF>
  </metadata>
  <defs
     id="defs8" />
  <sodipodi:namedview
     pagecolor="#ffffff"
     bordercolor="#666666"
     borderopacity="1"
     objecttolerance="10"
     gridtolerance="10"
     guidetolerance="10"
     inkscape:pageopacity="0"
     inkscape:pageshadow="2"
     inkscape:window-width="640"
     inkscape:window-height="480"
     id="namedview6"
     showgrid="false"
     inkscape:zoom="6.3786924"
     inkscape:cx="-210.62662"
     inkscape:cy="34.243521"
     inkscape:current-layer="svg2" />
  <path
     inkscape:connector-curvature="0"
     id="path4152"
     d="m -213.09323,-33.303861 c 11.89003,12.69242 17.91741,31.3137395 13.78353,48.42843 -3.31174,12.10281 -16.73979,20.27535 -29.0178,17.62592 -12.67682,-2.01275 -22.49202,-15.06561 -20.53191,-27.8275205 1.16062,-10.3362 6.28678,-20.1763995 14.11257,-27.0312995 -1.53865,5.96518 2.20418,12.9563095 8.41316,14.2075095 4.97026,1.27053 10.63747,-1.41776 12.43848,-6.3065395 1.98599,-4.96165 1.35289,-10.44364 1.16162,-15.65346 -0.10503,-1.14921 -0.24378,-2.29494 -0.35965,-3.44304 z"
     style="fill:#f9a825;stroke:none;stroke-width:1.50000012;stroke-linejoin:round;stroke-miterlimit:4;stroke-dasharray:none;stroke-opacity:1" />
  <path
     inkscape:connector-curvature="0"
     id="path4163"
     d="m -231.10191,-37.640323 c -9.98727,11.56961 -15.05011,28.5436096 -11.57776,44.1442596 2.78176,11.0321504 14.06093,18.4817304 24.37409,16.0666704 10.64815,-1.8347 18.89263,-13.7328504 17.24619,-25.3657904 -0.97488,-9.4218196 -5.28071,-18.3915096 -11.85413,-24.6400096 1.29241,5.43748 -1.85146,11.81014 -7.0668,12.95067 -4.17488,1.15813 -8.93517,-1.29234 -10.44797,-5.74865 -1.66817,-4.52271 -1.13639,-9.51974 -0.97571,-14.26869 0.0882,-1.04753 0.20477,-2.09192 0.30213,-3.13845 z"
     style="fill:#fdd835;stroke:none;stroke-width:1.50000012;stroke-linejoin:round;stroke-miterlimit:4;stroke-dasharray:none;stroke-opacity:1" />
  <path
     style="fill:#ffea00;stroke:none;stroke-width:1.50000012;stroke-linejoin:round;stroke-miterlimit:4;stroke-dasharray:none;stroke-opacity:1"
     d="m -217.6412,-24.258993 c 7.51106,8.01795 11.31863,19.7812396 8.70721,30.5927696 -2.09206,7.6454804 -10.57471,12.8081704 -18.33086,11.1344904 -8.00809,-1.27148 -14.20846,-9.5171104 -12.97023,-17.57895041 0.73317,-6.52948999 3.97143,-12.74564959 8.91506,-17.07596959 -0.97198,3.76827 1.39241,8.1846396 5.31468,8.9750496 3.13977,0.8026 6.71981,-0.89562 7.85753,-3.9839196 1.25457,-3.13432 0.85464,-6.59735 0.7338,-9.88846 -0.0663,-0.72596 -0.154,-1.44974 -0.22722,-2.175 z"
     id="path4146"
     inkscape:connector-curvature="0" />
  <path
     inkscape:connector-curvature="0"
     id="path4175"
     d="m -266.61963,-4.9568398 c 6.24728,6.668895 9.41421,16.4529468 7.24217,25.4454078 -1.74005,6.359068 -8.79546,10.653109 -15.2466,9.26104 -6.66069,-1.057552 -11.81782,-7.915791 -10.78792,-14.621181 0.6098,-5.4308847 3.30322,-10.6011699 7.41506,-14.2028688 -0.80845,3.134241 1.15812,6.8075213 4.42045,7.4649395 2.61149,0.667571 5.58917,-0.7449321 6.53546,-3.3136069 1.04349,-2.6069256 0.71084,-5.4873116 0.61034,-8.2246766 -0.0551,-0.603805 -0.12809,-1.205796 -0.189,-1.809031 z"
     style="fill:#ffb74d;stroke:none;stroke-width:1.50000012;stroke-linejoin:round;stroke-miterlimit:4;stroke-dasharray:none;stroke-opacity:1" />
</svg>
