<?xml version="1.0" encoding="utf-8"?>
<!-- Generated by IcoMoon.io -->
<!DOCTYPE svg PUBLIC "-//W3C//DTD SVG 1.1//EN" "http://www.w3.org/Graphics/SVG/1.1/DTD/svg11.dtd">
<svg version="1.1" xmlns="http://www.w3.org/2000/svg" xmlns:xlink="http://www.w3.org/1999/xlink" width="48" height="48" viewBox="0 0 48 48">
<path fill="#181818" d="M24 6q8.25 0 14.109 5.813t5.859 14.156q0 5.438-2.672 10.078t-7.266 7.266l-2.063-3.469q3.656-2.156 5.859-5.859t2.203-8.016q0-6.563-4.688-11.25t-11.344-4.688-11.344 4.688-4.688 11.25q0 4.406 2.156 8.063t5.813 5.813l-1.969 3.469q-4.594-2.625-7.266-7.266t-2.672-10.078q0-8.344 5.859-14.156t14.109-5.813zM36 25.969q0 3.281-1.641 6.047t-4.359 4.359l-1.969-3.469q3.938-2.344 3.938-6.938 0-3.281-2.344-5.625t-5.625-2.344-5.625 2.344-2.344 5.625q0 4.594 3.938 6.938l-1.969 3.469q-2.719-1.594-4.359-4.359t-1.641-6.047q0-4.969 3.516-8.484t8.484-3.516 8.484 3.516 3.516 8.484zM24 22.031q1.594 0 2.813 1.172t1.219 2.766-1.219 2.813-2.813 1.219-2.813-1.219-1.219-2.813 1.219-2.766 2.813-1.172z"></path>
</svg>
