<?xml version="1.0" encoding="utf-8"?>
<!-- Generated by IcoMoon.io -->
<!DOCTYPE svg PUBLIC "-//W3C//DTD SVG 1.1//EN" "http://www.w3.org/Graphics/SVG/1.1/DTD/svg11.dtd">
<svg version="1.1" xmlns="http://www.w3.org/2000/svg" xmlns:xlink="http://www.w3.org/1999/xlink" width="48" height="48" viewBox="0 0 48 48">
<path fill="#181818" d="M43.969 31.969v-3q0-1.219-0.891-2.109t-2.109-0.891-2.109 0.891-0.891 2.109v3h6zM46.031 31.969q0.844 0 1.406 0.609t0.563 1.453v7.969q0 0.844-0.563 1.406t-1.406 0.563h-10.031q-0.844 0-1.406-0.563t-0.563-1.406v-7.969q0-0.844 0.563-1.453t1.406-0.609v-3q0-2.063 1.453-3.516t3.516-1.453 3.563 1.453 1.5 3.516v3zM40.969 19.031q-4.125 0-7.031 2.906t-2.906 7.031v5.719l-7.031 9.281-24-31.969q10.5-7.969 24-7.969t24 7.969l-5.344 7.125q-0.563-0.094-1.688-0.094z"></path>
</svg>
