<?xml version="1.0" encoding="utf-8"?>
<!-- Generated by IcoMoon.io -->
<!DOCTYPE svg PUBLIC "-//W3C//DTD SVG 1.1//EN" "http://www.w3.org/Graphics/SVG/1.1/DTD/svg11.dtd">
<svg version="1.1" xmlns="http://www.w3.org/2000/svg" xmlns:xlink="http://www.w3.org/1999/xlink" width="48" height="48" viewBox="0 0 48 48">
<path fill="#181818" d="M34.031 28.031l9.938 9.938-2.906 3-10.031-10.031v-1.5l-0.563-0.563q-3.563 3.094-8.438 3.094-3.563 0-6.656-1.781l3-2.906q1.781 0.75 3.656 0.75 3.75 0 6.375-2.625t2.625-6.375-2.625-6.375-6.375-2.625-6.375 2.625-2.625 6.375h6.938l-8.25 7.969-7.688-7.969h4.969q0-5.344 3.844-9.188t9.188-3.844q5.438 0 9.234 3.797t3.797 9.234q0 4.781-3.188 8.438l0.563 0.563h1.594z"></path>
</svg>
