<?xml version="1.0" encoding="utf-8"?>
<!-- Generated by IcoMoon.io -->
<!DOCTYPE svg PUBLIC "-//W3C//DTD SVG 1.1//EN" "http://www.w3.org/Graphics/SVG/1.1/DTD/svg11.dtd">
<svg version="1.1" xmlns="http://www.w3.org/2000/svg" xmlns:xlink="http://www.w3.org/1999/xlink" width="48" height="48" viewBox="0 0 48 48">
<path fill="#181818" d="M13.969 18h10.031v1.969h-10.031v-1.969zM19.031 28.031q3.75 0 6.375-2.625t2.625-6.375-2.625-6.375-6.375-2.625-6.375 2.625-2.625 6.375 2.625 6.375 6.375 2.625zM31.031 28.031l9.938 9.938-3 3-9.938-9.938v-1.594l-0.563-0.563q-3.563 3.094-8.438 3.094-5.438 0-9.234-3.75t-3.797-9.188 3.797-9.234 9.234-3.797 9.188 3.797 3.75 9.234q0 4.875-3.094 8.438l0.563 0.563h1.594z"></path>
</svg>
